Foldit-Thin-origin.ufo
<glyph name="dollar.color0" format="2">
  <advance width="600"/>
  <unicode hex="0024"/>
  <outline>
    <contour>
      <point x="77" y="676" type="line"/>
      <point x="200" y="676" type="line"/>
      <point x="200" y="677" type="line"/>
      <point x="177" y="700" type="line"/>
      <point x="77" y="700" type="line"/>
    </contour>
  </outline>
</glyph>
<glyph name="percent.color0" format="2">
  <advance width="600"/>
  <unicode hex="0025"/>
  <outline>
    <contour>
      <point x="73" y="0" type="line"/>
      <point x="96" y="0" type="line"/>
      <point x="341" y="699" type="line"/>
      <point x="341" y="700" type="line"/>
      <point x="318" y="700" type="line"/>
      <point x="73" y="1" type="line"/>
    </contour>
  </outline>
</glyph>
<glyph name="percent.color7" format="2">
  <advance width="600"/>
  <unicode hex="0025"/>
  <outline>
    <contour>
      <point x="335" y="20" type="line"/>
      <point x="336" y="20" type="line"/>
      <point x="359" y="43" type="line"/>
      <point x="359" y="296" type="line"/>
      <point x="335" y="296" type="line"/>
    </contour>
  </outline>
</glyph>
<glyph name="ampersand.color0" format="2">
  <advance width="600"/>
  <unicode hex="0026"/>
  <outline>
    <contour>
      <point x="90" y="646" type="line"/>
      <point x="180" y="646" type="line"/>
      <point x="180" y="670" type="line"/>
      <point x="90" y="670" type="line"/>
    </contour>
  </outline>
</glyph>
<glyph name="ampersand.color5" format="2">
  <advance width="600"/>
  <unicode hex="0026"/>
  <outline>
    <contour>
      <point x="66" y="0" type="line"/>
      <point x="67" y="0" type="line"/>
      <point x="67" y="377" type="line"/>
      <point x="66" y="377" type="line"/>
      <point x="43" y="353" type="line"/>
      <point x="43" y="24" type="line"/>
    </contour>
  </outline>
</glyph>
<glyph name="ampersand" format="2">
  <advance width="372"/>
  <unicode hex="0026"/>
  <outline>
    <contour>
      <point x="90" y="646" type="line"/>
      <point x="180" y="646" type="line"/>
      <point x="180" y="670" type="line"/>
      <point x="90" y="670" type="line"/>
    </contour>
    <contour>
      <point x="66" y="377" type="line"/>
      <point x="90" y="377" type="line"/>
      <point x="90" y="670" type="line"/>
      <point x="89" y="670" type="line"/>
      <point x="66" y="647" type="line"/>
    </contour>
    <contour>
      <point x="309" y="0" type="line"/>
      <point x="310" y="0" type="line"/>
      <point x="329" y="7" type="line"/>
      <point x="329" y="8" type="line"/>
      <point x="181" y="377" type="line"/>
      <point x="180" y="377" type="line"/>
      <point x="158" y="377" type="line"/>
    </contour>
    <contour>
      <point x="67" y="0" type="line"/>
      <point x="180" y="0" type="line"/>
      <point x="180" y="24" type="line"/>
      <point x="67" y="24" type="line"/>
    </contour>
    <contour>
      <point x="67" y="353" type="line"/>
      <point x="180" y="353" type="line"/>
      <point x="180" y="377" type="line"/>
      <point x="67" y="377" type="line"/>
    </contour>
    <contour>
      <point x="66" y="0" type="line"/>
      <point x="67" y="0" type="line"/>
      <point x="67" y="377" type="line"/>
      <point x="66" y="377" type="line"/>
      <point x="43" y="353" type="line"/>
      <point x="43" y="24" type="line"/>
    </contour>
    <contour>
      <point x="180" y="0" type="line"/>
      <point x="181" y="0" type="line"/>
      <point x="204" y="24" type="line"/>
      <point x="320" y="347" type="line"/>
      <point x="320" y="348" type="line"/>
      <point x="300" y="360" type="line"/>
      <point x="180" y="24" type="line"/>
    </contour>
    <contour>
      <point x="180" y="353" type="line"/>
      <point x="181" y="353" type="line"/>
      <point x="204" y="377" type="line"/>
      <point x="204" y="647" type="line"/>
      <point x="181" y="670" type="line"/>
      <point x="180" y="670" type="line"/>
    </contour>
  </outline>
</glyph>
<glyph name="parenleft.color1" format="2">
  <advance width="600"/>
  <unicode hex="0028"/>
  <outline>
    <contour>
      <point x="53" y="-54" type="line"/>
      <point x="167" y="-100" type="line"/>
      <point x="167" y="-76" type="line"/>
      <point x="53" y="-31" type="line"/>
      <point x="53" y="-47" type="line"/>
    </contour>
  </outline>
</glyph>
<glyph name="three.color0" format="2">
  <advance width="600"/>
  <unicode hex="0033"/>
  <outline>
    <contour>
      <point x="45" y="646" type="line"/>
      <point x="193" y="646" type="line"/>
      <point x="193" y="670" type="line"/>
      <point x="68" y="670" type="line"/>
      <point x="45" y="647" type="line"/>
    </contour>
  </outline>
</glyph>
<glyph name="four.color2" format="2">
  <advance width="600"/>
  <unicode hex="0034"/>
  <outline>
    <contour>
      <point x="203" y="0" type="line"/>
      <point x="227" y="0" type="line"/>
      <point x="227" y="274" type="line"/>
      <point x="204" y="298" type="line"/>
      <point x="203" y="298" type="line"/>
    </contour>
  </outline>
</glyph>
<glyph name="five" format="2">
  <advance width="290"/>
  <unicode hex="0035"/>
  <outline>
    <contour>
      <point x="71" y="0" type="line"/>
      <point x="208" y="0" type="line"/>
      <point x="208" y="24" type="line"/>
      <point x="48" y="24" type="line"/>
      <point x="48" y="23" type="line"/>
    </contour>
    <contour>
      <point x="68" y="403" type="line"/>
      <point x="208" y="403" type="line"/>
      <point x="208" y="427" type="line"/>
      <point x="68" y="427" type="line"/>
    </contour>
    <contour>
      <point x="68" y="427" type="line"/>
      <point x="92" y="427" type="line"/>
      <point x="92" y="670" type="line"/>
      <point x="68" y="670" type="line"/>
    </contour>
    <contour>
      <point x="208" y="0" type="line"/>
      <point x="209" y="0" type="line"/>
      <point x="232" y="24" type="line"/>
      <point x="232" y="403" type="line"/>
      <point x="209" y="427" type="line"/>
      <point x="208" y="427" type="line"/>
    </contour>
    <contour>
      <point x="92" y="646" type="line"/>
      <point x="215" y="646" type="line"/>
      <point x="215" y="670" type="line"/>
      <point x="92" y="670" type="line"/>
    </contour>
  </outline>
</glyph>
<glyph name="seven.color1" format="2">
  <advance width="600"/>
  <unicode hex="0037"/>
  <outline>
    <contour>
      <point x="93" y="0" type="line"/>
      <point x="116" y="0" type="line"/>
      <point x="237" y="637" type="line"/>
      <point x="214" y="670" type="line"/>
      <point x="93" y="1" type="line"/>
    </contour>
  </outline>
</glyph>
<glyph name="greater" format="2">
  <advance width="268"/>
  <unicode hex="003E"/>
  <outline>
    <contour>
      <point x="73" y="219" type="line"/>
      <point x="112" y="219" type="line"/>
      <point x="225" y="330" type="line"/>
      <point x="225" y="331" type="line"/>
      <point x="186" y="331" type="line"/>
      <point x="73" y="220" type="line"/>
    </contour>
    <contour>
      <point x="186" y="331" type="line"/>
      <point x="225" y="331" type="line"/>
      <point x="225" y="332" type="line"/>
      <point x="112" y="443" type="line"/>
      <point x="73" y="443" type="line"/>
      <point x="73" y="442" type="line"/>
    </contour>
  </outline>
</glyph>
<glyph name="question" format="2">
  <advance width="213"/>
  <unicode hex="003F"/>
  <outline>
    <contour>
      <point x="13" y="676" type="line"/>
      <point x="136" y="676" type="line"/>
      <point x="136" y="700" type="line"/>
      <point x="36" y="700" type="line"/>
      <point x="13" y="677" type="line"/>
    </contour>
    <contour>
      <point x="136" y="337" type="line"/>
      <point x="160" y="337" type="line"/>
      <point x="160" y="677" type="line"/>
      <point x="137" y="700" type="line"/>
      <point x="136" y="700" type="line"/>
    </contour>
    <contour>
      <point x="90" y="313" type="line"/>
      <point x="137" y="313" type="line"/>
      <point x="160" y="336" type="line"/>
      <point x="160" y="337" type="line"/>
      <point x="90" y="337" type="line"/>
    </contour>
    <contour>
      <point x="66" y="104" type="line"/>
      <point x="90" y="104" type="line"/>
      <point x="90" y="337" type="line"/>
      <point x="89" y="337" type="line"/>
      <point x="66" y="313" type="line"/>
    </contour>
    <component base="period" xOffset="30"/>
  </outline>
</glyph>
<glyph name="at.color4" format="2">
  <advance width="600"/>
  <unicode hex="0040"/>
  <outline>
    <contour>
      <point x="153" y="24" type="line"/>
      <point x="177" y="24" type="line"/>
      <point x="177" y="500" type="line"/>
      <point x="176" y="500" type="line"/>
      <point x="153" y="477" type="line"/>
    </contour>
  </outline>
</glyph>
<glyph name="at.color8" format="2">
  <advance width="600"/>
  <unicode hex="0040"/>
  <outline>
    <contour>
      <point x="326" y="24" type="line"/>
      <point x="350" y="24" type="line"/>
      <point x="350" y="547" type="line"/>
      <point x="327" y="570" type="line"/>
      <point x="326" y="570" type="line"/>
    </contour>
  </outline>
</glyph>
<glyph name="A" format="2">
  <advance width="273"/>
  <unicode hex="0041"/>
  <anchor x="135" y="0" name="bottom"/>
  <anchor x="138" y="700" name="top"/>
  <outline>
    <contour>
      <point x="53" y="0" type="line"/>
      <point x="77" y="0" type="line"/>
      <point x="77" y="700" type="line"/>
      <point x="76" y="700" type="line"/>
      <point x="53" y="677" type="line"/>
    </contour>
    <contour>
      <point x="77" y="353" type="line"/>
      <point x="196" y="353" type="line"/>
      <point x="196" y="377" type="line"/>
      <point x="77" y="377" type="line"/>
    </contour>
    <contour>
      <point x="196" y="0" type="line"/>
      <point x="220" y="0" type="line"/>
      <point x="220" y="676" type="line"/>
      <point x="196" y="676" type="line"/>
    </contour>
    <contour>
      <point x="77" y="676" type="line"/>
      <point x="220" y="676" type="line"/>
      <point x="220" y="677" type="line"/>
      <point x="197" y="700" type="line"/>
      <point x="77" y="700" type="line"/>
    </contour>
  </outline>
</glyph>
<glyph name="E.color3" format="2">
  <advance width="600"/>
  <unicode hex="0045"/>
  <outline>
    <contour>
      <point x="77" y="676" type="line"/>
      <point x="197" y="676" type="line"/>
      <point x="220" y="699" type="line"/>
      <point x="220" y="700" type="line"/>
      <point x="77" y="700" type="line"/>
    </contour>
  </outline>
</glyph>
<glyph name="F" format="2">
  <advance width="220"/>
  <unicode hex="0046"/>
  <outline>
    <contour>
      <point x="77" y="676" type="line"/>
      <point x="197" y="676" type="line"/>
      <point x="220" y="699" type="line"/>
      <point x="220" y="700" type="line"/>
      <point x="77" y="700" type="line"/>
    </contour>
    <contour>
      <point x="53" y="0" type="line"/>
      <point x="77" y="0" type="line"/>
      <point x="77" y="353" type="line"/>
      <point x="53" y="376" type="line"/>
    </contour>
    <contour>
      <point x="77" y="353" type="line"/>
      <point x="196" y="353" type="line"/>
      <point x="196" y="377" type="line"/>
      <point x="53" y="377" type="line"/>
      <point x="53" y="376" type="line"/>
    </contour>
    <contour>
      <point x="53" y="377" type="line"/>
      <point x="77" y="377" type="line"/>
      <point x="77" y="700" type="line"/>
      <point x="53" y="700" type="line"/>
    </contour>
  </outline>
</glyph>
<glyph name="H" format="2">
  <advance width="293"/>
  <unicode hex="0048"/>
  <anchor x="146" y="700" name="top"/>
  <outline>
    <contour>
      <point x="216" y="0" type="line"/>
      <point x="240" y="0" type="line"/>
      <point x="240" y="700" type="line"/>
      <point x="216" y="700" type="line"/>
    </contour>
    <contour>
      <point x="53" y="0" type="line"/>
      <point x="77" y="0" type="line"/>
      <point x="77" y="700" type="line"/>
      <point x="53" y="700" type="line"/>
    </contour>
    <contour>
      <point x="77" y="353" type="line"/>
      <point x="216" y="353" type="line"/>
      <point x="216" y="377" type="line"/>
      <point x="77" y="377" type="line"/>
    </contour>
  </outline>
</glyph>
<glyph name="M.color0" format="2">
  <advance width="600"/>
  <unicode hex="004D"/>
  <outline>
    <contour>
      <point x="196" y="-3" type="line"/>
      <point x="222" y="-3" type="line"/>
      <point x="365" y="680" type="line"/>
      <point x="342" y="703" type="line"/>
    </contour>
  </outline>
</glyph>
<glyph name="M.color2" format="2">
  <advance width="600"/>
  <unicode hex="004D"/>
  <outline>
    <contour>
      <point x="196" y="-3" type="line"/>
      <point x="222" y="-3" type="line"/>
      <point x="222" y="-2" type="line"/>
      <point x="77" y="703" type="line"/>
      <point x="76" y="703" type="line"/>
      <point x="53" y="679" type="line"/>
    </contour>
  </outline>
</glyph>
<glyph name="S" format="2">
  <advance width="233"/>
  <unicode hex="0053"/>
  <anchor x="122" y="0" name="bottom"/>
  <anchor x="128" y="700" name="top"/>
  <outline>
    <contour>
      <point x="67" y="676" type="line"/>
      <point x="190" y="676" type="line"/>
      <point x="190" y="677" type="line"/>
      <point x="167" y="700" type="line"/>
      <point x="67" y="700" type="line"/>
    </contour>
    <contour>
      <point x="66" y="0" type="line"/>
      <point x="166" y="0" type="line"/>
      <point x="166" y="24" type="line"/>
      <point x="43" y="24" type="line"/>
      <point x="43" y="23" type="line"/>
    </contour>
    <contour>
      <point x="66" y="353" type="line"/>
      <point x="166" y="353" type="line"/>
      <point x="166" y="377" type="line"/>
      <point x="43" y="377" type="line"/>
      <point x="43" y="376" type="line"/>
    </contour>
    <contour>
      <point x="43" y="377" type="line"/>
      <point x="67" y="377" type="line"/>
      <point x="67" y="700" type="line"/>
      <point x="66" y="700" type="line"/>
      <point x="43" y="677" type="line"/>
    </contour>
    <contour>
      <point x="166" y="0" type="line"/>
      <point x="167" y="0" type="line"/>
      <point x="190" y="24" type="line"/>
      <point x="190" y="353" type="line"/>
      <point x="167" y="377" type="line"/>
      <point x="166" y="377" type="line"/>
    </contour>
  </outline>
</glyph>
<glyph name="W.color1" format="2">
  <advance width="600"/>
  <unicode hex="0057"/>
  <outline>
    <contour>
      <point x="122" y="0" type="line"/>
      <point x="123" y="0" type="line"/>
      <point x="145" y="12" type="line"/>
      <point x="42" y="700" type="line"/>
      <point x="18" y="700" type="line"/>
      <point x="18" y="699" type="line"/>
    </contour>
  </outline>
</glyph>
<glyph name="X.color2" format="2">
  <advance width="600"/>
  <unicode hex="0058"/>
  <outline>
    <contour>
      <point x="35" y="0" type="line"/>
      <point x="59" y="0" type="line"/>
      <point x="135" y="350" type="line"/>
      <point x="112" y="350" type="line"/>
      <point x="35" y="1" type="line"/>
    </contour>
  </outline>
</glyph>
<glyph name="Y.color1" format="2">
  <advance width="600"/>
  <unicode hex="0059"/>
  <outline>
    <contour>
      <point x="117" y="0" type="line"/>
      <point x="141" y="0" type="line"/>
      <point x="141" y="350" type="line"/>
      <point x="117" y="350" type="line"/>
    </contour>
  </outline>
</glyph>
<glyph name="backslash" format="2">
  <advance width="168"/>
  <unicode hex="005C"/>
  <outline>
    <contour>
      <point x="145" y="-100" type="line"/>
      <point x="168" y="-100" type="line"/>
      <point x="168" y="-99" type="line"/>
      <point x="23" y="800" type="line"/>
      <point x="0" y="800" type="line"/>
      <point x="0" y="799" type="line"/>
    </contour>
  </outline>
</glyph>
<glyph name="bracketright" format="2">
  <advance width="187"/>
  <unicode hex="005D"/>
  <outline>
    <contour>
      <point x="110" y="-100" type="line"/>
      <point x="134" y="-100" type="line"/>
      <point x="134" y="676" type="line"/>
      <point x="110" y="676" type="line"/>
    </contour>
    <contour>
      <point x="20" y="-100" type="line"/>
      <point x="110" y="-100" type="line"/>
      <point x="110" y="-76" type="line"/>
      <point x="20" y="-76" type="line"/>
    </contour>
    <contour>
      <point x="20" y="676" type="line"/>
      <point x="134" y="676" type="line"/>
      <point x="134" y="700" type="line"/>
      <point x="20" y="700" type="line"/>
    </contour>
  </outline>
</glyph>
<glyph name="underscore" format="2">
  <advance width="276"/>
  <unicode hex="005F"/>
  <outline>
    <contour>
      <point x="53" y="-24" type="line"/>
      <point x="223" y="-24" type="line"/>
      <point x="223" y="0" type="line"/>
      <point x="53" y="0" type="line"/>
    </contour>
  </outline>
</glyph>
<glyph name="b.color0" format="2">
  <advance width="600"/>
  <unicode hex="0062"/>
  <outline>
    <contour>
      <point x="51" y="24" type="line"/>
      <point x="75" y="24" type="line"/>
      <point x="75" y="730" type="line"/>
      <point x="51" y="730" type="line"/>
    </contour>
  </outline>
</glyph>
<glyph name="d.color0" format="2">
  <advance width="600"/>
  <unicode hex="0064"/>
  <outline>
    <contour>
      <point x="146" y="477" type="line"/>
      <point x="147" y="477" type="line"/>
      <point x="147" y="730" type="line"/>
      <point x="123" y="730" type="line"/>
      <point x="123" y="500" type="line"/>
    </contour>
  </outline>
</glyph>
<glyph name="g.color3" format="2">
  <advance width="600"/>
  <unicode hex="0067"/>
  <outline>
    <contour>
      <point x="50" y="24" type="line"/>
      <point x="74" y="24" type="line"/>
      <point x="74" y="500" type="line"/>
      <point x="73" y="500" type="line"/>
      <point x="50" y="477" type="line"/>
    </contour>
  </outline>
</glyph>
<glyph name="w.color1" format="2">
  <advance width="600"/>
  <unicode hex="0077"/>
  <outline>
    <contour>
      <point x="73" y="0" type="line"/>
      <point x="123" y="0" type="line"/>
      <point x="123" y="24" type="line"/>
      <point x="50" y="24" type="line"/>
      <point x="50" y="23" type="line"/>
    </contour>
  </outline>
</glyph>
<glyph name="w" format="2">
  <advance width="270"/>
  <unicode hex="0077"/>
  <anchor x="140" y="500" name="top"/>
  <outline>
    <contour>
      <point x="196" y="0" type="line"/>
      <point x="197" y="0" type="line"/>
      <point x="220" y="23" type="line"/>
      <point x="220" y="500" type="line"/>
      <point x="196" y="500" type="line"/>
    </contour>
    <contour>
      <point x="73" y="0" type="line"/>
      <point x="123" y="0" type="line"/>
      <point x="123" y="24" type="line"/>
      <point x="50" y="24" type="line"/>
      <point x="50" y="23" type="line"/>
    </contour>
    <contour>
      <point x="50" y="24" type="line"/>
      <point x="74" y="24" type="line"/>
      <point x="74" y="503" type="line"/>
      <point x="73" y="503" type="line"/>
      <point x="50" y="480" type="line"/>
    </contour>
    <contour>
      <point x="146" y="0" type="line"/>
      <point x="196" y="0" type="line"/>
      <point x="196" y="24" type="line"/>
      <point x="123" y="24" type="line"/>
      <point x="123" y="23" type="line"/>
    </contour>
    <contour>
      <point x="123" y="24" type="line"/>
      <point x="147" y="24" type="line"/>
      <point x="147" y="503" type="line"/>
      <point x="146" y="503" type="line"/>
      <point x="123" y="480" type="line"/>
    </contour>
  </outline>
</glyph>
<glyph name="asciitilde.color1" format="2">
  <advance width="600"/>
  <unicode hex="007E"/>
  <outline>
    <contour>
      <point x="217" y="302" type="line"/>
      <point x="241" y="301" type="line"/>
      <point x="241" y="353" type="line"/>
      <point x="217" y="353" type="line"/>
    </contour>
  </outline>
</glyph>
<glyph name="cent" format="2">
  <advance width="203"/>
  <unicode hex="00A2"/>
  <outline>
    <contour>
      <point x="87" y="487" type="line"/>
      <point x="111" y="487" type="line"/>
      <point x="111" y="546" type="line"/>
      <point x="110" y="546" type="line"/>
      <point x="87" y="523" type="line"/>
    </contour>
    <contour>
      <point x="87" y="-54" type="line"/>
      <point x="88" y="-54" type="line"/>
      <point x="111" y="-31" type="line"/>
      <point x="111" y="16" type="line"/>
      <point x="87" y="16" type="line"/>
    </contour>
    <component base="c"/>
  </outline>
</glyph>
<glyph name="currency.color0" format="2">
  <advance width="600"/>
  <unicode hex="00A4"/>
  <outline>
    <contour>
      <point x="117" y="526" type="line"/>
      <point x="191" y="526" type="line"/>
      <point x="168" y="550" type="line"/>
      <point x="117" y="550" type="line"/>
    </contour>
  </outline>
</glyph>
<glyph name="yen.color2" format="2">
  <advance width="600"/>
  <unicode hex="00A5"/>
  <outline>
    <contour>
      <point x="119" y="350" type="line"/>
      <point x="120" y="350" type="line"/>
      <point x="142" y="356" type="line"/>
      <point x="49" y="700" type="line"/>
      <point x="25" y="700" type="line"/>
      <point x="25" y="699" type="line"/>
    </contour>
  </outline>
</glyph>
<glyph name="yen" format="2">
  <advance width="254"/>
  <unicode hex="00A5"/>
  <anchor x="131" y="0" name="bottom"/>
  <anchor x="129" y="700" name="top"/>
  <outline>
    <contour>
      <point x="59" y="318" type="line"/>
      <point x="218" y="319" type="line"/>
      <point x="218" y="320" type="line"/>
      <point x="195" y="343" type="line"/>
      <point x="36" y="342" type="line"/>
      <point x="36" y="341" type="line"/>
    </contour>
    <contour>
      <point x="59" y="229" type="line"/>
      <point x="218" y="230" type="line"/>
      <point x="218" y="231" type="line"/>
      <point x="195" y="254" type="line"/>
      <point x="36" y="253" type="line"/>
      <point x="36" y="252" type="line"/>
    </contour>
    <contour>
      <point x="119" y="350" type="line"/>
      <point x="120" y="350" type="line"/>
      <point x="142" y="356" type="line"/>
      <point x="49" y="700" type="line"/>
      <point x="25" y="700" type="line"/>
      <point x="25" y="699" type="line"/>
    </contour>
    <contour>
      <point x="119" y="0" type="line"/>
      <point x="143" y="0" type="line"/>
      <point x="143" y="350" type="line"/>
      <point x="119" y="350" type="line"/>
    </contour>
    <contour>
      <point x="120" y="350" type="line"/>
      <point x="143" y="350" type="line"/>
      <point x="229" y="699" type="line"/>
      <point x="229" y="700" type="line"/>
      <point x="205" y="700" type="line"/>
    </contour>
  </outline>
</glyph>
<glyph name="logicalnot.color0" format="2">
  <advance width="600"/>
  <unicode hex="00AC"/>
  <outline>
    <contour>
      <point x="53" y="329" type="line"/>
      <point x="244" y="329" type="line"/>
      <point x="221" y="353" type="line"/>
      <point x="53" y="353" type="line"/>
    </contour>
  </outline>
</glyph>
<glyph name="softhyphen" format="2">
  <advance width="181"/>
  <unicode hex="00AD"/>
  <outline>
    <contour>
      <point x="53" y="323" type="line"/>
      <point x="128" y="323" type="line"/>
      <point x="128" y="357" type="line"/>
      <point x="53" y="357" type="line"/>
    </contour>
  </outline>
</glyph>
<glyph name="registered.color6" format="2">
  <advance width="600"/>
  <unicode hex="00AE"/>
  <outline>
    <contour>
      <point x="110" y="636" type="line"/>
      <point x="173" y="636" type="line"/>
      <point x="173" y="637" type="line"/>
      <point x="150" y="660" type="line"/>
      <point x="110" y="660" type="line"/>
    </contour>
  </outline>
</glyph>
<glyph name="twosuperior.color1" format="2">
  <advance width="600"/>
  <unicode hex="00B2"/>
  <outline>
    <contour>
      <point x="79" y="454" type="line"/>
      <point x="172" y="676" type="line"/>
      <point x="156" y="700" type="line"/>
      <point x="53" y="455" type="line"/>
      <point x="53" y="454" type="line"/>
    </contour>
  </outline>
</glyph>
<glyph name="periodcentered" format="2">
  <advance width="137"/>
  <unicode hex="00B7"/>
  <outline>
    <contour>
      <point x="33" y="329" type="line"/>
      <point x="64" y="329" type="line"/>
      <point x="64" y="353" type="line"/>
      <point x="33" y="353" type="line"/>
    </contour>
  </outline>
</glyph>
<glyph name="cedilla" format="2">
  <advance width="600"/>
  <unicode hex="00B8"/>
  <anchor x="326" y="0" name="_bottom"/>
  <outline>
    <contour>
      <point x="322" y="-44" type="line"/>
      <point x="357" y="-44" type="line"/>
      <point x="357" y="-43" type="line"/>
      <point x="339" y="-25" type="line"/>
      <point x="322" y="-25" type="line"/>
    </contour>
    <contour>
      <point x="301" y="-44" type="line"/>
      <point x="322" y="-44" type="line"/>
      <point x="337" y="-1" type="line"/>
      <point x="337" y="0" type="line"/>
      <point x="313" y="0" type="line"/>
      <point x="301" y="-43" type="line"/>
    </contour>
    <contour>
      <point x="304" y="-109" type="line"/>
      <point x="336" y="-109" type="line"/>
      <point x="336" y="-90" type="line"/>
      <point x="286" y="-90" type="line"/>
      <point x="286" y="-91" type="line"/>
    </contour>
    <contour>
      <point x="336" y="-109" type="line"/>
      <point x="337" y="-109" type="line"/>
      <point x="357" y="-91" type="line"/>
      <point x="357" y="-44" type="line"/>
      <point x="336" y="-44" type="line"/>
    </contour>
  </outline>
</glyph>
<glyph name="onesuperior" format="2">
  <advance width="229"/>
  <unicode hex="00B9"/>
  <outline>
    <contour>
      <point x="103" y="430" type="line"/>
      <point x="104" y="430" type="line"/>
      <point x="127" y="454" type="line"/>
      <point x="127" y="700" type="line"/>
      <point x="126" y="700" type="line"/>
      <point x="103" y="676" type="line"/>
    </contour>
    <contour>
      <point x="53" y="430" type="line"/>
      <point x="103" y="430" type="line"/>
      <point x="103" y="454" type="line"/>
      <point x="53" y="454" type="line"/>
    </contour>
    <contour>
      <point x="104" y="430" type="line"/>
      <point x="176" y="430" type="line"/>
      <point x="176" y="454" type="line"/>
      <point x="127" y="454" type="line"/>
    </contour>
    <contour>
      <point x="62" y="676" type="line"/>
      <point x="103" y="676" type="line"/>
      <point x="126" y="700" type="line"/>
      <point x="62" y="700" type="line"/>
    </contour>
  </outline>
</glyph>
<glyph name="ordmasculine.color0" format="2">
  <advance width="600"/>
  <unicode hex="00BA"/>
  <outline>
    <contour>
      <point x="75" y="707" type="line"/>
      <point x="137" y="707" type="line"/>
      <point x="137" y="708" type="line"/>
      <point x="116" y="730" type="line"/>
      <point x="75" y="730" type="line"/>
    </contour>
  </outline>
</glyph>
<glyph name="ordmasculine.color3" format="2">
  <advance width="600"/>
  <unicode hex="00BA"/>
  <outline>
    <contour>
      <point x="115" y="502" type="line"/>
      <point x="116" y="502" type="line"/>
      <point x="137" y="524" type="line"/>
      <point x="137" y="707" type="line"/>
      <point x="115" y="707" type="line"/>
    </contour>
  </outline>
</glyph>
<glyph name="guillemetright.color1" format="2">
  <advance width="600"/>
  <unicode hex="00BB"/>
  <outline>
    <contour>
      <point x="152" y="100" type="line"/>
      <point x="295" y="276" type="line"/>
      <point x="295" y="277" type="line"/>
      <point x="266" y="277" type="line"/>
      <point x="123" y="101" type="line"/>
      <point x="123" y="100" type="line"/>
    </contour>
  </outline>
</glyph>
<glyph name="guillemetright.color3" format="2">
  <advance width="600"/>
  <unicode hex="00BB"/>
  <outline>
    <contour>
      <point x="72" y="100" type="line"/>
      <point x="215" y="276" type="line"/>
      <point x="215" y="277" type="line"/>
      <point x="186" y="277" type="line"/>
      <point x="43" y="101" type="line"/>
      <point x="43" y="100" type="line"/>
    </contour>
  </outline>
</glyph>
<glyph name="guillemetright" format="2">
  <advance width="338"/>
  <unicode hex="00BB"/>
  <outline>
    <contour>
      <point x="215" y="277" type="line"/>
      <point x="215" y="278" type="line"/>
      <point x="72" y="453" type="line"/>
      <point x="43" y="453" type="line"/>
      <point x="43" y="452" type="line"/>
      <point x="186" y="277" type="line"/>
    </contour>
    <contour>
      <point x="152" y="100" type="line"/>
      <point x="295" y="276" type="line"/>
      <point x="295" y="277" type="line"/>
      <point x="266" y="277" type="line"/>
      <point x="123" y="101" type="line"/>
      <point x="123" y="100" type="line"/>
    </contour>
    <contour>
      <point x="295" y="277" type="line"/>
      <point x="295" y="278" type="line"/>
      <point x="152" y="453" type="line"/>
      <point x="123" y="453" type="line"/>
      <point x="123" y="452" type="line"/>
      <point x="266" y="277" type="line"/>
    </contour>
    <contour>
      <point x="72" y="100" type="line"/>
      <point x="215" y="276" type="line"/>
      <point x="215" y="277" type="line"/>
      <point x="186" y="277" type="line"/>
      <point x="43" y="101" type="line"/>
      <point x="43" y="100" type="line"/>
    </contour>
  </outline>
</glyph>
<glyph name="onequarter.color5" format="2">
  <advance width="600"/>
  <unicode hex="00BC"/>
  <outline>
    <contour>
      <point x="303" y="104" type="line"/>
      <point x="390" y="104" type="line"/>
      <point x="390" y="128" type="line"/>
      <point x="304" y="128" type="line"/>
    </contour>
  </outline>
</glyph>
<glyph name="threequarters.color8" format="2">
  <advance width="600"/>
  <unicode hex="00BE"/>
  <outline>
    <contour>
      <point x="390" y="0" type="line"/>
      <point x="414" y="0" type="line"/>
      <point x="414" y="104" type="line"/>
      <point x="391" y="128" type="line"/>
      <point x="390" y="128" type="line"/>
    </contour>
  </outline>
</glyph>
<glyph name="questiondown.color1" format="2">
  <advance width="600"/>
  <unicode hex="00BF"/>
  <outline>
    <contour>
      <point x="53" y="333" type="line"/>
      <point x="123" y="333" type="line"/>
      <point x="123" y="357" type="line"/>
      <point x="76" y="357" type="line"/>
      <point x="53" y="334" type="line"/>
    </contour>
  </outline>
</glyph>
<glyph name="Aacute" format="2">
  <advance width="273"/>
  <unicode hex="00C1"/>
  <anchor x="135" y="0" name="bottom"/>
  <anchor x="138" y="700" name="top"/>
  <outline>
    <contour>
      <point x="53" y="0" type="line"/>
      <point x="77" y="0" type="line"/>
      <point x="77" y="700" type="line"/>
      <point x="76" y="700" type="line"/>
      <point x="53" y="677" type="line"/>
    </contour>
    <contour>
      <point x="77" y="353" type="line"/>
      <point x="196" y="353" type="line"/>
      <point x="196" y="377" type="line"/>
      <point x="77" y="377" type="line"/>
    </contour>
    <contour>
      <point x="196" y="0" type="line"/>
      <point x="220" y="0" type="line"/>
      <point x="220" y="676" type="line"/>
      <point x="196" y="676" type="line"/>
    </contour>
    <contour>
      <point x="77" y="676" type="line"/>
      <point x="220" y="676" type="line"/>
      <point x="220" y="677" type="line"/>
      <point x="197" y="700" type="line"/>
      <point x="77" y="700" type="line"/>
    </contour>
    <contour>
      <point x="120" y="735" type="line"/>
      <point x="144" y="735" type="line"/>
      <point x="171" y="854" type="line"/>
      <point x="171" y="855" type="line"/>
      <point x="140" y="855" type="line"/>
    </contour>
  </outline>
</glyph>
<glyph name="Atilde.color4" format="2">
  <advance width="600"/>
  <unicode hex="00C3"/>
  <outline>
    <contour>
      <point x="77" y="786" type="line"/>
      <point x="101" y="786" type="line"/>
      <point x="101" y="838" type="line"/>
      <point x="77" y="837" type="line"/>
    </contour>
  </outline>
</glyph>
<glyph name="Adieresis.color1" format="2">
  <advance width="600"/>
  <unicode hex="00C4"/>
  <outline>
    <contour>
      <point x="77" y="353" type="line"/>
      <point x="196" y="353" type="line"/>
      <point x="196" y="377" type="line"/>
      <point x="77" y="377" type="line"/>
    </contour>
  </outline>
</glyph>
<glyph name="Aring" format="2">
  <advance width="273"/>
  <unicode hex="00C5"/>
  <anchor x="135" y="0" name="bottom"/>
  <anchor x="138" y="700" name="top"/>
  <outline>
    <contour>
      <point x="53" y="0" type="line"/>
      <point x="77" y="0" type="line"/>
      <point x="77" y="700" type="line"/>
      <point x="76" y="700" type="line"/>
      <point x="53" y="677" type="line"/>
    </contour>
    <contour>
      <point x="77" y="353" type="line"/>
      <point x="196" y="353" type="line"/>
      <point x="196" y="377" type="line"/>
      <point x="77" y="377" type="line"/>
    </contour>
    <contour>
      <point x="196" y="0" type="line"/>
      <point x="220" y="0" type="line"/>
      <point x="220" y="676" type="line"/>
      <point x="196" y="676" type="line"/>
    </contour>
    <contour>
      <point x="77" y="676" type="line"/>
      <point x="220" y="676" type="line"/>
      <point x="220" y="677" type="line"/>
      <point x="197" y="700" type="line"/>
      <point x="77" y="700" type="line"/>
    </contour>
    <contour>
      <point x="150" y="753" type="line"/>
      <point x="151" y="753" type="line"/>
      <point x="172" y="771" type="line"/>
      <point x="172" y="835" type="line"/>
      <point x="150" y="835" type="line"/>
    </contour>
    <contour>
      <point x="113" y="753" type="line"/>
      <point x="150" y="753" type="line"/>
      <point x="150" y="775" type="line"/>
      <point x="95" y="775" type="line"/>
      <point x="95" y="774" type="line"/>
    </contour>
    <contour>
      <point x="95" y="775" type="line"/>
      <point x="116" y="775" type="line"/>
      <point x="116" y="857" type="line"/>
      <point x="115" y="857" type="line"/>
      <point x="95" y="839" type="line"/>
    </contour>
    <contour>
      <point x="116" y="835" type="line"/>
      <point x="172" y="835" type="line"/>
      <point x="172" y="836" type="line"/>
      <point x="154" y="857" type="line"/>
      <point x="116" y="857" type="line"/>
    </contour>
  </outline>
</glyph>
<glyph name="AE.color3" format="2">
  <advance width="600"/>
  <unicode hex="00C6"/>
  <outline>
    <contour>
      <point x="196" y="24" type="line"/>
      <point x="220" y="24" type="line"/>
      <point x="220" y="676" type="line"/>
      <point x="196" y="676" type="line"/>
    </contour>
  </outline>
</glyph>
<glyph name="Ccedilla.color6" format="2">
  <advance width="600"/>
  <unicode hex="00C7"/>
  <outline>
    <contour>
      <point x="150" y="-109" type="line"/>
      <point x="151" y="-109" type="line"/>
      <point x="171" y="-91" type="line"/>
      <point x="171" y="-44" type="line"/>
      <point x="150" y="-44" type="line"/>
    </contour>
  </outline>
</glyph>
<glyph name="Ecircumflex.color0" format="2">
  <advance width="600"/>
  <unicode hex="00CA"/>
  <outline>
    <contour>
      <point x="77" y="0" type="line"/>
      <point x="220" y="0" type="line"/>
      <point x="220" y="24" type="line"/>
      <point x="53" y="24" type="line"/>
      <point x="53" y="23" type="line"/>
    </contour>
  </outline>
</glyph>
<glyph name="Igrave.color5" format="2">
  <advance width="600"/>
  <unicode hex="00CC"/>
  <outline>
    <contour>
      <point x="105" y="740" type="line"/>
      <point x="129" y="740" type="line"/>
      <point x="119" y="860" type="line"/>
      <point x="88" y="860" type="line"/>
      <point x="88" y="859" type="line"/>
    </contour>
  </outline>
</glyph>
<glyph name="Iacute.color5" format="2">
  <advance width="600"/>
  <unicode hex="00CD"/>
  <outline>
    <contour>
      <point x="97" y="735" type="line"/>
      <point x="121" y="735" type="line"/>
      <point x="148" y="854" type="line"/>
      <point x="148" y="855" type="line"/>
      <point x="117" y="855" type="line"/>
    </contour>
  </outline>
</glyph>
<glyph name="Icircumflex.color5" format="2">
  <advance width="600"/>
  <unicode hex="00CE"/>
  <outline>
    <contour>
      <point x="145" y="760" type="line"/>
      <point x="169" y="760" type="line"/>
      <point x="169" y="761" type="line"/>
      <point x="125" y="850" type="line"/>
      <point x="101" y="850" type="line"/>
    </contour>
  </outline>
</glyph>
<glyph name="Idieresis.color1" format="2">
  <advance width="600"/>
  <unicode hex="00CF"/>
  <outline>
    <contour>
      <point x="21" y="0" type="line"/>
      <point x="101" y="0" type="line"/>
      <point x="101" y="24" type="line"/>
      <point x="21" y="24" type="line"/>
    </contour>
  </outline>
</glyph>
<glyph name="Eth.color1" format="2">
  <advance width="600"/>
  <unicode hex="00D0"/>
  <outline>
    <contour>
      <point x="77" y="676" type="line"/>
      <point x="222" y="676" type="line"/>
      <point x="222" y="677" type="line"/>
      <point x="199" y="700" type="line"/>
      <point x="77" y="700" type="line"/>
    </contour>
  </outline>
</glyph>
<glyph name="Ntilde" format="2">
  <advance width="313"/>
  <unicode hex="00D1"/>
  <anchor x="165" y="0" name="bottom"/>
  <anchor x="168" y="700" name="top"/>
  <outline>
    <contour>
      <point x="260" y="22" type="line"/>
      <point x="260" y="700" type="line"/>
      <point x="236" y="700" type="line"/>
      <point x="236" y="46" type="line"/>
    </contour>
    <contour>
      <point x="53" y="0" type="line"/>
      <point x="77" y="0" type="line"/>
      <point x="77" y="655" type="line"/>
      <point x="53" y="679" type="line"/>
    </contour>
    <contour>
      <point x="236" y="-3" type="line"/>
      <point x="237" y="-3" type="line"/>
      <point x="260" y="21" type="line"/>
      <point x="260" y="22" type="line"/>
      <point x="77" y="703" type="line"/>
      <point x="76" y="703" type="line"/>
      <point x="53" y="680" type="line"/>
      <point x="53" y="679" type="line"/>
    </contour>
    <contour>
      <point x="107" y="786" type="line"/>
      <point x="131" y="786" type="line"/>
      <point x="131" y="838" type="line"/>
      <point x="107" y="837" type="line"/>
    </contour>
    <contour>
      <point x="203" y="795" type="line"/>
      <point x="227" y="795" type="line"/>
      <point x="227" y="847" type="line"/>
      <point x="203" y="847" type="line"/>
    </contour>
    <contour>
      <point x="203" y="785" type="line"/>
      <point x="204" y="785" type="line"/>
      <point x="226" y="794" type="line"/>
      <point x="226" y="795" type="line"/>
      <point x="130" y="847" type="line"/>
      <point x="129" y="847" type="line"/>
      <point x="107" y="838" type="line"/>
      <point x="107" y="837" type="line"/>
    </contour>
  </outline>
</glyph>
<glyph name="Odieresis.color5" format="2">
  <advance width="600"/>
  <unicode hex="00D6"/>
  <outline>
    <contour>
      <point x="90" y="811" type="line"/>
      <point x="121" y="811" type="line"/>
      <point x="121" y="845" type="line"/>
      <point x="90" y="845" type="line"/>
    </contour>
  </outline>
</glyph>
<glyph name="multiply.color1" format="2">
  <advance width="600"/>
  <unicode hex="00D7"/>
  <outline>
    <contour>
      <point x="43" y="240" type="line"/>
      <point x="70" y="240" type="line"/>
      <point x="142" y="342" type="line"/>
      <point x="142" y="343" type="line"/>
      <point x="114" y="342" type="line"/>
      <point x="43" y="241" type="line"/>
    </contour>
  </outline>
</glyph>
<glyph name="Ugrave.color3" format="2">
  <advance width="600"/>
  <unicode hex="00D9"/>
  <outline>
    <contour>
      <point x="133" y="741" type="line"/>
      <point x="157" y="741" type="line"/>
      <point x="147" y="861" type="line"/>
      <point x="116" y="861" type="line"/>
      <point x="116" y="860" type="line"/>
    </contour>
  </outline>
</glyph>
<glyph name="Thorn.color3" format="2">
  <advance width="600"/>
  <unicode hex="00DE"/>
  <outline>
    <contour>
      <point x="77" y="516" type="line"/>
      <point x="221" y="516" type="line"/>
      <point x="221" y="517" type="line"/>
      <point x="198" y="540" type="line"/>
      <point x="77" y="540" type="line"/>
    </contour>
  </outline>
</glyph>
<glyph name="germandbls.color4" format="2">
  <advance width="600"/>
  <unicode hex="00DF"/>
  <outline>
    <contour>
      <point x="145" y="373" type="line"/>
      <point x="186" y="373" type="line"/>
      <point x="186" y="397" type="line"/>
      <point x="122" y="397" type="line"/>
      <point x="122" y="396" type="line"/>
    </contour>
  </outline>
</glyph>
<glyph name="agrave" format="2">
  <advance width="197"/>
  <unicode hex="00E0"/>
  <anchor x="102" y="0" name="bottom"/>
  <anchor x="102" y="500" name="top"/>
  <outline>
    <contour>
      <point x="74" y="476" type="line"/>
      <point x="147" y="476" type="line"/>
      <point x="147" y="477" type="line"/>
      <point x="124" y="500" type="line"/>
      <point x="74" y="500" type="line"/>
    </contour>
    <contour>
      <point x="73" y="0" type="line"/>
      <point x="123" y="0" type="line"/>
      <point x="123" y="24" type="line"/>
      <point x="50" y="24" type="line"/>
      <point x="50" y="23" type="line"/>
    </contour>
    <contour>
      <point x="50" y="24" type="line"/>
      <point x="74" y="24" type="line"/>
      <point x="74" y="500" type="line"/>
      <point x="73" y="500" type="line"/>
      <point x="50" y="477" type="line"/>
    </contour>
    <contour>
      <point x="123" y="0" type="line"/>
      <point x="147" y="0" type="line"/>
      <point x="147" y="476" type="line"/>
      <point x="123" y="476" type="line"/>
    </contour>
    <contour>
      <point x="94" y="570" type="line"/>
      <point x="118" y="570" type="line"/>
      <point x="93" y="700" type="line"/>
      <point x="62" y="700" type="line"/>
      <point x="62" y="699" type="line"/>
    </contour>
  </outline>
</glyph>
<glyph name="adieresis.color3" format="2">
  <advance width="600"/>
  <unicode hex="00E4"/>
  <outline>
    <contour>
      <point x="123" y="0" type="line"/>
      <point x="147" y="0" type="line"/>
      <point x="147" y="476" type="line"/>
      <point x="123" y="476" type="line"/>
    </contour>
  </outline>
</glyph>
<glyph name="aring.color6" format="2">
  <advance width="600"/>
  <unicode hex="00E5"/>
  <outline>
    <contour>
      <point x="63" y="591" type="line"/>
      <point x="82" y="591" type="line"/>
      <point x="82" y="676" type="line"/>
      <point x="81" y="676" type="line"/>
      <point x="63" y="658" type="line"/>
    </contour>
  </outline>
</glyph>
<glyph name="ae.color5" format="2">
  <advance width="600"/>
  <unicode hex="00E6"/>
  <outline>
    <contour>
      <point x="147" y="0" type="line"/>
      <point x="198" y="0" type="line"/>
      <point x="221" y="23" type="line"/>
      <point x="221" y="24" type="line"/>
      <point x="147" y="24" type="line"/>
    </contour>
  </outline>
</glyph>
<glyph name="ae" format="2">
  <advance width="271"/>
  <unicode hex="00E6"/>
  <anchor x="130" y="500" name="top"/>
  <outline>
    <contour>
      <point x="73" y="0" type="line"/>
      <point x="147" y="0" type="line"/>
      <point x="123" y="24" type="line"/>
      <point x="50" y="24" type="line"/>
      <point x="50" y="23" type="line"/>
    </contour>
    <contour>
      <point x="147" y="476" type="line"/>
      <point x="221" y="476" type="line"/>
      <point x="221" y="477" type="line"/>
      <point x="198" y="500" type="line"/>
      <point x="147" y="500" type="line"/>
    </contour>
    <contour>
      <point x="50" y="24" type="line"/>
      <point x="74" y="24" type="line"/>
      <point x="74" y="500" type="line"/>
      <point x="73" y="500" type="line"/>
      <point x="50" y="477" type="line"/>
    </contour>
    <contour>
      <point x="147" y="0" type="line"/>
      <point x="147" y="476" type="line"/>
      <point x="123" y="476" type="line"/>
      <point x="123" y="24" type="line"/>
    </contour>
    <contour>
      <point x="74" y="476" type="line"/>
      <point x="147" y="476" type="line"/>
      <point x="147" y="477" type="line"/>
      <point x="124" y="500" type="line"/>
      <point x="74" y="500" type="line"/>
    </contour>
    <contour>
      <point x="147" y="0" type="line"/>
      <point x="198" y="0" type="line"/>
      <point x="221" y="23" type="line"/>
      <point x="221" y="24" type="line"/>
      <point x="147" y="24" type="line"/>
    </contour>
    <contour>
      <point x="147" y="202" type="line"/>
      <point x="197" y="202" type="line"/>
      <point x="197" y="226" type="line"/>
      <point x="147" y="226" type="line"/>
    </contour>
    <contour>
      <point x="197" y="202" type="line"/>
      <point x="198" y="202" type="line"/>
      <point x="221" y="225" type="line"/>
      <point x="221" y="476" type="line"/>
      <point x="197" y="476" type="line"/>
    </contour>
  </outline>
</glyph>
<glyph name="ccedilla.color5" format="2">
  <advance width="600"/>
  <unicode hex="00E7"/>
  <outline>
    <contour>
      <point x="80" y="-109" type="line"/>
      <point x="112" y="-109" type="line"/>
      <point x="112" y="-90" type="line"/>
      <point x="62" y="-90" type="line"/>
      <point x="62" y="-91" type="line"/>
    </contour>
  </outline>
</glyph>
<glyph name="eacute.color5" format="2">
  <advance width="600"/>
  <unicode hex="00E9"/>
  <outline>
    <contour>
      <point x="84" y="570" type="line"/>
      <point x="108" y="570" type="line"/>
      <point x="140" y="699" type="line"/>
      <point x="140" y="700" type="line"/>
      <point x="109" y="700" type="line"/>
    </contour>
  </outline>
</glyph>
<glyph name="iacute.color1" format="2">
  <advance width="600"/>
  <unicode hex="00ED"/>
  <outline>
    <contour>
      <point x="47" y="570" type="line"/>
      <point x="71" y="570" type="line"/>
      <point x="103" y="699" type="line"/>
      <point x="103" y="700" type="line"/>
      <point x="72" y="700" type="line"/>
    </contour>
  </outline>
</glyph>
<glyph name="iacute" format="2">
  <advance width="130"/>
  <unicode hex="00ED"/>
  <anchor x="65" y="0" name="bottom"/>
  <anchor x="63" y="500" name="top"/>
  <outline>
    <contour>
      <point x="53" y="0" type="line"/>
      <point x="77" y="0" type="line"/>
      <point x="77" y="503" type="line"/>
      <point x="76" y="503" type="line"/>
      <point x="53" y="480" type="line"/>
    </contour>
    <contour>
      <point x="47" y="570" type="line"/>
      <point x="71" y="570" type="line"/>
      <point x="103" y="699" type="line"/>
      <point x="103" y="700" type="line"/>
      <point x="72" y="700" type="line"/>
    </contour>
  </outline>
</glyph>
<glyph name="ograve.color4" format="2">
  <advance width="600"/>
  <unicode hex="00F2"/>
  <outline>
    <contour>
      <point x="91" y="570" type="line"/>
      <point x="115" y="570" type="line"/>
      <point x="90" y="700" type="line"/>
      <point x="59" y="700" type="line"/>
      <point x="59" y="699" type="line"/>
    </contour>
  </outline>
</glyph>
<glyph name="ograve" format="2">
  <advance width="198"/>
  <unicode hex="00F2"/>
  <anchor x="99" y="0" name="bottom"/>
  <anchor x="124" y="500" name="horn"/>
  <anchor x="99" y="500" name="top"/>
  <outline>
    <contour>
      <point x="74" y="476" type="line"/>
      <point x="148" y="476" type="line"/>
      <point x="148" y="477" type="line"/>
      <point x="125" y="500" type="line"/>
      <point x="74" y="500" type="line"/>
    </contour>
    <contour>
      <point x="73" y="0" type="line"/>
      <point x="124" y="0" type="line"/>
      <point x="124" y="24" type="line"/>
      <point x="50" y="24" type="line"/>
      <point x="50" y="23" type="line"/>
    </contour>
    <contour>
      <point x="50" y="24" type="line"/>
      <point x="74" y="24" type="line"/>
      <point x="74" y="500" type="line"/>
      <point x="73" y="500" type="line"/>
      <point x="50" y="477" type="line"/>
    </contour>
    <contour>
      <point x="124" y="0" type="line"/>
      <point x="125" y="0" type="line"/>
      <point x="148" y="23" type="line"/>
      <point x="148" y="476" type="line"/>
      <point x="124" y="476" type="line"/>
    </contour>
    <contour>
      <point x="91" y="570" type="line"/>
      <point x="115" y="570" type="line"/>
      <point x="90" y="700" type="line"/>
      <point x="59" y="700" type="line"/>
      <point x="59" y="699" type="line"/>
    </contour>
  </outline>
</glyph>
<glyph name="otilde.color4" format="2">
  <advance width="600"/>
  <unicode hex="00F5"/>
  <outline>
    <contour>
      <point x="49" y="581" type="line"/>
      <point x="69" y="581" type="line"/>
      <point x="69" y="633" type="line"/>
      <point x="49" y="632" type="line"/>
    </contour>
  </outline>
</glyph>
<glyph name="odieresis" format="2">
  <advance width="198"/>
  <unicode hex="00F6"/>
  <anchor x="99" y="0" name="bottom"/>
  <anchor x="124" y="500" name="horn"/>
  <anchor x="94" y="590" name="top"/>
  <outline>
    <contour>
      <point x="74" y="476" type="line"/>
      <point x="148" y="476" type="line"/>
      <point x="148" y="477" type="line"/>
      <point x="125" y="500" type="line"/>
      <point x="74" y="500" type="line"/>
    </contour>
    <contour>
      <point x="73" y="0" type="line"/>
      <point x="124" y="0" type="line"/>
      <point x="124" y="24" type="line"/>
      <point x="50" y="24" type="line"/>
      <point x="50" y="23" type="line"/>
    </contour>
    <contour>
      <point x="50" y="24" type="line"/>
      <point x="74" y="24" type="line"/>
      <point x="74" y="500" type="line"/>
      <point x="73" y="500" type="line"/>
      <point x="50" y="477" type="line"/>
    </contour>
    <contour>
      <point x="124" y="0" type="line"/>
      <point x="125" y="0" type="line"/>
      <point x="148" y="23" type="line"/>
      <point x="148" y="476" type="line"/>
      <point x="124" y="476" type="line"/>
    </contour>
    <contour>
      <point x="111" y="601" type="line"/>
      <point x="142" y="601" type="line"/>
      <point x="142" y="635" type="line"/>
      <point x="111" y="635" type="line"/>
    </contour>
    <contour>
      <point x="56" y="601" type="line"/>
      <point x="87" y="601" type="line"/>
      <point x="87" y="635" type="line"/>
      <point x="56" y="635" type="line"/>
    </contour>
  </outline>
</glyph>
<glyph name="divide" format="2">
  <advance width="296"/>
  <unicode hex="00F7"/>
  <outline>
    <contour>
      <point x="53" y="329" type="line"/>
      <point x="243" y="329" type="line"/>
      <point x="243" y="353" type="line"/>
      <point x="53" y="353" type="line"/>
    </contour>
    <contour>
      <point x="133" y="265" type="line"/>
      <point x="164" y="265" type="line"/>
      <point x="164" y="289" type="line"/>
      <point x="133" y="289" type="line"/>
    </contour>
    <contour>
      <point x="133" y="393" type="line"/>
      <point x="164" y="393" type="line"/>
      <point x="164" y="417" type="line"/>
      <point x="133" y="417" type="line"/>
    </contour>
  </outline>
</glyph>
<glyph name="ugrave.color3" format="2">
  <advance width="600"/>
  <unicode hex="00F9"/>
  <outline>
    <contour>
      <point x="92" y="570" type="line"/>
      <point x="116" y="570" type="line"/>
      <point x="91" y="700" type="line"/>
      <point x="60" y="700" type="line"/>
      <point x="60" y="699" type="line"/>
    </contour>
  </outline>
</glyph>
<glyph name="uacute.color0" format="2">
  <advance width="600"/>
  <unicode hex="00FA"/>
  <outline>
    <contour>
      <point x="123" y="0" type="line"/>
      <point x="124" y="0" type="line"/>
      <point x="147" y="0" type="line"/>
      <point x="147" y="500" type="line"/>
      <point x="123" y="500" type="line"/>
    </contour>
  </outline>
</glyph>
<glyph name="ucircumflex" format="2">
  <advance width="197"/>
  <unicode hex="00FB"/>
  <anchor x="102" y="0" name="bottom"/>
  <anchor x="123" y="500" name="horn"/>
  <anchor x="107" y="602" name="top"/>
  <outline>
    <contour>
      <point x="123" y="0" type="line"/>
      <point x="124" y="0" type="line"/>
      <point x="147" y="0" type="line"/>
      <point x="147" y="500" type="line"/>
      <point x="123" y="500" type="line"/>
    </contour>
    <contour>
      <point x="73" y="0" type="line"/>
      <point x="123" y="0" type="line"/>
      <point x="123" y="24" type="line"/>
      <point x="50" y="24" type="line"/>
      <point x="50" y="23" type="line"/>
    </contour>
    <contour>
      <point x="50" y="24" type="line"/>
      <point x="74" y="24" type="line"/>
      <point x="74" y="506" type="line"/>
      <point x="73" y="506" type="line"/>
      <point x="50" y="483" type="line"/>
    </contour>
    <contour>
      <point x="134" y="590" type="line"/>
      <point x="158" y="590" type="line"/>
      <point x="158" y="591" type="line"/>
      <point x="114" y="680" type="line"/>
      <point x="90" y="680" type="line"/>
    </contour>
    <contour>
      <point x="44" y="590" type="line"/>
      <point x="68" y="590" type="line"/>
      <point x="113" y="680" type="line"/>
      <point x="90" y="680" type="line"/>
      <point x="44" y="591" type="line"/>
    </contour>
  </outline>
</glyph>
<glyph name="udieresis" format="2">
  <advance width="197"/>
  <unicode hex="00FC"/>
  <anchor x="102" y="0" name="bottom"/>
  <anchor x="123" y="500" name="horn"/>
  <anchor x="95" y="590" name="top"/>
  <outline>
    <contour>
      <point x="123" y="0" type="line"/>
      <point x="124" y="0" type="line"/>
      <point x="147" y="0" type="line"/>
      <point x="147" y="500" type="line"/>
      <point x="123" y="500" type="line"/>
    </contour>
    <contour>
      <point x="73" y="0" type="line"/>
      <point x="123" y="0" type="line"/>
      <point x="123" y="24" type="line"/>
      <point x="50" y="24" type="line"/>
      <point x="50" y="23" type="line"/>
    </contour>
    <contour>
      <point x="50" y="24" type="line"/>
      <point x="74" y="24" type="line"/>
      <point x="74" y="506" type="line"/>
      <point x="73" y="506" type="line"/>
      <point x="50" y="483" type="line"/>
    </contour>
    <contour>
      <point x="112" y="601" type="line"/>
      <point x="143" y="601" type="line"/>
      <point x="143" y="635" type="line"/>
      <point x="112" y="635" type="line"/>
    </contour>
    <contour>
      <point x="57" y="601" type="line"/>
      <point x="88" y="601" type="line"/>
      <point x="88" y="635" type="line"/>
      <point x="57" y="635" type="line"/>
    </contour>
  </outline>
</glyph>
<glyph name="ydieresis.color5" format="2">
  <advance width="600"/>
  <unicode hex="00FF"/>
  <outline>
    <contour>
      <point x="57" y="601" type="line"/>
      <point x="88" y="601" type="line"/>
      <point x="88" y="635" type="line"/>
      <point x="57" y="635" type="line"/>
    </contour>
  </outline>
</glyph>
<glyph name="amacron" format="2">
  <advance width="197"/>
  <unicode hex="0101"/>
  <anchor x="102" y="0" name="bottom"/>
  <anchor x="102" y="500" name="top"/>
  <outline>
    <contour>
      <point x="74" y="476" type="line"/>
      <point x="147" y="476" type="line"/>
      <point x="147" y="477" type="line"/>
      <point x="124" y="500" type="line"/>
      <point x="74" y="500" type="line"/>
    </contour>
    <contour>
      <point x="73" y="0" type="line"/>
      <point x="123" y="0" type="line"/>
      <point x="123" y="24" type="line"/>
      <point x="50" y="24" type="line"/>
      <point x="50" y="23" type="line"/>
    </contour>
    <contour>
      <point x="50" y="24" type="line"/>
      <point x="74" y="24" type="line"/>
      <point x="74" y="500" type="line"/>
      <point x="73" y="500" type="line"/>
      <point x="50" y="477" type="line"/>
    </contour>
    <contour>
      <point x="123" y="0" type="line"/>
      <point x="147" y="0" type="line"/>
      <point x="147" y="476" type="line"/>
      <point x="123" y="476" type="line"/>
    </contour>
    <contour>
      <point x="47" y="611" type="line"/>
      <point x="157" y="611" type="line"/>
      <point x="157" y="635" type="line"/>
      <point x="47" y="635" type="line"/>
    </contour>
  </outline>
</glyph>
<glyph name="Aogonek.color2" format="2">
  <advance width="600"/>
  <unicode hex="0104"/>
  <outline>
    <contour>
      <point x="196" y="0" type="line"/>
      <point x="220" y="0" type="line"/>
      <point x="220" y="676" type="line"/>
      <point x="196" y="676" type="line"/>
    </contour>
  </outline>
</glyph>
<glyph name="ccircumflex.color4" format="2">
  <advance width="600"/>
  <unicode hex="0109"/>
  <outline>
    <contour>
      <point x="44" y="590" type="line"/>
      <point x="68" y="590" type="line"/>
      <point x="113" y="680" type="line"/>
      <point x="90" y="680" type="line"/>
      <point x="44" y="591" type="line"/>
    </contour>
  </outline>
</glyph>
<glyph name="Cdotaccent.color3" format="2">
  <advance width="600"/>
  <unicode hex="010A"/>
  <outline>
    <contour>
      <point x="123" y="811" type="line"/>
      <point x="153" y="811" type="line"/>
      <point x="153" y="845" type="line"/>
      <point x="123" y="845" type="line"/>
    </contour>
  </outline>
</glyph>
<glyph name="ccaron.color0" format="2">
  <advance width="600"/>
  <unicode hex="010D"/>
  <outline>
    <contour>
      <point x="73" y="0" type="line"/>
      <point x="113" y="0" type="line"/>
      <point x="136" y="23" type="line"/>
      <point x="136" y="24" type="line"/>
      <point x="50" y="24" type="line"/>
      <point x="50" y="23" type="line"/>
    </contour>
  </outline>
</glyph>
<glyph name="dcaron.color0" format="2">
  <advance width="600"/>
  <unicode hex="010F"/>
  <outline>
    <contour>
      <point x="146" y="477" type="line"/>
      <point x="147" y="477" type="line"/>
      <point x="147" y="730" type="line"/>
      <point x="123" y="730" type="line"/>
      <point x="123" y="500" type="line"/>
    </contour>
  </outline>
</glyph>
<glyph name="dcroat" format="2">
  <advance width="197"/>
  <unicode hex="0111"/>
  <outline>
    <contour>
      <point x="23" y="576" type="line"/>
      <point x="174" y="576" type="line"/>
      <point x="174" y="600" type="line"/>
      <point x="23" y="600" type="line"/>
    </contour>
    <component base="d"/>
  </outline>
</glyph>
<glyph name="Emacron.color4" format="2">
  <advance width="600"/>
  <unicode hex="0112"/>
  <outline>
    <contour>
      <point x="63" y="801" type="line"/>
      <point x="213" y="801" type="line"/>
      <point x="213" y="825" type="line"/>
      <point x="63" y="825" type="line"/>
    </contour>
  </outline>
</glyph>
<glyph name="emacron.color5" format="2">
  <advance width="600"/>
  <unicode hex="0113"/>
  <outline>
    <contour>
      <point x="45" y="611" type="line"/>
      <point x="155" y="611" type="line"/>
      <point x="155" y="635" type="line"/>
      <point x="45" y="635" type="line"/>
    </contour>
  </outline>
</glyph>
<glyph name="Edotaccent.color3" format="2">
  <advance width="600"/>
  <unicode hex="0116"/>
  <outline>
    <contour>
      <point x="77" y="676" type="line"/>
      <point x="197" y="676" type="line"/>
      <point x="220" y="699" type="line"/>
      <point x="220" y="700" type="line"/>
      <point x="77" y="700" type="line"/>
    </contour>
  </outline>
</glyph>
<glyph name="Edotaccent.color4" format="2">
  <advance width="600"/>
  <unicode hex="0116"/>
  <outline>
    <contour>
      <point x="123" y="811" type="line"/>
      <point x="153" y="811" type="line"/>
      <point x="153" y="845" type="line"/>
      <point x="123" y="845" type="line"/>
    </contour>
  </outline>
</glyph>
<glyph name="Edotaccent" format="2">
  <advance width="240"/>
  <unicode hex="0116"/>
  <anchor x="135" y="0" name="bottom"/>
  <anchor x="138" y="800" name="top"/>
  <outline>
    <contour>
      <point x="77" y="0" type="line"/>
      <point x="220" y="0" type="line"/>
      <point x="220" y="24" type="line"/>
      <point x="53" y="24" type="line"/>
      <point x="53" y="23" type="line"/>
    </contour>
    <contour>
      <point x="53" y="24" type="line"/>
      <point x="77" y="24" type="line"/>
      <point x="77" y="700" type="line"/>
      <point x="53" y="700" type="line"/>
    </contour>
    <contour>
      <point x="77" y="353" type="line"/>
      <point x="196" y="353" type="line"/>
      <point x="196" y="377" type="line"/>
      <point x="77" y="377" type="line"/>
    </contour>
    <contour>
      <point x="77" y="676" type="line"/>
      <point x="197" y="676" type="line"/>
      <point x="220" y="699" type="line"/>
      <point x="220" y="700" type="line"/>
      <point x="77" y="700" type="line"/>
    </contour>
    <contour>
      <point x="123" y="811" type="line"/>
      <point x="153" y="811" type="line"/>
      <point x="153" y="845" type="line"/>
      <point x="123" y="845" type="line"/>
    </contour>
  </outline>
</glyph>
<glyph name="edotaccent.color5" format="2">
  <advance width="600"/>
  <unicode hex="0117"/>
  <outline>
    <contour>
      <point x="85" y="601" type="line"/>
      <point x="115" y="601" type="line"/>
      <point x="115" y="635" type="line"/>
      <point x="85" y="635" type="line"/>
    </contour>
  </outline>
</glyph>
<glyph name="Eogonek.color4" format="2">
  <advance width="600"/>
  <unicode hex="0118"/>
  <outline>
    <contour>
      <point x="102" y="-34" type="line"/>
      <point x="123" y="-34" type="line"/>
      <point x="147" y="-1" type="line"/>
      <point x="147" y="0" type="line"/>
      <point x="123" y="0" type="line"/>
      <point x="102" y="-33" type="line"/>
    </contour>
  </outline>
</glyph>
<glyph name="eogonek.color0" format="2">
  <advance width="600"/>
  <unicode hex="0119"/>
  <outline>
    <contour>
      <point x="73" y="0" type="line"/>
      <point x="124" y="0" type="line"/>
      <point x="147" y="23" type="line"/>
      <point x="147" y="24" type="line"/>
      <point x="50" y="24" type="line"/>
      <point x="50" y="23" type="line"/>
    </contour>
  </outline>
</glyph>
<glyph name="ecaron.color6" format="2">
  <advance width="600"/>
  <unicode hex="011B"/>
  <outline>
    <contour>
      <point x="89" y="590" type="line"/>
      <point x="112" y="590" type="line"/>
      <point x="158" y="679" type="line"/>
      <point x="158" y="680" type="line"/>
      <point x="134" y="680" type="line"/>
    </contour>
  </outline>
</glyph>
<glyph name="Gcircumflex.color5" format="2">
  <advance width="600"/>
  <unicode hex="011C"/>
  <outline>
    <contour>
      <point x="168" y="760" type="line"/>
      <point x="192" y="760" type="line"/>
      <point x="192" y="761" type="line"/>
      <point x="148" y="850" type="line"/>
      <point x="124" y="850" type="line"/>
    </contour>
  </outline>
</glyph>
<glyph name="gbreve.color4" format="2">
  <advance width="600"/>
  <unicode hex="011F"/>
  <outline>
    <contour>
      <point x="123" y="-200" type="line"/>
      <point x="124" y="-200" type="line"/>
      <point x="146" y="-177" type="line"/>
      <point x="147" y="476" type="line"/>
      <point x="123" y="476" type="line"/>
    </contour>
  </outline>
</glyph>
<glyph name="gbreve.color5" format="2">
  <advance width="600"/>
  <unicode hex="011F"/>
  <outline>
    <contour>
      <point x="122" y="622" type="line"/>
      <point x="148" y="622" type="line"/>
      <point x="177" y="671" type="line"/>
      <point x="177" y="672" type="line"/>
      <point x="151" y="672" type="line"/>
    </contour>
  </outline>
</glyph>
<glyph name="gbreve.color6" format="2">
  <advance width="600"/>
  <unicode hex="011F"/>
  <outline>
    <contour>
      <point x="70" y="622" type="line"/>
      <point x="96" y="622" type="line"/>
      <point x="67" y="672" type="line"/>
      <point x="41" y="672" type="line"/>
      <point x="41" y="671" type="line"/>
    </contour>
  </outline>
</glyph>
<glyph name="Gdotaccent.color5" format="2">
  <advance width="600"/>
  <unicode hex="0120"/>
  <outline>
    <contour>
      <point x="123" y="811" type="line"/>
      <point x="153" y="811" type="line"/>
      <point x="153" y="845" type="line"/>
      <point x="123" y="845" type="line"/>
    </contour>
  </outline>
</glyph>
<glyph name="gdotaccent" format="2">
  <advance width="197"/>
  <unicode hex="0121"/>
  <anchor x="110" y="590" name="top"/>
  <outline>
    <contour>
      <point x="74" y="476" type="line"/>
      <point x="164" y="476" type="line"/>
      <point x="187" y="499" type="line"/>
      <point x="187" y="500" type="line"/>
      <point x="74" y="500" type="line"/>
    </contour>
    <contour>
      <point x="50" y="-200" type="line"/>
      <point x="123" y="-200" type="line"/>
      <point x="123" y="-176" type="line"/>
      <point x="50" y="-176" type="line"/>
      <point x="50" y="-177" type="line"/>
    </contour>
    <contour>
      <point x="73" y="0" type="line"/>
      <point x="123" y="0" type="line"/>
      <point x="123" y="24" type="line"/>
      <point x="50" y="24" type="line"/>
      <point x="50" y="23" type="line"/>
    </contour>
    <contour>
      <point x="50" y="24" type="line"/>
      <point x="74" y="24" type="line"/>
      <point x="74" y="500" type="line"/>
      <point x="73" y="500" type="line"/>
      <point x="50" y="477" type="line"/>
    </contour>
    <contour>
      <point x="123" y="-200" type="line"/>
      <point x="124" y="-200" type="line"/>
      <point x="146" y="-177" type="line"/>
      <point x="147" y="476" type="line"/>
      <point x="123" y="476" type="line"/>
    </contour>
    <contour>
      <point x="95" y="601" type="line"/>
      <point x="125" y="601" type="line"/>
      <point x="125" y="635" type="line"/>
      <point x="95" y="635" type="line"/>
    </contour>
  </outline>
</glyph>
<glyph name="Gcommaaccent" format="2">
  <advance width="263"/>
  <unicode hex="0122"/>
  <anchor x="146" y="0" name="bottom"/>
  <anchor x="138" y="700" name="top"/>
  <outline>
    <contour>
      <point x="77" y="676" type="line"/>
      <point x="220" y="676" type="line"/>
      <point x="220" y="677" type="line"/>
      <point x="197" y="700" type="line"/>
      <point x="77" y="700" type="line"/>
    </contour>
    <contour>
      <point x="76" y="0" type="line"/>
      <point x="196" y="0" type="line"/>
      <point x="196" y="24" type="line"/>
      <point x="53" y="24" type="line"/>
      <point x="53" y="23" type="line"/>
    </contour>
    <contour>
      <point x="53" y="24" type="line"/>
      <point x="77" y="24" type="line"/>
      <point x="77" y="700" type="line"/>
      <point x="76" y="700" type="line"/>
      <point x="53" y="677" type="line"/>
    </contour>
    <contour>
      <point x="123" y="353" type="line"/>
      <point x="196" y="353" type="line"/>
      <point x="196" y="377" type="line"/>
      <point x="123" y="377" type="line"/>
    </contour>
    <contour>
      <point x="196" y="0" type="line"/>
      <point x="197" y="0" type="line"/>
      <point x="220" y="24" type="line"/>
      <point x="220" y="353" type="line"/>
      <point x="197" y="377" type="line"/>
      <point x="196" y="377" type="line"/>
    </contour>
    <contour>
      <point x="156" y="-141" type="line"/>
      <point x="157" y="-141" type="line"/>
      <point x="157" y="-50" type="line"/>
      <point x="133" y="-50" type="line"/>
      <point x="133" y="-118" type="line"/>
    </contour>
  </outline>
</glyph>
<glyph name="Hbar" format="2">
  <advance width="293"/>
  <unicode hex="0126"/>
  <outline>
    <contour>
      <point x="10" y="483" type="line"/>
      <point x="283" y="483" type="line"/>
      <point x="283" y="507" type="line"/>
      <point x="10" y="507" type="line"/>
    </contour>
    <component base="H"/>
  </outline>
</glyph>
<glyph name="hbar" format="2">
  <advance width="200"/>
  <unicode hex="0127"/>
  <anchor x="91" y="573" name="_stroke"/>
  <outline>
    <contour>
      <point x="11" y="561" type="line"/>
      <point x="172" y="561" type="line"/>
      <point x="172" y="585" type="line"/>
      <point x="11" y="585" type="line"/>
    </contour>
    <component base="h"/>
  </outline>
</glyph>
<glyph name="itilde.color0" format="2">
  <advance width="600"/>
  <unicode hex="0129"/>
  <outline>
    <contour>
      <point x="23" y="581" type="line"/>
      <point x="43" y="581" type="line"/>
      <point x="43" y="630" type="line"/>
      <point x="23" y="629" type="line"/>
    </contour>
  </outline>
</glyph>
<glyph name="itilde.color2" format="2">
  <advance width="600"/>
  <unicode hex="0129"/>
  <outline>
    <contour>
      <point x="84" y="593" type="line"/>
      <point x="104" y="593" type="line"/>
      <point x="104" y="642" type="line"/>
      <point x="84" y="642" type="line"/>
    </contour>
  </outline>
</glyph>
<glyph name="itilde.color3" format="2">
  <advance width="600"/>
  <unicode hex="0129"/>
  <outline>
    <contour>
      <point x="82" y="583" type="line"/>
      <point x="83" y="583" type="line"/>
      <point x="103" y="592" type="line"/>
      <point x="103" y="593" type="line"/>
      <point x="44" y="639" type="line"/>
      <point x="43" y="639" type="line"/>
      <point x="23" y="630" type="line"/>
      <point x="23" y="629" type="line"/>
    </contour>
  </outline>
</glyph>
<glyph name="Imacron.color2" format="2">
  <advance width="600"/>
  <unicode hex="012A"/>
  <outline>
    <contour>
      <point x="102" y="0" type="line"/>
      <point x="206" y="0" type="line"/>
      <point x="206" y="24" type="line"/>
      <point x="125" y="24" type="line"/>
    </contour>
  </outline>
</glyph>
<glyph name="Imacron" format="2">
  <advance width="226"/>
  <unicode hex="012A"/>
  <anchor x="112" y="0" name="bottom"/>
  <anchor x="115" y="700" name="top"/>
  <outline>
    <contour>
      <point x="101" y="0" type="line"/>
      <point x="102" y="0" type="line"/>
      <point x="125" y="24" type="line"/>
      <point x="125" y="700" type="line"/>
      <point x="124" y="700" type="line"/>
      <point x="101" y="676" type="line"/>
    </contour>
    <contour>
      <point x="21" y="0" type="line"/>
      <point x="101" y="0" type="line"/>
      <point x="101" y="24" type="line"/>
      <point x="21" y="24" type="line"/>
    </contour>
    <contour>
      <point x="102" y="0" type="line"/>
      <point x="206" y="0" type="line"/>
      <point x="206" y="24" type="line"/>
      <point x="125" y="24" type="line"/>
    </contour>
    <contour>
      <point x="20" y="676" type="line"/>
      <point x="101" y="676" type="line"/>
      <point x="124" y="700" type="line"/>
      <point x="20" y="700" type="line"/>
    </contour>
    <contour>
      <point x="125" y="676" type="line"/>
      <point x="205" y="676" type="line"/>
      <point x="205" y="700" type="line"/>
      <point x="125" y="700" type="line"/>
    </contour>
    <contour>
      <point x="40" y="801" type="line"/>
      <point x="190" y="801" type="line"/>
      <point x="190" y="825" type="line"/>
      <point x="40" y="825" type="line"/>
    </contour>
  </outline>
</glyph>
<glyph name="imacron" format="2">
  <advance width="130"/>
  <unicode hex="012B"/>
  <outline>
    <contour>
      <point x="8" y="611" type="line"/>
      <point x="118" y="611" type="line"/>
      <point x="118" y="635" type="line"/>
      <point x="8" y="635" type="line"/>
    </contour>
    <component base="idotless"/>
  </outline>
</glyph>
<glyph name="Ibreve.color0" format="2">
  <advance width="600"/>
  <unicode hex="012C"/>
  <outline>
    <contour>
      <point x="101" y="0" type="line"/>
      <point x="102" y="0" type="line"/>
      <point x="125" y="24" type="line"/>
      <point x="125" y="700" type="line"/>
      <point x="124" y="700" type="line"/>
      <point x="101" y="676" type="line"/>
    </contour>
  </outline>
</glyph>
<glyph name="Ibreve" format="2">
  <advance width="226"/>
  <unicode hex="012C"/>
  <anchor x="112" y="0" name="bottom"/>
  <anchor x="115" y="700" name="top"/>
  <outline>
    <contour>
      <point x="101" y="0" type="line"/>
      <point x="102" y="0" type="line"/>
      <point x="125" y="24" type="line"/>
      <point x="125" y="700" type="line"/>
      <point x="124" y="700" type="line"/>
      <point x="101" y="676" type="line"/>
    </contour>
    <contour>
      <point x="21" y="0" type="line"/>
      <point x="101" y="0" type="line"/>
      <point x="101" y="24" type="line"/>
      <point x="21" y="24" type="line"/>
    </contour>
    <contour>
      <point x="102" y="0" type="line"/>
      <point x="206" y="0" type="line"/>
      <point x="206" y="24" type="line"/>
      <point x="125" y="24" type="line"/>
    </contour>
    <contour>
      <point x="20" y="676" type="line"/>
      <point x="101" y="676" type="line"/>
      <point x="124" y="700" type="line"/>
      <point x="20" y="700" type="line"/>
    </contour>
    <contour>
      <point x="125" y="676" type="line"/>
      <point x="205" y="676" type="line"/>
      <point x="205" y="700" type="line"/>
      <point x="125" y="700" type="line"/>
    </contour>
    <contour>
      <point x="87" y="781" type="line"/>
      <point x="143" y="781" type="line"/>
      <point x="162" y="803" type="line"/>
      <point x="68" y="803" type="line"/>
    </contour>
    <contour>
      <point x="68" y="803" type="line"/>
      <point x="100" y="803" type="line"/>
      <point x="69" y="840" type="line"/>
      <point x="37" y="840" type="line"/>
      <point x="37" y="839" type="line"/>
    </contour>
    <contour>
      <point x="130" y="803" type="line"/>
      <point x="162" y="803" type="line"/>
      <point x="193" y="839" type="line"/>
      <point x="193" y="840" type="line"/>
      <point x="161" y="840" type="line"/>
    </contour>
  </outline>
</glyph>
<glyph name="ibreve.color1" format="2">
  <advance width="600"/>
  <unicode hex="012D"/>
  <outline>
    <contour>
      <point x="32" y="612" type="line"/>
      <point x="55" y="612" type="line"/>
      <point x="36" y="662" type="line"/>
      <point x="10" y="662" type="line"/>
      <point x="10" y="661" type="line"/>
    </contour>
  </outline>
</glyph>
<glyph name="ibreve" format="2">
  <advance width="136"/>
  <unicode hex="012D"/>
  <outline>
    <contour>
      <point x="42" y="590" type="line"/>
      <point x="94" y="590" type="line"/>
      <point x="104" y="612" type="line"/>
      <point x="32" y="612" type="line"/>
    </contour>
    <contour>
      <point x="32" y="612" type="line"/>
      <point x="55" y="612" type="line"/>
      <point x="36" y="662" type="line"/>
      <point x="10" y="662" type="line"/>
      <point x="10" y="661" type="line"/>
    </contour>
    <contour>
      <point x="81" y="612" type="line"/>
      <point x="104" y="612" type="line"/>
      <point x="126" y="661" type="line"/>
      <point x="126" y="662" type="line"/>
      <point x="100" y="662" type="line"/>
    </contour>
    <component base="idotless" xOffset="6"/>
  </outline>
</glyph>
<glyph name="iogonek.color4" format="2">
  <advance width="600"/>
  <unicode hex="012F"/>
  <outline>
    <contour>
      <point x="53" y="-80" type="line"/>
      <point x="78" y="-80" type="line"/>
      <point x="96" y="-62" type="line"/>
      <point x="96" y="-61" type="line"/>
      <point x="53" y="-61" type="line"/>
    </contour>
  </outline>
</glyph>
<glyph name="Jcircumflex" format="2">
  <advance width="254"/>
  <unicode hex="0134"/>
  <anchor x="148" y="700" name="top"/>
  <outline>
    <contour>
      <point x="140" y="24" type="line"/>
      <point x="164" y="24" type="line"/>
      <point x="164" y="700" type="line"/>
      <point x="163" y="700" type="line"/>
      <point x="140" y="676" type="line"/>
    </contour>
    <contour>
      <point x="20" y="0" type="line"/>
      <point x="140" y="0" type="line"/>
      <point x="164" y="23" type="line"/>
      <point x="164" y="24" type="line"/>
      <point x="20" y="24" type="line"/>
    </contour>
    <contour>
      <point x="39" y="676" type="line"/>
      <point x="140" y="676" type="line"/>
      <point x="163" y="700" type="line"/>
      <point x="39" y="700" type="line"/>
    </contour>
    <contour>
      <point x="164" y="676" type="line"/>
      <point x="234" y="676" type="line"/>
      <point x="234" y="700" type="line"/>
      <point x="164" y="700" type="line"/>
    </contour>
    <contour>
      <point x="178" y="760" type="line"/>
      <point x="202" y="760" type="line"/>
      <point x="202" y="761" type="line"/>
      <point x="158" y="850" type="line"/>
      <point x="134" y="850" type="line"/>
    </contour>
    <contour>
      <point x="88" y="760" type="line"/>
      <point x="112" y="760" type="line"/>
      <point x="157" y="850" type="line"/>
      <point x="134" y="850" type="line"/>
      <point x="88" y="761" type="line"/>
    </contour>
  </outline>
</glyph>
<glyph name="jcircumflex.color2" format="2">
  <advance width="600"/>
  <unicode hex="0135"/>
  <outline>
    <contour>
      <point x="94" y="590" type="line"/>
      <point x="118" y="590" type="line"/>
      <point x="118" y="591" type="line"/>
      <point x="74" y="680" type="line"/>
      <point x="50" y="680" type="line"/>
    </contour>
  </outline>
</glyph>
<glyph name="jcircumflex" format="2">
  <advance width="127"/>
  <unicode hex="0135"/>
  <anchor x="67" y="602" name="top"/>
  <outline>
    <contour>
      <point x="50" y="-200" type="line"/>
      <point x="51" y="-200" type="line"/>
      <point x="74" y="-177" type="line"/>
      <point x="74" y="503" type="line"/>
      <point x="73" y="503" type="line"/>
      <point x="50" y="480" type="line"/>
    </contour>
    <contour>
      <point x="-12" y="-200" type="line"/>
      <point x="50" y="-200" type="line"/>
      <point x="50" y="-176" type="line"/>
      <point x="-12" y="-176" type="line"/>
    </contour>
    <contour>
      <point x="94" y="590" type="line"/>
      <point x="118" y="590" type="line"/>
      <point x="118" y="591" type="line"/>
      <point x="74" y="680" type="line"/>
      <point x="50" y="680" type="line"/>
    </contour>
    <contour>
      <point x="4" y="590" type="line"/>
      <point x="28" y="590" type="line"/>
      <point x="73" y="680" type="line"/>
      <point x="50" y="680" type="line"/>
      <point x="4" y="591" type="line"/>
    </contour>
  </outline>
</glyph>
<glyph name="Kcommaaccent.color0" format="2">
  <advance width="600"/>
  <unicode hex="0136"/>
  <outline>
    <contour>
      <point x="247" y="0" type="line"/>
      <point x="273" y="0" type="line"/>
      <point x="273" y="1" type="line"/>
      <point x="183" y="373" type="line"/>
      <point x="163" y="353" type="line"/>
    </contour>
  </outline>
</glyph>
<glyph name="Kcommaaccent.color3" format="2">
  <advance width="600"/>
  <unicode hex="0136"/>
  <outline>
    <contour>
      <point x="196" y="353" type="line"/>
      <point x="197" y="353" type="line"/>
      <point x="220" y="376" type="line"/>
      <point x="220" y="700" type="line"/>
      <point x="196" y="700" type="line"/>
    </contour>
  </outline>
</glyph>
<glyph name="kcommaaccent.color1" format="2">
  <advance width="600"/>
  <unicode hex="0137"/>
  <outline>
    <contour>
      <point x="147" y="0" type="line"/>
      <point x="171" y="0" type="line"/>
      <point x="171" y="353" type="line"/>
      <point x="147" y="353" type="line"/>
    </contour>
  </outline>
</glyph>
<glyph name="lacute.color1" format="2">
  <advance width="600"/>
  <unicode hex="013A"/>
  <outline>
    <contour>
      <point x="74" y="0" type="line"/>
      <point x="136" y="0" type="line"/>
      <point x="136" y="24" type="line"/>
      <point x="74" y="24" type="line"/>
    </contour>
  </outline>
</glyph>
<glyph name="Ldot" format="2">
  <advance width="256"/>
  <unicode hex="013F"/>
  <anchor x="152" y="0" name="bottom"/>
  <anchor x="73" y="700" name="top"/>
  <outline>
    <contour>
      <point x="76" y="0" type="line"/>
      <point x="256" y="0" type="line"/>
      <point x="256" y="24" type="line"/>
      <point x="53" y="24" type="line"/>
      <point x="53" y="23" type="line"/>
    </contour>
    <contour>
      <point x="53" y="24" type="line"/>
      <point x="77" y="24" type="line"/>
      <point x="77" y="700" type="line"/>
      <point x="53" y="700" type="line"/>
    </contour>
    <contour>
      <point x="137" y="329" type="line"/>
      <point x="168" y="329" type="line"/>
      <point x="168" y="353" type="line"/>
      <point x="137" y="353" type="line"/>
    </contour>
  </outline>
</glyph>
<glyph name="Nacute.color1" format="2">
  <advance width="600"/>
  <unicode hex="0143"/>
  <outline>
    <contour>
      <point x="53" y="0" type="line"/>
      <point x="77" y="0" type="line"/>
      <point x="77" y="655" type="line"/>
      <point x="53" y="679" type="line"/>
    </contour>
  </outline>
</glyph>
<glyph name="Ncaron.color4" format="2">
  <advance width="600"/>
  <unicode hex="0147"/>
  <outline>
    <contour>
      <point x="156" y="750" type="line"/>
      <point x="179" y="750" type="line"/>
      <point x="225" y="839" type="line"/>
      <point x="225" y="840" type="line"/>
      <point x="201" y="840" type="line"/>
    </contour>
  </outline>
</glyph>
<glyph name="Eng.color1" format="2">
  <advance width="600"/>
  <unicode hex="014A"/>
  <outline>
    <contour>
      <point x="236" y="-3" type="line"/>
      <point x="237" y="-3" type="line"/>
      <point x="260" y="21" type="line"/>
      <point x="260" y="22" type="line"/>
      <point x="77" y="703" type="line"/>
      <point x="76" y="703" type="line"/>
      <point x="53" y="680" type="line"/>
      <point x="53" y="679" type="line"/>
    </contour>
  </outline>
</glyph>
<glyph name="Ohungarumlaut.color2" format="2">
  <advance width="600"/>
  <unicode hex="0150"/>
  <outline>
    <contour>
      <point x="53" y="24" type="line"/>
      <point x="77" y="24" type="line"/>
      <point x="77" y="700" type="line"/>
      <point x="76" y="700" type="line"/>
      <point x="53" y="677" type="line"/>
    </contour>
  </outline>
</glyph>
<glyph name="oe.color4" format="2">
  <advance width="600"/>
  <unicode hex="0153"/>
  <outline>
    <contour>
      <point x="147" y="202" type="line"/>
      <point x="196" y="202" type="line"/>
      <point x="196" y="226" type="line"/>
      <point x="147" y="226" type="line"/>
    </contour>
  </outline>
</glyph>
<glyph name="Rcommaaccent.color1" format="2">
  <advance width="600"/>
  <unicode hex="0156"/>
  <outline>
    <contour>
      <point x="227" y="0" type="line"/>
      <point x="253" y="0" type="line"/>
      <point x="253" y="1" type="line"/>
      <point x="163" y="373" type="line"/>
      <point x="143" y="353" type="line"/>
    </contour>
  </outline>
</glyph>
<glyph name="rcommaaccent.color2" format="2">
  <advance width="600"/>
  <unicode hex="0157"/>
  <outline>
    <contour>
      <point x="72" y="-141" type="line"/>
      <point x="73" y="-141" type="line"/>
      <point x="73" y="-50" type="line"/>
      <point x="49" y="-50" type="line"/>
      <point x="49" y="-118" type="line"/>
    </contour>
  </outline>
</glyph>
<glyph name="rcommaaccent" format="2">
  <advance width="157"/>
  <unicode hex="0157"/>
  <anchor x="62" y="0" name="bottom"/>
  <anchor x="100" y="500" name="top"/>
  <outline>
    <contour>
      <point x="50" y="0" type="line"/>
      <point x="74" y="0" type="line"/>
      <point x="74" y="500" type="line"/>
      <point x="73" y="500" type="line"/>
      <point x="50" y="477" type="line"/>
    </contour>
    <contour>
      <point x="74" y="476" type="line"/>
      <point x="147" y="476" type="line"/>
      <point x="147" y="477" type="line"/>
      <point x="124" y="500" type="line"/>
      <point x="74" y="500" type="line"/>
    </contour>
    <contour>
      <point x="72" y="-141" type="line"/>
      <point x="73" y="-141" type="line"/>
      <point x="73" y="-50" type="line"/>
      <point x="49" y="-50" type="line"/>
      <point x="49" y="-118" type="line"/>
    </contour>
  </outline>
</glyph>
<glyph name="sacute" format="2">
  <advance width="166"/>
  <unicode hex="015B"/>
  <anchor x="87" y="0" name="bottom"/>
  <anchor x="95" y="500" name="top"/>
  <outline>
    <contour>
      <point x="61" y="476" type="line"/>
      <point x="131" y="476" type="line"/>
      <point x="131" y="477" type="line"/>
      <point x="108" y="500" type="line"/>
      <point x="58" y="500" type="line"/>
    </contour>
    <contour>
      <point x="108" y="24" type="line"/>
      <point x="131" y="24" type="line"/>
      <point x="131" y="25" type="line"/>
      <point x="58" y="500" type="line"/>
      <point x="35" y="467" type="line"/>
    </contour>
    <contour>
      <point x="58" y="0" type="line"/>
      <point x="108" y="0" type="line"/>
      <point x="131" y="24" type="line"/>
      <point x="35" y="24" type="line"/>
      <point x="35" y="23" type="line"/>
    </contour>
    <contour>
      <point x="79" y="570" type="line"/>
      <point x="103" y="570" type="line"/>
      <point x="135" y="699" type="line"/>
      <point x="135" y="700" type="line"/>
      <point x="104" y="700" type="line"/>
    </contour>
  </outline>
</glyph>
<glyph name="scircumflex.color3" format="2">
  <advance width="600"/>
  <unicode hex="015D"/>
  <outline>
    <contour>
      <point x="129" y="590" type="line"/>
      <point x="153" y="590" type="line"/>
      <point x="153" y="591" type="line"/>
      <point x="109" y="680" type="line"/>
      <point x="85" y="680" type="line"/>
    </contour>
  </outline>
</glyph>
<glyph name="Scedilla.color5" format="2">
  <advance width="600"/>
  <unicode hex="015E"/>
  <outline>
    <contour>
      <point x="118" y="-44" type="line"/>
      <point x="153" y="-44" type="line"/>
      <point x="153" y="-43" type="line"/>
      <point x="135" y="-25" type="line"/>
      <point x="118" y="-25" type="line"/>
    </contour>
  </outline>
</glyph>
<glyph name="Scedilla.color6" format="2">
  <advance width="600"/>
  <unicode hex="015E"/>
  <outline>
    <contour>
      <point x="97" y="-44" type="line"/>
      <point x="118" y="-44" type="line"/>
      <point x="133" y="-1" type="line"/>
      <point x="133" y="0" type="line"/>
      <point x="109" y="0" type="line"/>
      <point x="97" y="-43" type="line"/>
    </contour>
  </outline>
</glyph>
<glyph name="Scedilla" format="2">
  <advance width="233"/>
  <unicode hex="015E"/>
  <anchor x="122" y="0" name="bottom"/>
  <anchor x="128" y="700" name="top"/>
  <outline>
    <contour>
      <point x="67" y="676" type="line"/>
      <point x="190" y="676" type="line"/>
      <point x="190" y="677" type="line"/>
      <point x="167" y="700" type="line"/>
      <point x="67" y="700" type="line"/>
    </contour>
    <contour>
      <point x="66" y="0" type="line"/>
      <point x="166" y="0" type="line"/>
      <point x="166" y="24" type="line"/>
      <point x="43" y="24" type="line"/>
      <point x="43" y="23" type="line"/>
    </contour>
    <contour>
      <point x="66" y="353" type="line"/>
      <point x="166" y="353" type="line"/>
      <point x="166" y="377" type="line"/>
      <point x="43" y="377" type="line"/>
      <point x="43" y="376" type="line"/>
    </contour>
    <contour>
      <point x="43" y="377" type="line"/>
      <point x="67" y="377" type="line"/>
      <point x="67" y="700" type="line"/>
      <point x="66" y="700" type="line"/>
      <point x="43" y="677" type="line"/>
    </contour>
    <contour>
      <point x="166" y="0" type="line"/>
      <point x="167" y="0" type="line"/>
      <point x="190" y="24" type="line"/>
      <point x="190" y="353" type="line"/>
      <point x="167" y="377" type="line"/>
      <point x="166" y="377" type="line"/>
    </contour>
    <contour>
      <point x="118" y="-44" type="line"/>
      <point x="153" y="-44" type="line"/>
      <point x="153" y="-43" type="line"/>
      <point x="135" y="-25" type="line"/>
      <point x="118" y="-25" type="line"/>
    </contour>
    <contour>
      <point x="97" y="-44" type="line"/>
      <point x="118" y="-44" type="line"/>
      <point x="133" y="-1" type="line"/>
      <point x="133" y="0" type="line"/>
      <point x="109" y="0" type="line"/>
      <point x="97" y="-43" type="line"/>
    </contour>
    <contour>
      <point x="100" y="-109" type="line"/>
      <point x="132" y="-109" type="line"/>
      <point x="132" y="-90" type="line"/>
      <point x="82" y="-90" type="line"/>
      <point x="82" y="-91" type="line"/>
    </contour>
    <contour>
      <point x="132" y="-109" type="line"/>
      <point x="133" y="-109" type="line"/>
      <point x="153" y="-91" type="line"/>
      <point x="153" y="-44" type="line"/>
      <point x="132" y="-44" type="line"/>
    </contour>
  </outline>
</glyph>
<glyph name="scedilla.color3" format="2">
  <advance width="600"/>
  <unicode hex="015F"/>
  <outline>
    <contour>
      <point x="83" y="-44" type="line"/>
      <point x="118" y="-44" type="line"/>
      <point x="118" y="-43" type="line"/>
      <point x="100" y="-25" type="line"/>
      <point x="83" y="-25" type="line"/>
    </contour>
  </outline>
</glyph>
<glyph name="scedilla.color6" format="2">
  <advance width="600"/>
  <unicode hex="015F"/>
  <outline>
    <contour>
      <point x="97" y="-109" type="line"/>
      <point x="98" y="-109" type="line"/>
      <point x="118" y="-91" type="line"/>
      <point x="118" y="-44" type="line"/>
      <point x="97" y="-44" type="line"/>
    </contour>
  </outline>
</glyph>
<glyph name="scaron.color3" format="2">
  <advance width="600"/>
  <unicode hex="0161"/>
  <outline>
    <contour>
      <point x="83" y="590" type="line"/>
      <point x="107" y="590" type="line"/>
      <point x="63" y="680" type="line"/>
      <point x="39" y="680" type="line"/>
      <point x="39" y="679" type="line"/>
    </contour>
  </outline>
</glyph>
<glyph name="Tcedilla.color0" format="2">
  <advance width="600"/>
  <unicode hex="0162"/>
  <outline>
    <contour>
      <point x="144" y="0" type="line"/>
      <point x="168" y="0" type="line"/>
      <point x="168" y="700" type="line"/>
      <point x="167" y="700" type="line"/>
      <point x="144" y="676" type="line"/>
    </contour>
  </outline>
</glyph>
<glyph name="tcedilla.color4" format="2">
  <advance width="600"/>
  <unicode hex="0163"/>
  <outline>
    <contour>
      <point x="96" y="-44" type="line"/>
      <point x="131" y="-44" type="line"/>
      <point x="131" y="-43" type="line"/>
      <point x="113" y="-25" type="line"/>
      <point x="96" y="-25" type="line"/>
    </contour>
  </outline>
</glyph>
<glyph name="tcedilla.color5" format="2">
  <advance width="600"/>
  <unicode hex="0163"/>
  <outline>
    <contour>
      <point x="75" y="-44" type="line"/>
      <point x="96" y="-44" type="line"/>
      <point x="111" y="-1" type="line"/>
      <point x="111" y="0" type="line"/>
      <point x="87" y="0" type="line"/>
      <point x="75" y="-43" type="line"/>
    </contour>
  </outline>
</glyph>
<glyph name="tcedilla.color7" format="2">
  <advance width="600"/>
  <unicode hex="0163"/>
  <outline>
    <contour>
      <point x="110" y="-109" type="line"/>
      <point x="111" y="-109" type="line"/>
      <point x="131" y="-91" type="line"/>
      <point x="131" y="-44" type="line"/>
      <point x="110" y="-44" type="line"/>
    </contour>
  </outline>
</glyph>
<glyph name="tbar.color1" format="2">
  <advance width="600"/>
  <unicode hex="0167"/>
  <outline>
    <contour>
      <point x="55" y="476" type="line"/>
      <point x="56" y="476" type="line"/>
      <point x="79" y="500" type="line"/>
      <point x="79" y="670" type="line"/>
      <point x="55" y="670" type="line"/>
    </contour>
  </outline>
</glyph>
<glyph name="tbar.color3" format="2">
  <advance width="600"/>
  <unicode hex="0167"/>
  <outline>
    <contour>
      <point x="78" y="0" type="line"/>
      <point x="79" y="0" type="line"/>
      <point x="79" y="476" type="line"/>
      <point x="55" y="476" type="line"/>
      <point x="55" y="23" type="line"/>
    </contour>
  </outline>
</glyph>
<glyph name="tbar.color4" format="2">
  <advance width="600"/>
  <unicode hex="0167"/>
  <outline>
    <contour>
      <point x="79" y="0" type="line"/>
      <point x="149" y="0" type="line"/>
      <point x="172" y="23" type="line"/>
      <point x="172" y="24" type="line"/>
      <point x="79" y="24" type="line"/>
    </contour>
  </outline>
</glyph>
<glyph name="tbar" format="2">
  <advance width="184"/>
  <unicode hex="0167"/>
  <outline>
    <contour>
      <point x="12" y="353" type="line"/>
      <point x="173" y="353" type="line"/>
      <point x="173" y="377" type="line"/>
      <point x="12" y="377" type="line"/>
    </contour>
    <component base="t" xOffset="5"/>
  </outline>
</glyph>
<glyph name="Umacron" format="2">
  <advance width="273"/>
  <unicode hex="016A"/>
  <anchor x="132" y="0" name="bottom"/>
  <anchor x="196" y="700" name="horn"/>
  <anchor x="143" y="701" name="top"/>
  <outline>
    <contour>
      <point x="196" y="0" type="line"/>
      <point x="197" y="0" type="line"/>
      <point x="220" y="23" type="line"/>
      <point x="220" y="700" type="line"/>
      <point x="196" y="700" type="line"/>
    </contour>
    <contour>
      <point x="76" y="0" type="line"/>
      <point x="196" y="0" type="line"/>
      <point x="196" y="24" type="line"/>
      <point x="53" y="24" type="line"/>
      <point x="53" y="23" type="line"/>
    </contour>
    <contour>
      <point x="53" y="24" type="line"/>
      <point x="77" y="24" type="line"/>
      <point x="77" y="700" type="line"/>
      <point x="53" y="700" type="line"/>
    </contour>
    <contour>
      <point x="68" y="802" type="line"/>
      <point x="218" y="802" type="line"/>
      <point x="218" y="826" type="line"/>
      <point x="68" y="826" type="line"/>
    </contour>
  </outline>
</glyph>
<glyph name="umacron" format="2">
  <advance width="197"/>
  <unicode hex="016B"/>
  <anchor x="102" y="0" name="bottom"/>
  <anchor x="123" y="500" name="horn"/>
  <anchor x="100" y="500" name="top"/>
  <outline>
    <contour>
      <point x="123" y="0" type="line"/>
      <point x="124" y="0" type="line"/>
      <point x="147" y="0" type="line"/>
      <point x="147" y="500" type="line"/>
      <point x="123" y="500" type="line"/>
    </contour>
    <contour>
      <point x="73" y="0" type="line"/>
      <point x="123" y="0" type="line"/>
      <point x="123" y="24" type="line"/>
      <point x="50" y="24" type="line"/>
      <point x="50" y="23" type="line"/>
    </contour>
    <contour>
      <point x="50" y="24" type="line"/>
      <point x="74" y="24" type="line"/>
      <point x="74" y="506" type="line"/>
      <point x="73" y="506" type="line"/>
      <point x="50" y="483" type="line"/>
    </contour>
    <contour>
      <point x="45" y="611" type="line"/>
      <point x="155" y="611" type="line"/>
      <point x="155" y="635" type="line"/>
      <point x="45" y="635" type="line"/>
    </contour>
  </outline>
</glyph>
<glyph name="ubreve.color4" format="2">
  <advance width="600"/>
  <unicode hex="016D"/>
  <outline>
    <contour>
      <point x="60" y="622" type="line"/>
      <point x="86" y="622" type="line"/>
      <point x="57" y="672" type="line"/>
      <point x="31" y="672" type="line"/>
      <point x="31" y="671" type="line"/>
    </contour>
  </outline>
</glyph>
<glyph name="Uring.color5" format="2">
  <advance width="600"/>
  <unicode hex="016E"/>
  <outline>
    <contour>
      <point x="100" y="776" type="line"/>
      <point x="121" y="776" type="line"/>
      <point x="121" y="858" type="line"/>
      <point x="120" y="858" type="line"/>
      <point x="100" y="840" type="line"/>
    </contour>
  </outline>
</glyph>
<glyph name="uring" format="2">
  <advance width="197"/>
  <unicode hex="016F"/>
  <anchor x="102" y="0" name="bottom"/>
  <anchor x="123" y="500" name="horn"/>
  <anchor x="100" y="645" name="top"/>
  <outline>
    <contour>
      <point x="123" y="0" type="line"/>
      <point x="124" y="0" type="line"/>
      <point x="147" y="0" type="line"/>
      <point x="147" y="500" type="line"/>
      <point x="123" y="500" type="line"/>
    </contour>
    <contour>
      <point x="73" y="0" type="line"/>
      <point x="123" y="0" type="line"/>
      <point x="123" y="24" type="line"/>
      <point x="50" y="24" type="line"/>
      <point x="50" y="23" type="line"/>
    </contour>
    <contour>
      <point x="50" y="24" type="line"/>
      <point x="74" y="24" type="line"/>
      <point x="74" y="506" type="line"/>
      <point x="73" y="506" type="line"/>
      <point x="50" y="483" type="line"/>
    </contour>
    <contour>
      <point x="80" y="657" type="line"/>
      <point x="138" y="657" type="line"/>
      <point x="138" y="658" type="line"/>
      <point x="120" y="676" type="line"/>
      <point x="80" y="676" type="line"/>
    </contour>
    <contour>
      <point x="79" y="572" type="line"/>
      <point x="119" y="572" type="line"/>
      <point x="119" y="591" type="line"/>
      <point x="61" y="591" type="line"/>
      <point x="61" y="590" type="line"/>
    </contour>
    <contour>
      <point x="61" y="591" type="line"/>
      <point x="80" y="591" type="line"/>
      <point x="80" y="676" type="line"/>
      <point x="79" y="676" type="line"/>
      <point x="61" y="658" type="line"/>
    </contour>
    <contour>
      <point x="119" y="572" type="line"/>
      <point x="120" y="572" type="line"/>
      <point x="138" y="590" type="line"/>
      <point x="138" y="657" type="line"/>
      <point x="119" y="657" type="line"/>
    </contour>
  </outline>
</glyph>
<glyph name="Wcircumflex.color3" format="2">
  <advance width="600"/>
  <unicode hex="0174"/>
  <outline>
    <contour>
      <point x="363" y="0" type="line"/>
      <point x="386" y="0" type="line"/>
      <point x="482" y="699" type="line"/>
      <point x="482" y="700" type="line"/>
      <point x="458" y="700" type="line"/>
    </contour>
  </outline>
</glyph>
<glyph name="Wcircumflex.color5" format="2">
  <advance width="600"/>
  <unicode hex="0174"/>
  <outline>
    <contour>
      <point x="191" y="760" type="line"/>
      <point x="215" y="760" type="line"/>
      <point x="260" y="850" type="line"/>
      <point x="237" y="850" type="line"/>
      <point x="191" y="761" type="line"/>
    </contour>
  </outline>
</glyph>
<glyph name="wcircumflex.color6" format="2">
  <advance width="600"/>
  <unicode hex="0175"/>
  <outline>
    <contour>
      <point x="84" y="590" type="line"/>
      <point x="108" y="590" type="line"/>
      <point x="153" y="680" type="line"/>
      <point x="130" y="680" type="line"/>
      <point x="84" y="591" type="line"/>
    </contour>
  </outline>
</glyph>
<glyph name="Ycircumflex.color3" format="2">
  <advance width="600"/>
  <unicode hex="0176"/>
  <outline>
    <contour>
      <point x="157" y="760" type="line"/>
      <point x="181" y="760" type="line"/>
      <point x="181" y="761" type="line"/>
      <point x="137" y="850" type="line"/>
      <point x="113" y="850" type="line"/>
    </contour>
  </outline>
</glyph>
<glyph name="ycircumflex.color0" format="2">
  <advance width="600"/>
  <unicode hex="0177"/>
  <outline>
    <contour>
      <point x="129" y="-200" type="line"/>
      <point x="130" y="-200" type="line"/>
      <point x="152" y="-177" type="line"/>
      <point x="153" y="500" type="line"/>
      <point x="129" y="500" type="line"/>
    </contour>
  </outline>
</glyph>
<glyph name="ycircumflex.color1" format="2">
  <advance width="600"/>
  <unicode hex="0177"/>
  <outline>
    <contour>
      <point x="56" y="-200" type="line"/>
      <point x="129" y="-200" type="line"/>
      <point x="129" y="-176" type="line"/>
      <point x="56" y="-176" type="line"/>
      <point x="56" y="-177" type="line"/>
    </contour>
  </outline>
</glyph>
<glyph name="ycircumflex.color2" format="2">
  <advance width="600"/>
  <unicode hex="0177"/>
  <outline>
    <contour>
      <point x="79" y="0" type="line"/>
      <point x="129" y="0" type="line"/>
      <point x="129" y="24" type="line"/>
      <point x="56" y="24" type="line"/>
      <point x="56" y="23" type="line"/>
    </contour>
  </outline>
</glyph>
<glyph name="ycircumflex.color3" format="2">
  <advance width="600"/>
  <unicode hex="0177"/>
  <outline>
    <contour>
      <point x="56" y="24" type="line"/>
      <point x="80" y="24" type="line"/>
      <point x="80" y="503" type="line"/>
      <point x="79" y="503" type="line"/>
      <point x="56" y="477" type="line"/>
    </contour>
  </outline>
</glyph>
<glyph name="ycircumflex.color4" format="2">
  <advance width="600"/>
  <unicode hex="0177"/>
  <outline>
    <contour>
      <point x="140" y="590" type="line"/>
      <point x="164" y="590" type="line"/>
      <point x="164" y="591" type="line"/>
      <point x="120" y="680" type="line"/>
      <point x="96" y="680" type="line"/>
    </contour>
  </outline>
</glyph>
<glyph name="ycircumflex.color5" format="2">
  <advance width="600"/>
  <unicode hex="0177"/>
  <outline>
    <contour>
      <point x="50" y="590" type="line"/>
      <point x="74" y="590" type="line"/>
      <point x="119" y="680" type="line"/>
      <point x="96" y="680" type="line"/>
      <point x="50" y="591" type="line"/>
    </contour>
  </outline>
</glyph>
<glyph name="Ydieresis.color3" format="2">
  <advance width="600"/>
  <unicode hex="0178"/>
  <outline>
    <contour>
      <point x="144" y="811" type="line"/>
      <point x="175" y="811" type="line"/>
      <point x="175" y="845" type="line"/>
      <point x="144" y="845" type="line"/>
    </contour>
  </outline>
</glyph>
<glyph name="Zacute.color2" format="2">
  <advance width="600"/>
  <unicode hex="0179"/>
  <outline>
    <contour>
      <point x="56" y="0" type="line"/>
      <point x="189" y="0" type="line"/>
      <point x="189" y="24" type="line"/>
      <point x="33" y="24" type="line"/>
    </contour>
  </outline>
</glyph>
<glyph name="zacute.color3" format="2">
  <advance width="600"/>
  <unicode hex="017A"/>
  <outline>
    <contour>
      <point x="67" y="570" type="line"/>
      <point x="91" y="570" type="line"/>
      <point x="123" y="699" type="line"/>
      <point x="123" y="700" type="line"/>
      <point x="92" y="700" type="line"/>
    </contour>
  </outline>
</glyph>
<glyph name="zcaron.color4" format="2">
  <advance width="600"/>
  <unicode hex="017E"/>
  <outline>
    <contour>
      <point x="72" y="590" type="line"/>
      <point x="95" y="590" type="line"/>
      <point x="141" y="679" type="line"/>
      <point x="141" y="680" type="line"/>
      <point x="117" y="680" type="line"/>
    </contour>
  </outline>
</glyph>
<glyph name="zcaron" format="2">
  <advance width="172"/>
  <unicode hex="017E"/>
  <anchor x="83" y="500" name="top"/>
  <outline>
    <contour>
      <point x="23" y="476" type="line"/>
      <point x="123" y="476" type="line"/>
      <point x="126" y="500" type="line"/>
      <point x="23" y="500" type="line"/>
      <point x="23" y="477" type="line"/>
    </contour>
    <contour>
      <point x="46" y="24" type="line"/>
      <point x="149" y="467" type="line"/>
      <point x="126" y="500" type="line"/>
      <point x="23" y="25" type="line"/>
      <point x="23" y="24" type="line"/>
    </contour>
    <contour>
      <point x="46" y="0" type="line"/>
      <point x="149" y="0" type="line"/>
      <point x="149" y="24" type="line"/>
      <point x="23" y="24" type="line"/>
    </contour>
    <contour>
      <point x="71" y="590" type="line"/>
      <point x="95" y="590" type="line"/>
      <point x="51" y="680" type="line"/>
      <point x="27" y="680" type="line"/>
      <point x="27" y="679" type="line"/>
    </contour>
    <contour>
      <point x="72" y="590" type="line"/>
      <point x="95" y="590" type="line"/>
      <point x="141" y="679" type="line"/>
      <point x="141" y="680" type="line"/>
      <point x="117" y="680" type="line"/>
    </contour>
  </outline>
</glyph>
<glyph name="florin.color5" format="2">
  <advance width="600"/>
  <unicode hex="0192"/>
  <outline>
    <contour>
      <point x="121" y="706" type="line"/>
      <point x="174" y="706" type="line"/>
      <point x="174" y="730" type="line"/>
      <point x="121" y="730" type="line"/>
    </contour>
  </outline>
</glyph>
<glyph name="uhorn.color4" format="2">
  <advance width="600"/>
  <unicode hex="01B0"/>
  <outline>
    <contour>
      <point x="146" y="476" type="line"/>
      <point x="154" y="476" type="line"/>
      <point x="154" y="500" type="line"/>
      <point x="123" y="500" type="line"/>
    </contour>
  </outline>
</glyph>
<glyph name="DZcaron.color8" format="2">
  <advance width="600"/>
  <unicode hex="01C4"/>
  <outline>
    <contour>
      <point x="349" y="750" type="line"/>
      <point x="372" y="750" type="line"/>
      <point x="418" y="839" type="line"/>
      <point x="418" y="840" type="line"/>
      <point x="394" y="840" type="line"/>
    </contour>
  </outline>
</glyph>
<glyph name="DZcaron" format="2">
  <advance width="505"/>
  <unicode hex="01C4"/>
  <anchor x="65" y="365" name="stroke"/>
  <anchor x="361" y="700" name="top"/>
  <outline>
    <contour>
      <point x="77" y="676" type="line"/>
      <point x="222" y="676" type="line"/>
      <point x="222" y="677" type="line"/>
      <point x="199" y="700" type="line"/>
      <point x="77" y="700" type="line"/>
    </contour>
    <contour>
      <point x="53" y="0" type="line"/>
      <point x="198" y="0" type="line"/>
      <point x="198" y="24" type="line"/>
      <point x="53" y="24" type="line"/>
    </contour>
    <contour>
      <point x="53" y="24" type="line"/>
      <point x="77" y="24" type="line"/>
      <point x="77" y="700" type="line"/>
      <point x="53" y="700" type="line"/>
    </contour>
    <contour>
      <point x="198" y="0" type="line"/>
      <point x="199" y="0" type="line"/>
      <point x="222" y="23" type="line"/>
      <point x="222" y="676" type="line"/>
      <point x="198" y="676" type="line"/>
    </contour>
    <contour>
      <point x="276" y="676" type="line"/>
      <point x="406" y="676" type="line"/>
      <point x="409" y="700" type="line"/>
      <point x="276" y="700" type="line"/>
    </contour>
    <contour>
      <point x="299" y="24" type="line"/>
      <point x="432" y="667" type="line"/>
      <point x="409" y="700" type="line"/>
      <point x="276" y="25" type="line"/>
      <point x="276" y="24" type="line"/>
    </contour>
    <contour>
      <point x="299" y="0" type="line"/>
      <point x="432" y="0" type="line"/>
      <point x="432" y="24" type="line"/>
      <point x="276" y="24" type="line"/>
    </contour>
    <contour>
      <point x="348" y="750" type="line"/>
      <point x="372" y="750" type="line"/>
      <point x="328" y="840" type="line"/>
      <point x="304" y="840" type="line"/>
      <point x="304" y="839" type="line"/>
    </contour>
    <contour>
      <point x="349" y="750" type="line"/>
      <point x="372" y="750" type="line"/>
      <point x="418" y="839" type="line"/>
      <point x="418" y="840" type="line"/>
      <point x="394" y="840" type="line"/>
    </contour>
  </outline>
</glyph>
<glyph name="Dzcaron.color7" format="2">
  <advance width="600"/>
  <unicode hex="01C5"/>
  <outline>
    <contour>
      <point x="346" y="590" type="line"/>
      <point x="370" y="590" type="line"/>
      <point x="326" y="680" type="line"/>
      <point x="302" y="680" type="line"/>
      <point x="302" y="679" type="line"/>
    </contour>
  </outline>
</glyph>
<glyph name="dzcaron.color5" format="2">
  <advance width="600"/>
  <unicode hex="01C6"/>
  <outline>
    <contour>
      <point x="176" y="476" type="line"/>
      <point x="276" y="476" type="line"/>
      <point x="279" y="500" type="line"/>
      <point x="176" y="500" type="line"/>
      <point x="176" y="477" type="line"/>
    </contour>
  </outline>
</glyph>
<glyph name="dzcaron.color9" format="2">
  <advance width="600"/>
  <unicode hex="01C6"/>
  <outline>
    <contour>
      <point x="225" y="590" type="line"/>
      <point x="248" y="590" type="line"/>
      <point x="294" y="679" type="line"/>
      <point x="294" y="680" type="line"/>
      <point x="270" y="680" type="line"/>
    </contour>
  </outline>
</glyph>
<glyph name="LJ.color4" format="2">
  <advance width="600"/>
  <unicode hex="01C7"/>
  <outline>
    <contour>
      <point x="318" y="676" type="line"/>
      <point x="419" y="676" type="line"/>
      <point x="442" y="700" type="line"/>
      <point x="318" y="700" type="line"/>
    </contour>
  </outline>
</glyph>
<glyph name="Lj.color4" format="2">
  <advance width="600"/>
  <unicode hex="01C8"/>
  <outline>
    <contour>
      <point x="329" y="542" type="line"/>
      <point x="330" y="542" type="line"/>
      <point x="353" y="565" type="line"/>
      <point x="353" y="615" type="line"/>
      <point x="329" y="615" type="line"/>
    </contour>
  </outline>
</glyph>
<glyph name="lj" format="2">
  <advance width="312"/>
  <unicode hex="01C9"/>
  <anchor x="92" y="0" name="bottom"/>
  <anchor x="74" y="730" name="top"/>
  <outline>
    <contour>
      <point x="73" y="0" type="line"/>
      <point x="74" y="0" type="line"/>
      <point x="74" y="730" type="line"/>
      <point x="50" y="730" type="line"/>
      <point x="50" y="23" type="line"/>
    </contour>
    <contour>
      <point x="74" y="0" type="line"/>
      <point x="136" y="0" type="line"/>
      <point x="136" y="24" type="line"/>
      <point x="74" y="24" type="line"/>
    </contour>
    <contour>
      <point x="192" y="-200" type="line"/>
      <point x="193" y="-200" type="line"/>
      <point x="216" y="-177" type="line"/>
      <point x="216" y="503" type="line"/>
      <point x="215" y="503" type="line"/>
      <point x="192" y="480" type="line"/>
    </contour>
    <contour>
      <point x="130" y="-200" type="line"/>
      <point x="192" y="-200" type="line"/>
      <point x="192" y="-176" type="line"/>
      <point x="130" y="-176" type="line"/>
    </contour>
    <contour>
      <point x="192" y="542" type="line"/>
      <point x="193" y="542" type="line"/>
      <point x="216" y="565" type="line"/>
      <point x="216" y="615" type="line"/>
      <point x="192" y="615" type="line"/>
    </contour>
  </outline>
</glyph>
<glyph name="Nj.color4" format="2">
  <advance width="600"/>
  <unicode hex="01CB"/>
  <outline>
    <contour>
      <point x="291" y="-200" type="line"/>
      <point x="353" y="-200" type="line"/>
      <point x="353" y="-176" type="line"/>
      <point x="291" y="-176" type="line"/>
    </contour>
  </outline>
</glyph>
<glyph name="Nj.color5" format="2">
  <advance width="600"/>
  <unicode hex="01CB"/>
  <outline>
    <contour>
      <point x="353" y="542" type="line"/>
      <point x="354" y="542" type="line"/>
      <point x="377" y="565" type="line"/>
      <point x="377" y="615" type="line"/>
      <point x="353" y="615" type="line"/>
    </contour>
  </outline>
</glyph>
<glyph name="gcaron.color5" format="2">
  <advance width="600"/>
  <unicode hex="01E7"/>
  <outline>
    <contour>
      <point x="98" y="590" type="line"/>
      <point x="122" y="590" type="line"/>
      <point x="78" y="680" type="line"/>
      <point x="54" y="680" type="line"/>
      <point x="54" y="679" type="line"/>
    </contour>
  </outline>
</glyph>
<glyph name="Aringacute.color0" format="2">
  <advance width="600"/>
  <unicode hex="01FA"/>
  <outline>
    <contour>
      <point x="118" y="840" type="line"/>
      <point x="139" y="840" type="line"/>
      <point x="177" y="899" type="line"/>
      <point x="177" y="900" type="line"/>
      <point x="148" y="900" type="line"/>
    </contour>
  </outline>
</glyph>
<glyph name="Aringacute.color1" format="2">
  <advance width="600"/>
  <unicode hex="01FA"/>
  <outline>
    <contour>
      <point x="53" y="0" type="line"/>
      <point x="77" y="0" type="line"/>
      <point x="77" y="700" type="line"/>
      <point x="76" y="700" type="line"/>
      <point x="53" y="677" type="line"/>
    </contour>
  </outline>
</glyph>
<glyph name="Aringacute.color2" format="2">
  <advance width="600"/>
  <unicode hex="01FA"/>
  <outline>
    <contour>
      <point x="94" y="758" type="line"/>
      <point x="115" y="758" type="line"/>
      <point x="115" y="821" type="line"/>
      <point x="114" y="821" type="line"/>
      <point x="94" y="803" type="line"/>
    </contour>
  </outline>
</glyph>
<glyph name="Aringacute.color3" format="2">
  <advance width="600"/>
  <unicode hex="01FA"/>
  <outline>
    <contour>
      <point x="160" y="737" type="line"/>
      <point x="161" y="737" type="line"/>
      <point x="181" y="755" type="line"/>
      <point x="181" y="800" type="line"/>
      <point x="160" y="800" type="line"/>
    </contour>
  </outline>
</glyph>
<glyph name="Aringacute" format="2">
  <advance width="273"/>
  <unicode hex="01FA"/>
  <outline>
    <contour>
      <point x="118" y="840" type="line"/>
      <point x="139" y="840" type="line"/>
      <point x="177" y="899" type="line"/>
      <point x="177" y="900" type="line"/>
      <point x="148" y="900" type="line"/>
    </contour>
    <contour>
      <point x="112" y="737" type="line"/>
      <point x="160" y="737" type="line"/>
      <point x="160" y="758" type="line"/>
      <point x="94" y="758" type="line"/>
      <point x="94" y="757" type="line"/>
    </contour>
    <contour>
      <point x="94" y="758" type="line"/>
      <point x="115" y="758" type="line"/>
      <point x="115" y="821" type="line"/>
      <point x="114" y="821" type="line"/>
      <point x="94" y="803" type="line"/>
    </contour>
    <contour>
      <point x="160" y="737" type="line"/>
      <point x="161" y="737" type="line"/>
      <point x="181" y="755" type="line"/>
      <point x="181" y="800" type="line"/>
      <point x="160" y="800" type="line"/>
    </contour>
    <contour>
      <point x="115" y="800" type="line"/>
      <point x="181" y="800" type="line"/>
      <point x="181" y="801" type="line"/>
      <point x="163" y="821" type="line"/>
      <point x="115" y="821" type="line"/>
    </contour>
    <component base="A"/>
  </outline>
</glyph>
<glyph name="aringacute.color1" format="2">
  <advance width="600"/>
  <unicode hex="01FB"/>
  <outline>
    <contour>
      <point x="84" y="537" type="line"/>
      <point x="124" y="537" type="line"/>
      <point x="124" y="556" type="line"/>
      <point x="66" y="556" type="line"/>
      <point x="66" y="555" type="line"/>
    </contour>
  </outline>
</glyph>
<glyph name="aringacute.color3" format="2">
  <advance width="600"/>
  <unicode hex="01FB"/>
  <outline>
    <contour>
      <point x="124" y="537" type="line"/>
      <point x="125" y="537" type="line"/>
      <point x="143" y="555" type="line"/>
      <point x="143" y="622" type="line"/>
      <point x="124" y="622" type="line"/>
    </contour>
  </outline>
</glyph>
<glyph name="aringacute" format="2">
  <advance width="199"/>
  <unicode hex="01FB"/>
  <outline>
    <contour>
      <point x="85" y="622" type="line"/>
      <point x="143" y="622" type="line"/>
      <point x="143" y="623" type="line"/>
      <point x="125" y="641" type="line"/>
      <point x="85" y="641" type="line"/>
    </contour>
    <contour>
      <point x="84" y="537" type="line"/>
      <point x="124" y="537" type="line"/>
      <point x="124" y="556" type="line"/>
      <point x="66" y="556" type="line"/>
      <point x="66" y="555" type="line"/>
    </contour>
    <contour>
      <point x="66" y="556" type="line"/>
      <point x="85" y="556" type="line"/>
      <point x="85" y="641" type="line"/>
      <point x="84" y="641" type="line"/>
      <point x="66" y="623" type="line"/>
    </contour>
    <contour>
      <point x="124" y="537" type="line"/>
      <point x="125" y="537" type="line"/>
      <point x="143" y="555" type="line"/>
      <point x="143" y="622" type="line"/>
      <point x="124" y="622" type="line"/>
    </contour>
    <contour>
      <point x="92" y="670" type="line"/>
      <point x="111" y="670" type="line"/>
      <point x="149" y="771" type="line"/>
      <point x="149" y="772" type="line"/>
      <point x="118" y="772" type="line"/>
    </contour>
    <component base="a"/>
  </outline>
</glyph>
<glyph name="AEacute.color3" format="2">
  <advance width="600"/>
  <unicode hex="01FC"/>
  <outline>
    <contour>
      <point x="196" y="24" type="line"/>
      <point x="220" y="24" type="line"/>
      <point x="220" y="676" type="line"/>
      <point x="196" y="676" type="line"/>
    </contour>
  </outline>
</glyph>
<glyph name="AEacute.color5" format="2">
  <advance width="600"/>
  <unicode hex="01FC"/>
  <outline>
    <contour>
      <point x="220" y="353" type="line"/>
      <point x="339" y="353" type="line"/>
      <point x="339" y="377" type="line"/>
      <point x="220" y="377" type="line"/>
    </contour>
  </outline>
</glyph>
<glyph name="aeacute" format="2">
  <advance width="271"/>
  <unicode hex="01FD"/>
  <anchor x="130" y="500" name="top"/>
  <outline>
    <contour>
      <point x="73" y="0" type="line"/>
      <point x="147" y="0" type="line"/>
      <point x="123" y="24" type="line"/>
      <point x="50" y="24" type="line"/>
      <point x="50" y="23" type="line"/>
    </contour>
    <contour>
      <point x="147" y="476" type="line"/>
      <point x="221" y="476" type="line"/>
      <point x="221" y="477" type="line"/>
      <point x="198" y="500" type="line"/>
      <point x="147" y="500" type="line"/>
    </contour>
    <contour>
      <point x="50" y="24" type="line"/>
      <point x="74" y="24" type="line"/>
      <point x="74" y="500" type="line"/>
      <point x="73" y="500" type="line"/>
      <point x="50" y="477" type="line"/>
    </contour>
    <contour>
      <point x="147" y="0" type="line"/>
      <point x="147" y="476" type="line"/>
      <point x="123" y="476" type="line"/>
      <point x="123" y="24" type="line"/>
    </contour>
    <contour>
      <point x="74" y="476" type="line"/>
      <point x="147" y="476" type="line"/>
      <point x="147" y="477" type="line"/>
      <point x="124" y="500" type="line"/>
      <point x="74" y="500" type="line"/>
    </contour>
    <contour>
      <point x="147" y="0" type="line"/>
      <point x="198" y="0" type="line"/>
      <point x="221" y="23" type="line"/>
      <point x="221" y="24" type="line"/>
      <point x="147" y="24" type="line"/>
    </contour>
    <contour>
      <point x="147" y="202" type="line"/>
      <point x="197" y="202" type="line"/>
      <point x="197" y="226" type="line"/>
      <point x="147" y="226" type="line"/>
    </contour>
    <contour>
      <point x="197" y="202" type="line"/>
      <point x="198" y="202" type="line"/>
      <point x="221" y="225" type="line"/>
      <point x="221" y="476" type="line"/>
      <point x="197" y="476" type="line"/>
    </contour>
    <contour>
      <point x="114" y="570" type="line"/>
      <point x="138" y="570" type="line"/>
      <point x="170" y="699" type="line"/>
      <point x="170" y="700" type="line"/>
      <point x="139" y="700" type="line"/>
    </contour>
  </outline>
</glyph>
<glyph name="Oslashacute.color5" format="2">
  <advance width="600"/>
  <unicode hex="01FE"/>
  <outline>
    <contour>
      <point x="120" y="735" type="line"/>
      <point x="144" y="735" type="line"/>
      <point x="171" y="854" type="line"/>
      <point x="171" y="855" type="line"/>
      <point x="140" y="855" type="line"/>
    </contour>
  </outline>
</glyph>
<glyph name="Adblgrave.color4" format="2">
  <advance width="600"/>
  <unicode hex="0200"/>
  <outline>
    <contour>
      <point x="155" y="770" type="line"/>
      <point x="179" y="770" type="line"/>
      <point x="154" y="860" type="line"/>
      <point x="123" y="860" type="line"/>
      <point x="123" y="859" type="line"/>
    </contour>
  </outline>
</glyph>
<glyph name="ainvertedbreve.color3" format="2">
  <advance width="600"/>
  <unicode hex="0203"/>
  <outline>
    <contour>
      <point x="123" y="0" type="line"/>
      <point x="147" y="0" type="line"/>
      <point x="147" y="476" type="line"/>
      <point x="123" y="476" type="line"/>
    </contour>
  </outline>
</glyph>
<glyph name="ainvertedbreve" format="2">
  <advance width="197"/>
  <unicode hex="0203"/>
  <anchor x="102" y="0" name="bottom"/>
  <anchor x="102" y="500" name="top"/>
  <outline>
    <contour>
      <point x="74" y="476" type="line"/>
      <point x="147" y="476" type="line"/>
      <point x="147" y="477" type="line"/>
      <point x="124" y="500" type="line"/>
      <point x="74" y="500" type="line"/>
    </contour>
    <contour>
      <point x="73" y="0" type="line"/>
      <point x="123" y="0" type="line"/>
      <point x="123" y="24" type="line"/>
      <point x="50" y="24" type="line"/>
      <point x="50" y="23" type="line"/>
    </contour>
    <contour>
      <point x="50" y="24" type="line"/>
      <point x="74" y="24" type="line"/>
      <point x="74" y="500" type="line"/>
      <point x="73" y="500" type="line"/>
      <point x="50" y="477" type="line"/>
    </contour>
    <contour>
      <point x="123" y="0" type="line"/>
      <point x="147" y="0" type="line"/>
      <point x="147" y="476" type="line"/>
      <point x="123" y="476" type="line"/>
    </contour>
    <contour>
      <point x="66" y="648" type="line"/>
      <point x="144" y="648" type="line"/>
      <point x="131" y="670" type="line"/>
      <point x="79" y="670" type="line"/>
    </contour>
    <contour>
      <point x="37" y="598" type="line"/>
      <point x="63" y="598" type="line"/>
      <point x="92" y="648" type="line"/>
      <point x="66" y="648" type="line"/>
      <point x="37" y="599" type="line"/>
    </contour>
    <contour>
      <point x="147" y="598" type="line"/>
      <point x="173" y="598" type="line"/>
      <point x="173" y="599" type="line"/>
      <point x="144" y="648" type="line"/>
      <point x="118" y="648" type="line"/>
    </contour>
  </outline>
</glyph>
<glyph name="einvertedbreve.color4" format="2">
  <advance width="600"/>
  <unicode hex="0207"/>
  <outline>
    <contour>
      <point x="123" y="202" type="line"/>
      <point x="124" y="202" type="line"/>
      <point x="147" y="225" type="line"/>
      <point x="147" y="476" type="line"/>
      <point x="123" y="476" type="line"/>
    </contour>
  </outline>
</glyph>
<glyph name="einvertedbreve.color6" format="2">
  <advance width="600"/>
  <unicode hex="0207"/>
  <outline>
    <contour>
      <point x="35" y="598" type="line"/>
      <point x="61" y="598" type="line"/>
      <point x="90" y="648" type="line"/>
      <point x="64" y="648" type="line"/>
      <point x="35" y="599" type="line"/>
    </contour>
  </outline>
</glyph>
<glyph name="Idblgrave.color2" format="2">
  <advance width="600"/>
  <unicode hex="0208"/>
  <outline>
    <contour>
      <point x="102" y="0" type="line"/>
      <point x="206" y="0" type="line"/>
      <point x="206" y="24" type="line"/>
      <point x="125" y="24" type="line"/>
    </contour>
  </outline>
</glyph>
<glyph name="idblgrave.color0" format="2">
  <advance width="600"/>
  <unicode hex="0209"/>
  <outline>
    <contour>
      <point x="104" y="570" type="line"/>
      <point x="128" y="570" type="line"/>
      <point x="103" y="700" type="line"/>
      <point x="72" y="700" type="line"/>
      <point x="72" y="699" type="line"/>
    </contour>
  </outline>
</glyph>
<glyph name="Iinvertedbreve.color0" format="2">
  <advance width="600"/>
  <unicode hex="020A"/>
  <outline>
    <contour>
      <point x="101" y="0" type="line"/>
      <point x="102" y="0" type="line"/>
      <point x="125" y="24" type="line"/>
      <point x="125" y="700" type="line"/>
      <point x="124" y="700" type="line"/>
      <point x="101" y="676" type="line"/>
    </contour>
  </outline>
</glyph>
<glyph name="iinvertedbreve.color1" format="2">
  <advance width="600"/>
  <unicode hex="020B"/>
  <outline>
    <contour>
      <point x="53" y="0" type="line"/>
      <point x="77" y="0" type="line"/>
      <point x="77" y="503" type="line"/>
      <point x="76" y="503" type="line"/>
      <point x="53" y="480" type="line"/>
    </contour>
  </outline>
</glyph>
<glyph name="oinvertedbreve.color5" format="2">
  <advance width="600"/>
  <unicode hex="020F"/>
  <outline>
    <contour>
      <point x="34" y="598" type="line"/>
      <point x="60" y="598" type="line"/>
      <point x="89" y="648" type="line"/>
      <point x="63" y="648" type="line"/>
      <point x="34" y="599" type="line"/>
    </contour>
  </outline>
</glyph>
<glyph name="oinvertedbreve.color6" format="2">
  <advance width="600"/>
  <unicode hex="020F"/>
  <outline>
    <contour>
      <point x="144" y="598" type="line"/>
      <point x="170" y="598" type="line"/>
      <point x="170" y="599" type="line"/>
      <point x="141" y="648" type="line"/>
      <point x="115" y="648" type="line"/>
    </contour>
  </outline>
</glyph>
<glyph name="rdblgrave.color3" format="2">
  <advance width="600"/>
  <unicode hex="0211"/>
  <outline>
    <contour>
      <point x="64" y="570" type="line"/>
      <point x="88" y="570" type="line"/>
      <point x="63" y="700" type="line"/>
      <point x="32" y="700" type="line"/>
      <point x="32" y="699" type="line"/>
    </contour>
  </outline>
</glyph>
<glyph name="udblgrave.color1" format="2">
  <advance width="600"/>
  <unicode hex="0215"/>
  <outline>
    <contour>
      <point x="73" y="0" type="line"/>
      <point x="123" y="0" type="line"/>
      <point x="123" y="24" type="line"/>
      <point x="50" y="24" type="line"/>
      <point x="50" y="23" type="line"/>
    </contour>
  </outline>
</glyph>
<glyph name="Uinvertedbreve.color3" format="2">
  <advance width="600"/>
  <unicode hex="0216"/>
  <outline>
    <contour>
      <point x="96" y="819" type="line"/>
      <point x="190" y="819" type="line"/>
      <point x="171" y="841" type="line"/>
      <point x="115" y="841" type="line"/>
    </contour>
  </outline>
</glyph>
<glyph name="Uinvertedbreve.color4" format="2">
  <advance width="600"/>
  <unicode hex="0216"/>
  <outline>
    <contour>
      <point x="65" y="782" type="line"/>
      <point x="97" y="782" type="line"/>
      <point x="128" y="819" type="line"/>
      <point x="96" y="819" type="line"/>
      <point x="65" y="783" type="line"/>
    </contour>
  </outline>
</glyph>
<glyph name="Uinvertedbreve.color5" format="2">
  <advance width="600"/>
  <unicode hex="0216"/>
  <outline>
    <contour>
      <point x="189" y="782" type="line"/>
      <point x="221" y="782" type="line"/>
      <point x="221" y="783" type="line"/>
      <point x="190" y="819" type="line"/>
      <point x="158" y="819" type="line"/>
    </contour>
  </outline>
</glyph>
<glyph name="uinvertedbreve.color4" format="2">
  <advance width="600"/>
  <unicode hex="0217"/>
  <outline>
    <contour>
      <point x="35" y="598" type="line"/>
      <point x="61" y="598" type="line"/>
      <point x="90" y="648" type="line"/>
      <point x="64" y="648" type="line"/>
      <point x="35" y="599" type="line"/>
    </contour>
  </outline>
</glyph>
<glyph name="uinvertedbreve.color5" format="2">
  <advance width="600"/>
  <unicode hex="0217"/>
  <outline>
    <contour>
      <point x="145" y="598" type="line"/>
      <point x="171" y="598" type="line"/>
      <point x="171" y="599" type="line"/>
      <point x="142" y="648" type="line"/>
      <point x="116" y="648" type="line"/>
    </contour>
  </outline>
</glyph>
<glyph name="Scommaaccent.color0" format="2">
  <advance width="600"/>
  <unicode hex="0218"/>
  <outline>
    <contour>
      <point x="67" y="676" type="line"/>
      <point x="190" y="676" type="line"/>
      <point x="190" y="677" type="line"/>
      <point x="167" y="700" type="line"/>
      <point x="67" y="700" type="line"/>
    </contour>
  </outline>
</glyph>
<glyph name="Scommaaccent.color2" format="2">
  <advance width="600"/>
  <unicode hex="0218"/>
  <outline>
    <contour>
      <point x="66" y="353" type="line"/>
      <point x="166" y="353" type="line"/>
      <point x="166" y="377" type="line"/>
      <point x="43" y="377" type="line"/>
      <point x="43" y="376" type="line"/>
    </contour>
  </outline>
</glyph>
<glyph name="Scommaaccent.color5" format="2">
  <advance width="600"/>
  <unicode hex="0218"/>
  <outline>
    <contour>
      <point x="132" y="-141" type="line"/>
      <point x="133" y="-141" type="line"/>
      <point x="133" y="-50" type="line"/>
      <point x="109" y="-50" type="line"/>
      <point x="109" y="-118" type="line"/>
    </contour>
  </outline>
</glyph>
<glyph name="tcommaaccent.color4" format="2">
  <advance width="600"/>
  <unicode hex="021B"/>
  <outline>
    <contour>
      <point x="110" y="-141" type="line"/>
      <point x="111" y="-141" type="line"/>
      <point x="111" y="-50" type="line"/>
      <point x="87" y="-50" type="line"/>
      <point x="87" y="-118" type="line"/>
    </contour>
  </outline>
</glyph>
<glyph name="Odieresismacron.color5" format="2">
  <advance width="600"/>
  <unicode hex="022A"/>
  <outline>
    <contour>
      <point x="90" y="811" type="line"/>
      <point x="121" y="811" type="line"/>
      <point x="121" y="845" type="line"/>
      <point x="90" y="845" type="line"/>
    </contour>
  </outline>
</glyph>
<glyph name="Otildemacron.color0" format="2">
  <advance width="600"/>
  <unicode hex="022C"/>
  <outline>
    <contour>
      <point x="70" y="749" type="line"/>
      <point x="94" y="749" type="line"/>
      <point x="94" y="801" type="line"/>
      <point x="70" y="800" type="line"/>
    </contour>
  </outline>
</glyph>
<glyph name="Otildemacron.color2" format="2">
  <advance width="600"/>
  <unicode hex="022C"/>
  <outline>
    <contour>
      <point x="166" y="748" type="line"/>
      <point x="167" y="748" type="line"/>
      <point x="189" y="757" type="line"/>
      <point x="189" y="758" type="line"/>
      <point x="93" y="810" type="line"/>
      <point x="92" y="810" type="line"/>
      <point x="70" y="801" type="line"/>
      <point x="70" y="800" type="line"/>
    </contour>
  </outline>
</glyph>
<glyph name="Otildemacron" format="2">
  <advance width="273"/>
  <unicode hex="022C"/>
  <outline>
    <contour>
      <point x="70" y="749" type="line"/>
      <point x="94" y="749" type="line"/>
      <point x="94" y="801" type="line"/>
      <point x="70" y="800" type="line"/>
    </contour>
    <contour>
      <point x="165" y="758" type="line"/>
      <point x="189" y="758" type="line"/>
      <point x="189" y="810" type="line"/>
      <point x="165" y="810" type="line"/>
    </contour>
    <contour>
      <point x="166" y="748" type="line"/>
      <point x="167" y="748" type="line"/>
      <point x="189" y="757" type="line"/>
      <point x="189" y="758" type="line"/>
      <point x="93" y="810" type="line"/>
      <point x="92" y="810" type="line"/>
      <point x="70" y="801" type="line"/>
      <point x="70" y="800" type="line"/>
    </contour>
    <contour>
      <point x="59" y="848" type="line"/>
      <point x="209" y="848" type="line"/>
      <point x="209" y="872" type="line"/>
      <point x="59" y="872" type="line"/>
    </contour>
    <component base="O"/>
  </outline>
</glyph>
<glyph name="otildemacron.color0" format="2">
  <advance width="600"/>
  <unicode hex="022D"/>
  <outline>
    <contour>
      <point x="52" y="581" type="line"/>
      <point x="72" y="581" type="line"/>
      <point x="72" y="633" type="line"/>
      <point x="52" y="632" type="line"/>
    </contour>
  </outline>
</glyph>
<glyph name="otildemacron.color1" format="2">
  <advance width="600"/>
  <unicode hex="022D"/>
  <outline>
    <contour>
      <point x="73" y="0" type="line"/>
      <point x="124" y="0" type="line"/>
      <point x="124" y="24" type="line"/>
      <point x="50" y="24" type="line"/>
      <point x="50" y="23" type="line"/>
    </contour>
  </outline>
</glyph>
<glyph name="otildemacron.color3" format="2">
  <advance width="600"/>
  <unicode hex="022D"/>
  <outline>
    <contour>
      <point x="47" y="676" type="line"/>
      <point x="157" y="676" type="line"/>
      <point x="157" y="700" type="line"/>
      <point x="47" y="700" type="line"/>
    </contour>
  </outline>
</glyph>
<glyph name="Ymacron" format="2">
  <advance width="250"/>
  <unicode hex="0232"/>
  <anchor x="129" y="0" name="bottom"/>
  <anchor x="127" y="700" name="top"/>
  <outline>
    <contour>
      <point x="117" y="350" type="line"/>
      <point x="118" y="350" type="line"/>
      <point x="140" y="356" type="line"/>
      <point x="47" y="700" type="line"/>
      <point x="23" y="700" type="line"/>
      <point x="23" y="699" type="line"/>
    </contour>
    <contour>
      <point x="117" y="0" type="line"/>
      <point x="141" y="0" type="line"/>
      <point x="141" y="350" type="line"/>
      <point x="117" y="350" type="line"/>
    </contour>
    <contour>
      <point x="118" y="350" type="line"/>
      <point x="141" y="350" type="line"/>
      <point x="227" y="699" type="line"/>
      <point x="227" y="700" type="line"/>
      <point x="203" y="700" type="line"/>
    </contour>
    <contour>
      <point x="52" y="801" type="line"/>
      <point x="202" y="801" type="line"/>
      <point x="202" y="825" type="line"/>
      <point x="52" y="825" type="line"/>
    </contour>
  </outline>
</glyph>
<glyph name="ymacron.color0" format="2">
  <advance width="600"/>
  <unicode hex="0233"/>
  <outline>
    <contour>
      <point x="128" y="-200" type="line"/>
      <point x="129" y="-200" type="line"/>
      <point x="151" y="-177" type="line"/>
      <point x="152" y="500" type="line"/>
      <point x="128" y="500" type="line"/>
    </contour>
  </outline>
</glyph>
<glyph name="ymacron.color1" format="2">
  <advance width="600"/>
  <unicode hex="0233"/>
  <outline>
    <contour>
      <point x="55" y="-200" type="line"/>
      <point x="128" y="-200" type="line"/>
      <point x="128" y="-176" type="line"/>
      <point x="55" y="-176" type="line"/>
      <point x="55" y="-177" type="line"/>
    </contour>
  </outline>
</glyph>
<glyph name="ymacron.color2" format="2">
  <advance width="600"/>
  <unicode hex="0233"/>
  <outline>
    <contour>
      <point x="78" y="0" type="line"/>
      <point x="128" y="0" type="line"/>
      <point x="128" y="24" type="line"/>
      <point x="55" y="24" type="line"/>
      <point x="55" y="23" type="line"/>
    </contour>
  </outline>
</glyph>
<glyph name="ymacron.color3" format="2">
  <advance width="600"/>
  <unicode hex="0233"/>
  <outline>
    <contour>
      <point x="55" y="24" type="line"/>
      <point x="79" y="24" type="line"/>
      <point x="79" y="503" type="line"/>
      <point x="78" y="503" type="line"/>
      <point x="55" y="477" type="line"/>
    </contour>
  </outline>
</glyph>
<glyph name="doubleprimemod.color0" format="2">
  <advance width="600"/>
  <unicode hex="02BA"/>
  <outline>
    <contour>
      <point x="53" y="585" type="line"/>
      <point x="74" y="585" type="line"/>
      <point x="102" y="699" type="line"/>
      <point x="102" y="700" type="line"/>
      <point x="68" y="700" type="line"/>
    </contour>
  </outline>
</glyph>
<glyph name="ogonek" format="2">
  <advance width="600"/>
  <unicode hex="02DB"/>
  <anchor x="325" y="0" name="_bottom"/>
  <outline>
    <contour>
      <point x="292" y="-34" type="line"/>
      <point x="313" y="-34" type="line"/>
      <point x="337" y="-1" type="line"/>
      <point x="337" y="0" type="line"/>
      <point x="313" y="0" type="line"/>
      <point x="292" y="-33" type="line"/>
    </contour>
    <contour>
      <point x="312" y="-79" type="line"/>
      <point x="313" y="-79" type="line"/>
      <point x="313" y="-34" type="line"/>
      <point x="292" y="-34" type="line"/>
      <point x="292" y="-61" type="line"/>
    </contour>
    <contour>
      <point x="313" y="-80" type="line"/>
      <point x="338" y="-80" type="line"/>
      <point x="356" y="-62" type="line"/>
      <point x="356" y="-61" type="line"/>
      <point x="313" y="-61" type="line"/>
    </contour>
  </outline>
</glyph>
<glyph name="hookabovecomb" format="2">
  <unicode hex="0309"/>
  <anchor x="308" y="500" name="_top"/>
  <outline>
    <contour>
      <point x="294" y="583" type="line"/>
      <point x="317" y="583" type="line"/>
      <point x="350" y="654" type="line"/>
      <point x="350" y="655" type="line"/>
      <point x="332" y="678" type="line"/>
      <point x="294" y="584" type="line"/>
    </contour>
    <contour>
      <point x="273" y="654" type="line"/>
      <point x="350" y="654" type="line"/>
      <point x="350" y="655" type="line"/>
      <point x="332" y="678" type="line"/>
      <point x="273" y="678" type="line"/>
    </contour>
  </outline>
</glyph>
<glyph name="caroncomb" format="2">
  <unicode hex="030C"/>
  <anchor x="309" y="500" name="_top"/>
  <outline>
    <contour>
      <point x="297" y="590" type="line"/>
      <point x="321" y="590" type="line"/>
      <point x="277" y="680" type="line"/>
      <point x="253" y="680" type="line"/>
      <point x="253" y="679" type="line"/>
    </contour>
    <contour>
      <point x="298" y="590" type="line"/>
      <point x="321" y="590" type="line"/>
      <point x="367" y="679" type="line"/>
      <point x="367" y="680" type="line"/>
      <point x="343" y="680" type="line"/>
    </contour>
  </outline>
</glyph>
<glyph name="dblgravecomb.color0" format="2">
  <unicode hex="030F"/>
  <outline>
    <contour>
      <point x="345" y="570" type="line"/>
      <point x="369" y="570" type="line"/>
      <point x="344" y="700" type="line"/>
      <point x="313" y="700" type="line"/>
      <point x="313" y="699" type="line"/>
    </contour>
  </outline>
</glyph>
<glyph name="cedillacomb" format="2">
  <unicode hex="0327"/>
  <anchor x="326" y="0" name="_bottom"/>
  <outline>
    <contour>
      <point x="322" y="-44" type="line"/>
      <point x="357" y="-44" type="line"/>
      <point x="357" y="-43" type="line"/>
      <point x="339" y="-25" type="line"/>
      <point x="322" y="-25" type="line"/>
    </contour>
    <contour>
      <point x="301" y="-44" type="line"/>
      <point x="322" y="-44" type="line"/>
      <point x="337" y="-1" type="line"/>
      <point x="337" y="0" type="line"/>
      <point x="313" y="0" type="line"/>
      <point x="301" y="-43" type="line"/>
    </contour>
    <contour>
      <point x="304" y="-109" type="line"/>
      <point x="336" y="-109" type="line"/>
      <point x="336" y="-90" type="line"/>
      <point x="286" y="-90" type="line"/>
      <point x="286" y="-91" type="line"/>
    </contour>
    <contour>
      <point x="336" y="-109" type="line"/>
      <point x="337" y="-109" type="line"/>
      <point x="357" y="-91" type="line"/>
      <point x="357" y="-44" type="line"/>
      <point x="336" y="-44" type="line"/>
    </contour>
  </outline>
</glyph>
<glyph name="ogonekcomb.color2" format="2">
  <unicode hex="0328"/>
  <outline>
    <contour>
      <point x="313" y="-80" type="line"/>
      <point x="338" y="-80" type="line"/>
      <point x="356" y="-62" type="line"/>
      <point x="356" y="-61" type="line"/>
      <point x="313" y="-61" type="line"/>
    </contour>
  </outline>
</glyph>
<glyph name="Wacute.color2" format="2">
  <advance width="600"/>
  <unicode hex="1E82"/>
  <outline>
    <contour>
      <point x="123" y="0" type="line"/>
      <point x="146" y="0" type="line"/>
      <point x="262" y="700" type="line"/>
      <point x="238" y="700" type="line"/>
    </contour>
  </outline>
</glyph>
<glyph name="wacute.color4" format="2">
  <advance width="600"/>
  <unicode hex="1E83"/>
  <outline>
    <contour>
      <point x="123" y="24" type="line"/>
      <point x="147" y="24" type="line"/>
      <point x="147" y="503" type="line"/>
      <point x="146" y="503" type="line"/>
      <point x="123" y="480" type="line"/>
    </contour>
  </outline>
</glyph>
<glyph name="wacute.color5" format="2">
  <advance width="600"/>
  <unicode hex="1E83"/>
  <outline>
    <contour>
      <point x="124" y="570" type="line"/>
      <point x="148" y="570" type="line"/>
      <point x="180" y="699" type="line"/>
      <point x="180" y="700" type="line"/>
      <point x="149" y="700" type="line"/>
    </contour>
  </outline>
</glyph>
<glyph name="Wdieresis.color4" format="2">
  <advance width="600"/>
  <unicode hex="1E84"/>
  <outline>
    <contour>
      <point x="268" y="811" type="line"/>
      <point x="299" y="811" type="line"/>
      <point x="299" y="845" type="line"/>
      <point x="268" y="845" type="line"/>
    </contour>
  </outline>
</glyph>
<glyph name="wdieresis.color6" format="2">
  <advance width="600"/>
  <unicode hex="1E85"/>
  <outline>
    <contour>
      <point x="97" y="601" type="line"/>
      <point x="128" y="601" type="line"/>
      <point x="128" y="635" type="line"/>
      <point x="97" y="635" type="line"/>
    </contour>
  </outline>
</glyph>
<glyph name="Germandbls.color0" format="2">
  <advance width="600"/>
  <unicode hex="1E9E"/>
  <outline>
    <contour>
      <point x="53" y="0" type="line"/>
      <point x="77" y="0" type="line"/>
      <point x="77" y="700" type="line"/>
      <point x="53" y="700" type="line"/>
    </contour>
  </outline>
</glyph>
<glyph name="Ahookabove" format="2">
  <advance width="273"/>
  <unicode hex="1EA2"/>
  <anchor x="135" y="0" name="bottom"/>
  <anchor x="138" y="700" name="top"/>
  <outline>
    <contour>
      <point x="53" y="0" type="line"/>
      <point x="77" y="0" type="line"/>
      <point x="77" y="700" type="line"/>
      <point x="76" y="700" type="line"/>
      <point x="53" y="677" type="line"/>
    </contour>
    <contour>
      <point x="77" y="353" type="line"/>
      <point x="196" y="353" type="line"/>
      <point x="196" y="377" type="line"/>
      <point x="77" y="377" type="line"/>
    </contour>
    <contour>
      <point x="196" y="0" type="line"/>
      <point x="220" y="0" type="line"/>
      <point x="220" y="676" type="line"/>
      <point x="196" y="676" type="line"/>
    </contour>
    <contour>
      <point x="77" y="676" type="line"/>
      <point x="220" y="676" type="line"/>
      <point x="220" y="677" type="line"/>
      <point x="197" y="700" type="line"/>
      <point x="77" y="700" type="line"/>
    </contour>
    <contour>
      <point x="123" y="739" type="line"/>
      <point x="146" y="739" type="line"/>
      <point x="179" y="846" type="line"/>
      <point x="179" y="847" type="line"/>
      <point x="161" y="870" type="line"/>
      <point x="123" y="740" type="line"/>
    </contour>
    <contour>
      <point x="102" y="846" type="line"/>
      <point x="179" y="846" type="line"/>
      <point x="179" y="847" type="line"/>
      <point x="161" y="870" type="line"/>
      <point x="102" y="870" type="line"/>
    </contour>
  </outline>
</glyph>
<glyph name="acircumflexacute.color4" format="2">
  <advance width="600"/>
  <unicode hex="1EA5"/>
  <outline>
    <contour>
      <point x="136" y="540" type="line"/>
      <point x="160" y="540" type="line"/>
      <point x="160" y="541" type="line"/>
      <point x="116" y="630" type="line"/>
      <point x="115" y="630" type="line"/>
      <point x="92" y="630" type="line"/>
    </contour>
  </outline>
</glyph>
<glyph name="Acircumflexgrave.color4" format="2">
  <advance width="600"/>
  <unicode hex="1EA6"/>
  <outline>
    <contour>
      <point x="172" y="744" type="line"/>
      <point x="196" y="744" type="line"/>
      <point x="196" y="745" type="line"/>
      <point x="152" y="834" type="line"/>
      <point x="128" y="834" type="line"/>
    </contour>
  </outline>
</glyph>
<glyph name="acircumflexhookabove.color0" format="2">
  <advance width="600"/>
  <unicode hex="1EA9"/>
  <outline>
    <contour>
      <point x="74" y="476" type="line"/>
      <point x="147" y="476" type="line"/>
      <point x="147" y="477" type="line"/>
      <point x="124" y="500" type="line"/>
      <point x="74" y="500" type="line"/>
    </contour>
  </outline>
</glyph>
<glyph name="acircumflexhookabove.color4" format="2">
  <advance width="600"/>
  <unicode hex="1EA9"/>
  <outline>
    <contour>
      <point x="136" y="540" type="line"/>
      <point x="160" y="540" type="line"/>
      <point x="160" y="541" type="line"/>
      <point x="116" y="630" type="line"/>
      <point x="115" y="630" type="line"/>
      <point x="92" y="630" type="line"/>
    </contour>
  </outline>
</glyph>
<glyph name="acircumflexhookabove.color6" format="2">
  <advance width="600"/>
  <unicode hex="1EA9"/>
  <outline>
    <contour>
      <point x="74" y="746" type="line"/>
      <point x="151" y="746" type="line"/>
      <point x="151" y="747" type="line"/>
      <point x="133" y="770" type="line"/>
      <point x="74" y="770" type="line"/>
    </contour>
  </outline>
</glyph>
<glyph name="acircumflexhookabove.color7" format="2">
  <advance width="600"/>
  <unicode hex="1EA9"/>
  <outline>
    <contour>
      <point x="95" y="675" type="line"/>
      <point x="118" y="675" type="line"/>
      <point x="151" y="746" type="line"/>
      <point x="151" y="747" type="line"/>
      <point x="133" y="770" type="line"/>
      <point x="95" y="676" type="line"/>
    </contour>
  </outline>
</glyph>
<glyph name="acircumflexhookabove" format="2">
  <advance width="197"/>
  <unicode hex="1EA9"/>
  <anchor x="102" y="0" name="bottom"/>
  <anchor x="102" y="500" name="top"/>
  <outline>
    <contour>
      <point x="74" y="476" type="line"/>
      <point x="147" y="476" type="line"/>
      <point x="147" y="477" type="line"/>
      <point x="124" y="500" type="line"/>
      <point x="74" y="500" type="line"/>
    </contour>
    <contour>
      <point x="73" y="0" type="line"/>
      <point x="123" y="0" type="line"/>
      <point x="123" y="24" type="line"/>
      <point x="50" y="24" type="line"/>
      <point x="50" y="23" type="line"/>
    </contour>
    <contour>
      <point x="50" y="24" type="line"/>
      <point x="74" y="24" type="line"/>
      <point x="74" y="500" type="line"/>
      <point x="73" y="500" type="line"/>
      <point x="50" y="477" type="line"/>
    </contour>
    <contour>
      <point x="123" y="0" type="line"/>
      <point x="147" y="0" type="line"/>
      <point x="147" y="476" type="line"/>
      <point x="123" y="476" type="line"/>
    </contour>
    <contour>
      <point x="136" y="540" type="line"/>
      <point x="160" y="540" type="line"/>
      <point x="160" y="541" type="line"/>
      <point x="116" y="630" type="line"/>
      <point x="115" y="630" type="line"/>
      <point x="92" y="630" type="line"/>
    </contour>
    <contour>
      <point x="46" y="540" type="line"/>
      <point x="70" y="540" type="line"/>
      <point x="115" y="630" type="line"/>
      <point x="92" y="630" type="line"/>
      <point x="46" y="541" type="line"/>
    </contour>
    <contour>
      <point x="74" y="746" type="line"/>
      <point x="151" y="746" type="line"/>
      <point x="151" y="747" type="line"/>
      <point x="133" y="770" type="line"/>
      <point x="74" y="770" type="line"/>
    </contour>
    <contour>
      <point x="95" y="675" type="line"/>
      <point x="118" y="675" type="line"/>
      <point x="151" y="746" type="line"/>
      <point x="151" y="747" type="line"/>
      <point x="133" y="770" type="line"/>
      <point x="95" y="676" type="line"/>
    </contour>
  </outline>
</glyph>
<glyph name="Acircumflextilde" format="2">
  <advance width="273"/>
  <unicode hex="1EAA"/>
  <anchor x="135" y="0" name="bottom"/>
  <anchor x="138" y="700" name="top"/>
  <outline>
    <contour>
      <point x="53" y="0" type="line"/>
      <point x="77" y="0" type="line"/>
      <point x="77" y="700" type="line"/>
      <point x="76" y="700" type="line"/>
      <point x="53" y="677" type="line"/>
    </contour>
    <contour>
      <point x="77" y="353" type="line"/>
      <point x="196" y="353" type="line"/>
      <point x="196" y="377" type="line"/>
      <point x="77" y="377" type="line"/>
    </contour>
    <contour>
      <point x="196" y="0" type="line"/>
      <point x="220" y="0" type="line"/>
      <point x="220" y="676" type="line"/>
      <point x="196" y="676" type="line"/>
    </contour>
    <contour>
      <point x="77" y="676" type="line"/>
      <point x="220" y="676" type="line"/>
      <point x="220" y="677" type="line"/>
      <point x="197" y="700" type="line"/>
      <point x="77" y="700" type="line"/>
    </contour>
    <contour>
      <point x="174" y="757" type="line"/>
      <point x="204" y="757" type="line"/>
      <point x="204" y="758" type="line"/>
      <point x="150" y="832" type="line"/>
      <point x="120" y="832" type="line"/>
    </contour>
    <contour>
      <point x="64" y="757" type="line"/>
      <point x="94" y="757" type="line"/>
      <point x="150" y="832" type="line"/>
      <point x="120" y="832" type="line"/>
      <point x="64" y="758" type="line"/>
    </contour>
    <contour>
      <point x="72" y="869" type="line"/>
      <point x="96" y="869" type="line"/>
      <point x="96" y="921" type="line"/>
      <point x="72" y="920" type="line"/>
    </contour>
    <contour>
      <point x="168" y="878" type="line"/>
      <point x="192" y="878" type="line"/>
      <point x="192" y="930" type="line"/>
      <point x="168" y="930" type="line"/>
    </contour>
    <contour>
      <point x="168" y="868" type="line"/>
      <point x="169" y="868" type="line"/>
      <point x="191" y="877" type="line"/>
      <point x="191" y="878" type="line"/>
      <point x="95" y="930" type="line"/>
      <point x="94" y="930" type="line"/>
      <point x="72" y="921" type="line"/>
      <point x="72" y="920" type="line"/>
    </contour>
  </outline>
</glyph>
<glyph name="acircumflexdotbelow" format="2">
  <advance width="197"/>
  <unicode hex="1EAD"/>
  <anchor x="102" y="0" name="bottom"/>
  <anchor x="109" y="602" name="top"/>
  <outline>
    <contour>
      <point x="74" y="476" type="line"/>
      <point x="147" y="476" type="line"/>
      <point x="147" y="477" type="line"/>
      <point x="124" y="500" type="line"/>
      <point x="74" y="500" type="line"/>
    </contour>
    <contour>
      <point x="73" y="0" type="line"/>
      <point x="123" y="0" type="line"/>
      <point x="123" y="24" type="line"/>
      <point x="50" y="24" type="line"/>
      <point x="50" y="23" type="line"/>
    </contour>
    <contour>
      <point x="50" y="24" type="line"/>
      <point x="74" y="24" type="line"/>
      <point x="74" y="500" type="line"/>
      <point x="73" y="500" type="line"/>
      <point x="50" y="477" type="line"/>
    </contour>
    <contour>
      <point x="123" y="0" type="line"/>
      <point x="147" y="0" type="line"/>
      <point x="147" y="476" type="line"/>
      <point x="123" y="476" type="line"/>
    </contour>
    <contour>
      <point x="88" y="-119" type="line"/>
      <point x="118" y="-119" type="line"/>
      <point x="118" y="-85" type="line"/>
      <point x="88" y="-85" type="line"/>
    </contour>
    <contour>
      <point x="136" y="590" type="line"/>
      <point x="160" y="590" type="line"/>
      <point x="160" y="591" type="line"/>
      <point x="116" y="680" type="line"/>
      <point x="92" y="680" type="line"/>
    </contour>
    <contour>
      <point x="46" y="590" type="line"/>
      <point x="70" y="590" type="line"/>
      <point x="115" y="680" type="line"/>
      <point x="92" y="680" type="line"/>
      <point x="46" y="591" type="line"/>
    </contour>
  </outline>
</glyph>
<glyph name="abreveacute.color4" format="2">
  <advance width="600"/>
  <unicode hex="1EAF"/>
  <outline>
    <contour>
      <point x="75" y="558" type="line"/>
      <point x="127" y="558" type="line"/>
      <point x="140" y="580" type="line"/>
      <point x="62" y="580" type="line"/>
    </contour>
  </outline>
</glyph>
<glyph name="abreveacute.color7" format="2">
  <advance width="600"/>
  <unicode hex="1EAF"/>
  <outline>
    <contour>
      <point x="114" y="580" type="line"/>
      <point x="140" y="580" type="line"/>
      <point x="169" y="629" type="line"/>
      <point x="169" y="630" type="line"/>
      <point x="143" y="630" type="line"/>
    </contour>
  </outline>
</glyph>
<glyph name="Abrevegrave.color6" format="2">
  <advance width="600"/>
  <unicode hex="1EB0"/>
  <outline>
    <contour>
      <point x="129" y="815" type="line"/>
      <point x="152" y="815" type="line"/>
      <point x="127" y="900" type="line"/>
      <point x="94" y="900" type="line"/>
      <point x="94" y="899" type="line"/>
    </contour>
  </outline>
</glyph>
<glyph name="Abrevegrave.color7" format="2">
  <advance width="600"/>
  <unicode hex="1EB0"/>
  <outline>
    <contour>
      <point x="152" y="763" type="line"/>
      <point x="184" y="763" type="line"/>
      <point x="215" y="799" type="line"/>
      <point x="215" y="800" type="line"/>
      <point x="183" y="800" type="line"/>
    </contour>
  </outline>
</glyph>
<glyph name="Abrevegrave" format="2">
  <advance width="273"/>
  <unicode hex="1EB0"/>
  <anchor x="135" y="0" name="bottom"/>
  <anchor x="138" y="700" name="top"/>
  <outline>
    <contour>
      <point x="53" y="0" type="line"/>
      <point x="77" y="0" type="line"/>
      <point x="77" y="700" type="line"/>
      <point x="76" y="700" type="line"/>
      <point x="53" y="677" type="line"/>
    </contour>
    <contour>
      <point x="77" y="353" type="line"/>
      <point x="196" y="353" type="line"/>
      <point x="196" y="377" type="line"/>
      <point x="77" y="377" type="line"/>
    </contour>
    <contour>
      <point x="196" y="0" type="line"/>
      <point x="220" y="0" type="line"/>
      <point x="220" y="676" type="line"/>
      <point x="196" y="676" type="line"/>
    </contour>
    <contour>
      <point x="77" y="676" type="line"/>
      <point x="220" y="676" type="line"/>
      <point x="220" y="677" type="line"/>
      <point x="197" y="700" type="line"/>
      <point x="77" y="700" type="line"/>
    </contour>
    <contour>
      <point x="109" y="741" type="line"/>
      <point x="165" y="741" type="line"/>
      <point x="184" y="763" type="line"/>
      <point x="90" y="763" type="line"/>
    </contour>
    <contour>
      <point x="90" y="763" type="line"/>
      <point x="122" y="763" type="line"/>
      <point x="91" y="800" type="line"/>
      <point x="59" y="800" type="line"/>
      <point x="59" y="799" type="line"/>
    </contour>
    <contour>
      <point x="129" y="815" type="line"/>
      <point x="152" y="815" type="line"/>
      <point x="127" y="900" type="line"/>
      <point x="94" y="900" type="line"/>
      <point x="94" y="899" type="line"/>
    </contour>
    <contour>
      <point x="152" y="763" type="line"/>
      <point x="184" y="763" type="line"/>
      <point x="215" y="799" type="line"/>
      <point x="215" y="800" type="line"/>
      <point x="183" y="800" type="line"/>
    </contour>
  </outline>
</glyph>
<glyph name="abrevegrave.color1" format="2">
  <advance width="600"/>
  <unicode hex="1EB1"/>
  <outline>
    <contour>
      <point x="73" y="0" type="line"/>
      <point x="123" y="0" type="line"/>
      <point x="123" y="24" type="line"/>
      <point x="50" y="24" type="line"/>
      <point x="50" y="23" type="line"/>
    </contour>
  </outline>
</glyph>
<glyph name="abrevegrave.color6" format="2">
  <advance width="600"/>
  <unicode hex="1EB1"/>
  <outline>
    <contour>
      <point x="92" y="637" type="line"/>
      <point x="114" y="637" type="line"/>
      <point x="89" y="752" type="line"/>
      <point x="60" y="752" type="line"/>
      <point x="60" y="751" type="line"/>
    </contour>
  </outline>
</glyph>
<glyph name="abrevehookabove.color6" format="2">
  <advance width="600"/>
  <unicode hex="1EB3"/>
  <outline>
    <contour>
      <point x="66" y="709" type="line"/>
      <point x="143" y="709" type="line"/>
      <point x="143" y="710" type="line"/>
      <point x="125" y="733" type="line"/>
      <point x="66" y="733" type="line"/>
    </contour>
  </outline>
</glyph>
<glyph name="Abrevetilde.color4" format="2">
  <advance width="600"/>
  <unicode hex="1EB4"/>
  <outline>
    <contour>
      <point x="174" y="870" type="line"/>
      <point x="198" y="870" type="line"/>
      <point x="198" y="922" type="line"/>
      <point x="174" y="922" type="line"/>
    </contour>
  </outline>
</glyph>
<glyph name="Abrevetilde.color6" format="2">
  <advance width="600"/>
  <unicode hex="1EB4"/>
  <outline>
    <contour>
      <point x="174" y="860" type="line"/>
      <point x="175" y="860" type="line"/>
      <point x="197" y="869" type="line"/>
      <point x="197" y="870" type="line"/>
      <point x="101" y="922" type="line"/>
      <point x="100" y="922" type="line"/>
      <point x="78" y="913" type="line"/>
      <point x="78" y="912" type="line"/>
    </contour>
  </outline>
</glyph>
<glyph name="abrevedotbelow.color6" format="2">
  <advance width="600"/>
  <unicode hex="1EB7"/>
  <outline>
    <contour>
      <point x="62" y="622" type="line"/>
      <point x="88" y="622" type="line"/>
      <point x="59" y="672" type="line"/>
      <point x="33" y="672" type="line"/>
      <point x="33" y="671" type="line"/>
    </contour>
  </outline>
</glyph>
<glyph name="Edotbelow" format="2">
  <advance width="240"/>
  <unicode hex="1EB8"/>
  <anchor x="135" y="0" name="bottom"/>
  <anchor x="138" y="700" name="top"/>
  <outline>
    <contour>
      <point x="77" y="0" type="line"/>
      <point x="220" y="0" type="line"/>
      <point x="220" y="24" type="line"/>
      <point x="53" y="24" type="line"/>
      <point x="53" y="23" type="line"/>
    </contour>
    <contour>
      <point x="53" y="24" type="line"/>
      <point x="77" y="24" type="line"/>
      <point x="77" y="700" type="line"/>
      <point x="53" y="700" type="line"/>
    </contour>
    <contour>
      <point x="77" y="353" type="line"/>
      <point x="196" y="353" type="line"/>
      <point x="196" y="377" type="line"/>
      <point x="77" y="377" type="line"/>
    </contour>
    <contour>
      <point x="77" y="676" type="line"/>
      <point x="197" y="676" type="line"/>
      <point x="220" y="699" type="line"/>
      <point x="220" y="700" type="line"/>
      <point x="77" y="700" type="line"/>
    </contour>
    <contour>
      <point x="121" y="-119" type="line"/>
      <point x="151" y="-119" type="line"/>
      <point x="151" y="-85" type="line"/>
      <point x="121" y="-85" type="line"/>
    </contour>
  </outline>
</glyph>
<glyph name="Ehookabove.color0" format="2">
  <advance width="600"/>
  <unicode hex="1EBA"/>
  <outline>
    <contour>
      <point x="77" y="0" type="line"/>
      <point x="220" y="0" type="line"/>
      <point x="220" y="24" type="line"/>
      <point x="53" y="24" type="line"/>
      <point x="53" y="23" type="line"/>
    </contour>
  </outline>
</glyph>
<glyph name="ehookabove.color2" format="2">
  <advance width="600"/>
  <unicode hex="1EBB"/>
  <outline>
    <contour>
      <point x="74" y="202" type="line"/>
      <point x="123" y="202" type="line"/>
      <point x="123" y="226" type="line"/>
      <point x="74" y="226" type="line"/>
    </contour>
  </outline>
</glyph>
<glyph name="Etilde.color5" format="2">
  <advance width="600"/>
  <unicode hex="1EBC"/>
  <outline>
    <contour>
      <point x="173" y="795" type="line"/>
      <point x="197" y="795" type="line"/>
      <point x="197" y="847" type="line"/>
      <point x="173" y="847" type="line"/>
    </contour>
  </outline>
</glyph>
<glyph name="etilde" format="2">
  <advance width="197"/>
  <unicode hex="1EBD"/>
  <anchor x="101" y="0" name="bottom"/>
  <anchor x="100" y="500" name="top"/>
  <outline>
    <contour>
      <point x="73" y="0" type="line"/>
      <point x="124" y="0" type="line"/>
      <point x="147" y="23" type="line"/>
      <point x="147" y="24" type="line"/>
      <point x="50" y="24" type="line"/>
      <point x="50" y="23" type="line"/>
    </contour>
    <contour>
      <point x="50" y="24" type="line"/>
      <point x="74" y="24" type="line"/>
      <point x="74" y="500" type="line"/>
      <point x="73" y="500" type="line"/>
      <point x="50" y="477" type="line"/>
    </contour>
    <contour>
      <point x="74" y="202" type="line"/>
      <point x="123" y="202" type="line"/>
      <point x="123" y="226" type="line"/>
      <point x="74" y="226" type="line"/>
    </contour>
    <contour>
      <point x="74" y="476" type="line"/>
      <point x="147" y="476" type="line"/>
      <point x="147" y="477" type="line"/>
      <point x="124" y="500" type="line"/>
      <point x="74" y="500" type="line"/>
    </contour>
    <contour>
      <point x="123" y="202" type="line"/>
      <point x="124" y="202" type="line"/>
      <point x="147" y="225" type="line"/>
      <point x="147" y="476" type="line"/>
      <point x="123" y="476" type="line"/>
    </contour>
    <contour>
      <point x="50" y="581" type="line"/>
      <point x="70" y="581" type="line"/>
      <point x="70" y="633" type="line"/>
      <point x="50" y="632" type="line"/>
    </contour>
    <contour>
      <point x="130" y="590" type="line"/>
      <point x="150" y="590" type="line"/>
      <point x="150" y="642" type="line"/>
      <point x="130" y="642" type="line"/>
    </contour>
    <contour>
      <point x="129" y="580" type="line"/>
      <point x="130" y="580" type="line"/>
      <point x="150" y="589" type="line"/>
      <point x="150" y="590" type="line"/>
      <point x="71" y="642" type="line"/>
      <point x="70" y="642" type="line"/>
      <point x="50" y="633" type="line"/>
      <point x="50" y="632" type="line"/>
    </contour>
  </outline>
</glyph>
<glyph name="ecircumflexacute.color2" format="2">
  <advance width="600"/>
  <unicode hex="1EBF"/>
  <outline>
    <contour>
      <point x="74" y="202" type="line"/>
      <point x="123" y="202" type="line"/>
      <point x="123" y="226" type="line"/>
      <point x="74" y="226" type="line"/>
    </contour>
  </outline>
</glyph>
<glyph name="ecircumflexhookabove.color0" format="2">
  <advance width="600"/>
  <unicode hex="1EC3"/>
  <outline>
    <contour>
      <point x="73" y="0" type="line"/>
      <point x="124" y="0" type="line"/>
      <point x="147" y="23" type="line"/>
      <point x="147" y="24" type="line"/>
      <point x="50" y="24" type="line"/>
      <point x="50" y="23" type="line"/>
    </contour>
  </outline>
</glyph>
<glyph name="ecircumflexhookabove.color1" format="2">
  <advance width="600"/>
  <unicode hex="1EC3"/>
  <outline>
    <contour>
      <point x="50" y="24" type="line"/>
      <point x="74" y="24" type="line"/>
      <point x="74" y="500" type="line"/>
      <point x="73" y="500" type="line"/>
      <point x="50" y="477" type="line"/>
    </contour>
  </outline>
</glyph>
<glyph name="ecircumflexhookabove.color3" format="2">
  <advance width="600"/>
  <unicode hex="1EC3"/>
  <outline>
    <contour>
      <point x="74" y="476" type="line"/>
      <point x="147" y="476" type="line"/>
      <point x="147" y="477" type="line"/>
      <point x="124" y="500" type="line"/>
      <point x="74" y="500" type="line"/>
    </contour>
  </outline>
</glyph>
<glyph name="ecircumflexhookabove.color4" format="2">
  <advance width="600"/>
  <unicode hex="1EC3"/>
  <outline>
    <contour>
      <point x="123" y="202" type="line"/>
      <point x="124" y="202" type="line"/>
      <point x="147" y="225" type="line"/>
      <point x="147" y="476" type="line"/>
      <point x="123" y="476" type="line"/>
    </contour>
  </outline>
</glyph>
<glyph name="ecircumflexhookabove.color5" format="2">
  <advance width="600"/>
  <unicode hex="1EC3"/>
  <outline>
    <contour>
      <point x="134" y="540" type="line"/>
      <point x="158" y="540" type="line"/>
      <point x="158" y="541" type="line"/>
      <point x="114" y="630" type="line"/>
      <point x="113" y="630" type="line"/>
      <point x="90" y="630" type="line"/>
    </contour>
  </outline>
</glyph>
<glyph name="ecircumflexhookabove.color6" format="2">
  <advance width="600"/>
  <unicode hex="1EC3"/>
  <outline>
    <contour>
      <point x="44" y="540" type="line"/>
      <point x="68" y="540" type="line"/>
      <point x="113" y="630" type="line"/>
      <point x="90" y="630" type="line"/>
      <point x="44" y="541" type="line"/>
    </contour>
  </outline>
</glyph>
<glyph name="ecircumflexhookabove.color8" format="2">
  <advance width="600"/>
  <unicode hex="1EC3"/>
  <outline>
    <contour>
      <point x="93" y="675" type="line"/>
      <point x="116" y="675" type="line"/>
      <point x="149" y="746" type="line"/>
      <point x="149" y="747" type="line"/>
      <point x="131" y="770" type="line"/>
      <point x="93" y="676" type="line"/>
    </contour>
  </outline>
</glyph>
<glyph name="ecircumflexhookabove" format="2">
  <advance width="197"/>
  <unicode hex="1EC3"/>
  <anchor x="101" y="0" name="bottom"/>
  <anchor x="100" y="500" name="top"/>
  <outline>
    <contour>
      <point x="73" y="0" type="line"/>
      <point x="124" y="0" type="line"/>
      <point x="147" y="23" type="line"/>
      <point x="147" y="24" type="line"/>
      <point x="50" y="24" type="line"/>
      <point x="50" y="23" type="line"/>
    </contour>
    <contour>
      <point x="50" y="24" type="line"/>
      <point x="74" y="24" type="line"/>
      <point x="74" y="500" type="line"/>
      <point x="73" y="500" type="line"/>
      <point x="50" y="477" type="line"/>
    </contour>
    <contour>
      <point x="74" y="202" type="line"/>
      <point x="123" y="202" type="line"/>
      <point x="123" y="226" type="line"/>
      <point x="74" y="226" type="line"/>
    </contour>
    <contour>
      <point x="74" y="476" type="line"/>
      <point x="147" y="476" type="line"/>
      <point x="147" y="477" type="line"/>
      <point x="124" y="500" type="line"/>
      <point x="74" y="500" type="line"/>
    </contour>
    <contour>
      <point x="123" y="202" type="line"/>
      <point x="124" y="202" type="line"/>
      <point x="147" y="225" type="line"/>
      <point x="147" y="476" type="line"/>
      <point x="123" y="476" type="line"/>
    </contour>
    <contour>
      <point x="134" y="540" type="line"/>
      <point x="158" y="540" type="line"/>
      <point x="158" y="541" type="line"/>
      <point x="114" y="630" type="line"/>
      <point x="113" y="630" type="line"/>
      <point x="90" y="630" type="line"/>
    </contour>
    <contour>
      <point x="44" y="540" type="line"/>
      <point x="68" y="540" type="line"/>
      <point x="113" y="630" type="line"/>
      <point x="90" y="630" type="line"/>
      <point x="44" y="541" type="line"/>
    </contour>
    <contour>
      <point x="72" y="746" type="line"/>
      <point x="149" y="746" type="line"/>
      <point x="149" y="747" type="line"/>
      <point x="131" y="770" type="line"/>
      <point x="72" y="770" type="line"/>
    </contour>
    <contour>
      <point x="93" y="675" type="line"/>
      <point x="116" y="675" type="line"/>
      <point x="149" y="746" type="line"/>
      <point x="149" y="747" type="line"/>
      <point x="131" y="770" type="line"/>
      <point x="93" y="676" type="line"/>
    </contour>
  </outline>
</glyph>
<glyph name="ecircumflextilde.color9" format="2">
  <advance width="600"/>
  <unicode hex="1EC5"/>
  <outline>
    <contour>
      <point x="136" y="662" type="line"/>
      <point x="137" y="662" type="line"/>
      <point x="157" y="671" type="line"/>
      <point x="157" y="672" type="line"/>
      <point x="78" y="724" type="line"/>
      <point x="77" y="724" type="line"/>
      <point x="57" y="715" type="line"/>
      <point x="57" y="714" type="line"/>
    </contour>
  </outline>
</glyph>
<glyph name="Ihookabove.color5" format="2">
  <advance width="600"/>
  <unicode hex="1EC8"/>
  <outline>
    <contour>
      <point x="100" y="739" type="line"/>
      <point x="123" y="739" type="line"/>
      <point x="156" y="846" type="line"/>
      <point x="156" y="847" type="line"/>
      <point x="138" y="870" type="line"/>
      <point x="100" y="740" type="line"/>
    </contour>
  </outline>
</glyph>
<glyph name="ihookabove.color1" format="2">
  <advance width="600"/>
  <unicode hex="1EC9"/>
  <outline>
    <contour>
      <point x="28" y="654" type="line"/>
      <point x="105" y="654" type="line"/>
      <point x="105" y="655" type="line"/>
      <point x="87" y="678" type="line"/>
      <point x="28" y="678" type="line"/>
    </contour>
  </outline>
</glyph>
<glyph name="ihookabove" format="2">
  <advance width="130"/>
  <unicode hex="1EC9"/>
  <outline>
    <contour>
      <point x="49" y="583" type="line"/>
      <point x="72" y="583" type="line"/>
      <point x="105" y="654" type="line"/>
      <point x="105" y="655" type="line"/>
      <point x="87" y="678" type="line"/>
      <point x="49" y="584" type="line"/>
    </contour>
    <contour>
      <point x="28" y="654" type="line"/>
      <point x="105" y="654" type="line"/>
      <point x="105" y="655" type="line"/>
      <point x="87" y="678" type="line"/>
      <point x="28" y="678" type="line"/>
    </contour>
    <component base="idotless"/>
  </outline>
</glyph>
<glyph name="idotbelow.color0" format="2">
  <advance width="600"/>
  <unicode hex="1ECB"/>
  <outline>
    <contour>
      <point x="50" y="0" type="line"/>
      <point x="74" y="0" type="line"/>
      <point x="74" y="503" type="line"/>
      <point x="73" y="503" type="line"/>
      <point x="50" y="480" type="line"/>
    </contour>
  </outline>
</glyph>
<glyph name="idotbelow.color1" format="2">
  <advance width="600"/>
  <unicode hex="1ECB"/>
  <outline>
    <contour>
      <point x="50" y="542" type="line"/>
      <point x="51" y="542" type="line"/>
      <point x="74" y="565" type="line"/>
      <point x="74" y="615" type="line"/>
      <point x="50" y="615" type="line"/>
    </contour>
  </outline>
</glyph>
<glyph name="Ohookabove.color4" format="2">
  <advance width="600"/>
  <unicode hex="1ECE"/>
  <outline>
    <contour>
      <point x="123" y="739" type="line"/>
      <point x="146" y="739" type="line"/>
      <point x="179" y="846" type="line"/>
      <point x="179" y="847" type="line"/>
      <point x="161" y="870" type="line"/>
      <point x="123" y="740" type="line"/>
    </contour>
  </outline>
</glyph>
<glyph name="Ohookabove.color5" format="2">
  <advance width="600"/>
  <unicode hex="1ECE"/>
  <outline>
    <contour>
      <point x="102" y="846" type="line"/>
      <point x="179" y="846" type="line"/>
      <point x="179" y="847" type="line"/>
      <point x="161" y="870" type="line"/>
      <point x="102" y="870" type="line"/>
    </contour>
  </outline>
</glyph>
<glyph name="ocircumflexacute.color6" format="2">
  <advance width="600"/>
  <unicode hex="1ED1"/>
  <outline>
    <contour>
      <point x="88" y="663" type="line"/>
      <point x="112" y="663" type="line"/>
      <point x="144" y="771" type="line"/>
      <point x="144" y="772" type="line"/>
      <point x="113" y="772" type="line"/>
    </contour>
  </outline>
</glyph>
<glyph name="ocircumflexgrave.color6" format="2">
  <advance width="600"/>
  <unicode hex="1ED3"/>
  <outline>
    <contour>
      <point x="90" y="662" type="line"/>
      <point x="114" y="662" type="line"/>
      <point x="89" y="772" type="line"/>
      <point x="58" y="772" type="line"/>
      <point x="58" y="771" type="line"/>
    </contour>
  </outline>
</glyph>
<glyph name="ocircumflexhookabove.color0" format="2">
  <advance width="600"/>
  <unicode hex="1ED5"/>
  <outline>
    <contour>
      <point x="74" y="476" type="line"/>
      <point x="148" y="476" type="line"/>
      <point x="148" y="477" type="line"/>
      <point x="125" y="500" type="line"/>
      <point x="74" y="500" type="line"/>
    </contour>
  </outline>
</glyph>
<glyph name="ocircumflexhookabove.color1" format="2">
  <advance width="600"/>
  <unicode hex="1ED5"/>
  <outline>
    <contour>
      <point x="73" y="0" type="line"/>
      <point x="124" y="0" type="line"/>
      <point x="124" y="24" type="line"/>
      <point x="50" y="24" type="line"/>
      <point x="50" y="23" type="line"/>
    </contour>
  </outline>
</glyph>
<glyph name="ocircumflexhookabove.color4" format="2">
  <advance width="600"/>
  <unicode hex="1ED5"/>
  <outline>
    <contour>
      <point x="133" y="540" type="line"/>
      <point x="157" y="540" type="line"/>
      <point x="157" y="541" type="line"/>
      <point x="113" y="630" type="line"/>
      <point x="112" y="630" type="line"/>
      <point x="89" y="630" type="line"/>
    </contour>
  </outline>
</glyph>
<glyph name="Ocircumflextilde.color5" format="2">
  <advance width="600"/>
  <unicode hex="1ED6"/>
  <outline>
    <contour>
      <point x="64" y="757" type="line"/>
      <point x="94" y="757" type="line"/>
      <point x="150" y="832" type="line"/>
      <point x="120" y="832" type="line"/>
      <point x="64" y="758" type="line"/>
    </contour>
  </outline>
</glyph>
<glyph name="ocircumflextilde.color6" format="2">
  <advance width="600"/>
  <unicode hex="1ED7"/>
  <outline>
    <contour>
      <point x="56" y="663" type="line"/>
      <point x="76" y="663" type="line"/>
      <point x="76" y="715" type="line"/>
      <point x="56" y="714" type="line"/>
    </contour>
  </outline>
</glyph>
<glyph name="ocircumflextilde" format="2">
  <advance width="198"/>
  <unicode hex="1ED7"/>
  <anchor x="99" y="0" name="bottom"/>
  <anchor x="124" y="500" name="horn"/>
  <anchor x="99" y="500" name="top"/>
  <outline>
    <contour>
      <point x="74" y="476" type="line"/>
      <point x="148" y="476" type="line"/>
      <point x="148" y="477" type="line"/>
      <point x="125" y="500" type="line"/>
      <point x="74" y="500" type="line"/>
    </contour>
    <contour>
      <point x="73" y="0" type="line"/>
      <point x="124" y="0" type="line"/>
      <point x="124" y="24" type="line"/>
      <point x="50" y="24" type="line"/>
      <point x="50" y="23" type="line"/>
    </contour>
    <contour>
      <point x="50" y="24" type="line"/>
      <point x="74" y="24" type="line"/>
      <point x="74" y="500" type="line"/>
      <point x="73" y="500" type="line"/>
      <point x="50" y="477" type="line"/>
    </contour>
    <contour>
      <point x="124" y="0" type="line"/>
      <point x="125" y="0" type="line"/>
      <point x="148" y="23" type="line"/>
      <point x="148" y="476" type="line"/>
      <point x="124" y="476" type="line"/>
    </contour>
    <contour>
      <point x="133" y="540" type="line"/>
      <point x="157" y="540" type="line"/>
      <point x="157" y="541" type="line"/>
      <point x="113" y="630" type="line"/>
      <point x="112" y="630" type="line"/>
      <point x="89" y="630" type="line"/>
    </contour>
    <contour>
      <point x="43" y="540" type="line"/>
      <point x="67" y="540" type="line"/>
      <point x="112" y="630" type="line"/>
      <point x="89" y="630" type="line"/>
      <point x="43" y="541" type="line"/>
    </contour>
    <contour>
      <point x="56" y="663" type="line"/>
      <point x="76" y="663" type="line"/>
      <point x="76" y="715" type="line"/>
      <point x="56" y="714" type="line"/>
    </contour>
    <contour>
      <point x="137" y="672" type="line"/>
      <point x="157" y="672" type="line"/>
      <point x="157" y="724" type="line"/>
      <point x="137" y="724" type="line"/>
    </contour>
    <contour>
      <point x="135" y="662" type="line"/>
      <point x="136" y="662" type="line"/>
      <point x="156" y="671" type="line"/>
      <point x="156" y="672" type="line"/>
      <point x="77" y="724" type="line"/>
      <point x="76" y="724" type="line"/>
      <point x="56" y="715" type="line"/>
      <point x="56" y="714" type="line"/>
    </contour>
  </outline>
</glyph>
<glyph name="ohornacute.color5" format="2">
  <advance width="600"/>
  <unicode hex="1EDB"/>
  <outline>
    <contour>
      <point x="147" y="476" type="line"/>
      <point x="155" y="476" type="line"/>
      <point x="155" y="500" type="line"/>
      <point x="124" y="500" type="line"/>
    </contour>
  </outline>
</glyph>
<glyph name="ohorngrave.color4" format="2">
  <advance width="600"/>
  <unicode hex="1EDD"/>
  <outline>
    <contour>
      <point x="155" y="476" type="line"/>
      <point x="156" y="476" type="line"/>
      <point x="179" y="499" type="line"/>
      <point x="179" y="567" type="line"/>
      <point x="155" y="567" type="line"/>
    </contour>
  </outline>
</glyph>
<glyph name="Ohornhookabove.color4" format="2">
  <advance width="600"/>
  <unicode hex="1EDE"/>
  <outline>
    <contour>
      <point x="228" y="676" type="line"/>
      <point x="229" y="676" type="line"/>
      <point x="252" y="699" type="line"/>
      <point x="252" y="767" type="line"/>
      <point x="228" y="767" type="line"/>
    </contour>
  </outline>
</glyph>
<glyph name="Ohornhookabove.color7" format="2">
  <advance width="600"/>
  <unicode hex="1EDE"/>
  <outline>
    <contour>
      <point x="102" y="846" type="line"/>
      <point x="179" y="846" type="line"/>
      <point x="179" y="847" type="line"/>
      <point x="161" y="870" type="line"/>
      <point x="102" y="870" type="line"/>
    </contour>
  </outline>
</glyph>
<glyph name="uhornacute.color4" format="2">
  <advance width="600"/>
  <unicode hex="1EE9"/>
  <outline>
    <contour>
      <point x="146" y="476" type="line"/>
      <point x="154" y="476" type="line"/>
      <point x="154" y="500" type="line"/>
      <point x="123" y="500" type="line"/>
    </contour>
  </outline>
</glyph>
<glyph name="Uhorngrave.color4" format="2">
  <advance width="600"/>
  <unicode hex="1EEA"/>
  <outline>
    <contour>
      <point x="219" y="676" type="line"/>
      <point x="227" y="676" type="line"/>
      <point x="227" y="700" type="line"/>
      <point x="196" y="700" type="line"/>
      <point x="196" y="699" type="line"/>
    </contour>
  </outline>
</glyph>
<glyph name="Uhornhookabove" format="2">
  <advance width="273"/>
  <unicode hex="1EEC"/>
  <anchor x="132" y="0" name="bottom"/>
  <anchor x="196" y="700" name="horn"/>
  <anchor x="143" y="701" name="top"/>
  <outline>
    <contour>
      <point x="196" y="0" type="line"/>
      <point x="197" y="0" type="line"/>
      <point x="220" y="23" type="line"/>
      <point x="220" y="700" type="line"/>
      <point x="196" y="700" type="line"/>
    </contour>
    <contour>
      <point x="76" y="0" type="line"/>
      <point x="196" y="0" type="line"/>
      <point x="196" y="24" type="line"/>
      <point x="53" y="24" type="line"/>
      <point x="53" y="23" type="line"/>
    </contour>
    <contour>
      <point x="53" y="24" type="line"/>
      <point x="77" y="24" type="line"/>
      <point x="77" y="700" type="line"/>
      <point x="53" y="700" type="line"/>
    </contour>
    <contour>
      <point x="227" y="676" type="line"/>
      <point x="228" y="676" type="line"/>
      <point x="251" y="699" type="line"/>
      <point x="251" y="767" type="line"/>
      <point x="227" y="767" type="line"/>
    </contour>
    <contour>
      <point x="219" y="676" type="line"/>
      <point x="227" y="676" type="line"/>
      <point x="227" y="700" type="line"/>
      <point x="196" y="700" type="line"/>
      <point x="196" y="699" type="line"/>
    </contour>
    <contour>
      <point x="128" y="740" type="line"/>
      <point x="151" y="740" type="line"/>
      <point x="184" y="847" type="line"/>
      <point x="184" y="848" type="line"/>
      <point x="166" y="871" type="line"/>
      <point x="128" y="741" type="line"/>
    </contour>
    <contour>
      <point x="107" y="847" type="line"/>
      <point x="184" y="847" type="line"/>
      <point x="184" y="848" type="line"/>
      <point x="166" y="871" type="line"/>
      <point x="107" y="871" type="line"/>
    </contour>
  </outline>
</glyph>
<glyph name="uhornhookabove.color5" format="2">
  <advance width="600"/>
  <unicode hex="1EED"/>
  <outline>
    <contour>
      <point x="86" y="583" type="line"/>
      <point x="109" y="583" type="line"/>
      <point x="142" y="654" type="line"/>
      <point x="142" y="655" type="line"/>
      <point x="124" y="678" type="line"/>
      <point x="86" y="584" type="line"/>
    </contour>
  </outline>
</glyph>
<glyph name="uhorndotbelow.color1" format="2">
  <advance width="600"/>
  <unicode hex="1EF1"/>
  <outline>
    <contour>
      <point x="73" y="0" type="line"/>
      <point x="123" y="0" type="line"/>
      <point x="123" y="24" type="line"/>
      <point x="50" y="24" type="line"/>
      <point x="50" y="23" type="line"/>
    </contour>
  </outline>
</glyph>
<glyph name="uhorndotbelow.color4" format="2">
  <advance width="600"/>
  <unicode hex="1EF1"/>
  <outline>
    <contour>
      <point x="146" y="476" type="line"/>
      <point x="154" y="476" type="line"/>
      <point x="154" y="500" type="line"/>
      <point x="123" y="500" type="line"/>
    </contour>
  </outline>
</glyph>
<glyph name="Ygrave.color3" format="2">
  <advance width="600"/>
  <unicode hex="1EF2"/>
  <outline>
    <contour>
      <point x="117" y="740" type="line"/>
      <point x="141" y="740" type="line"/>
      <point x="131" y="860" type="line"/>
      <point x="100" y="860" type="line"/>
      <point x="100" y="859" type="line"/>
    </contour>
  </outline>
</glyph>
<glyph name="ytilde.color5" format="2">
  <advance width="600"/>
  <unicode hex="1EF9"/>
  <outline>
    <contour>
      <point x="130" y="590" type="line"/>
      <point x="150" y="590" type="line"/>
      <point x="150" y="642" type="line"/>
      <point x="130" y="642" type="line"/>
    </contour>
  </outline>
</glyph>
<glyph name="hyphentwo" format="2">
  <advance width="149"/>
  <unicode hex="2010"/>
  <outline>
    <contour>
      <point x="53" y="323" type="line"/>
      <point x="128" y="323" type="line"/>
      <point x="128" y="357" type="line"/>
      <point x="53" y="357" type="line"/>
    </contour>
  </outline>
</glyph>
<glyph name="quotedblleft.color3" format="2">
  <advance width="600"/>
  <unicode hex="201C"/>
  <outline>
    <contour>
      <point x="74" y="623" type="line"/>
      <point x="98" y="623" type="line"/>
      <point x="108" y="702" type="line"/>
      <point x="108" y="703" type="line"/>
      <point x="87" y="703" type="line"/>
    </contour>
  </outline>
</glyph>
<glyph name="quotedblleft" format="2">
  <advance width="158"/>
  <unicode hex="201C"/>
  <outline>
    <contour>
      <point x="46" y="588" type="line"/>
      <point x="64" y="588" type="line"/>
      <point x="64" y="623" type="line"/>
      <point x="23" y="623" type="line"/>
    </contour>
    <contour>
      <point x="23" y="623" type="line"/>
      <point x="47" y="623" type="line"/>
      <point x="57" y="702" type="line"/>
      <point x="57" y="703" type="line"/>
      <point x="36" y="703" type="line"/>
    </contour>
    <contour>
      <point x="97" y="588" type="line"/>
      <point x="115" y="588" type="line"/>
      <point x="115" y="623" type="line"/>
      <point x="74" y="623" type="line"/>
    </contour>
    <contour>
      <point x="74" y="623" type="line"/>
      <point x="98" y="623" type="line"/>
      <point x="108" y="702" type="line"/>
      <point x="108" y="703" type="line"/>
      <point x="87" y="703" type="line"/>
    </contour>
  </outline>
</glyph>
<glyph name="quotedblbase.color1" format="2">
  <advance width="600"/>
  <unicode hex="201E"/>
  <outline>
    <contour>
      <point x="40" y="-90" type="line"/>
      <point x="40" y="-91" type="line"/>
      <point x="61" y="-91" type="line"/>
      <point x="74" y="-11" type="line"/>
      <point x="50" y="-11" type="line"/>
    </contour>
  </outline>
</glyph>
<glyph name="dagger.color0" format="2">
  <advance width="600"/>
  <unicode hex="2020"/>
  <outline>
    <contour>
      <point x="97" y="0" type="line"/>
      <point x="121" y="0" type="line"/>
      <point x="121" y="476" type="line"/>
      <point x="97" y="476" type="line"/>
    </contour>
  </outline>
</glyph>
<glyph name="daggerdbl.color6" format="2">
  <advance width="600"/>
  <unicode hex="2021"/>
  <outline>
    <contour>
      <point x="97" y="0" type="line"/>
      <point x="121" y="0" type="line"/>
      <point x="121" y="229" type="line"/>
      <point x="97" y="229" type="line"/>
    </contour>
  </outline>
</glyph>
<glyph name="ellipsis.color0" format="2">
  <advance width="600"/>
  <unicode hex="2026"/>
  <outline>
    <contour>
      <point x="113" y="0" type="line"/>
      <point x="144" y="0" type="line"/>
      <point x="144" y="24" type="line"/>
      <point x="113" y="24" type="line"/>
    </contour>
  </outline>
</glyph>
<glyph name="perthousand.color1" format="2">
  <advance width="600"/>
  <unicode hex="2030"/>
  <outline>
    <contour>
      <point x="434" y="20" type="line"/>
      <point x="485" y="20" type="line"/>
      <point x="485" y="44" type="line"/>
      <point x="411" y="44" type="line"/>
      <point x="411" y="43" type="line"/>
    </contour>
  </outline>
</glyph>
<glyph name="perthousand" format="2">
  <advance width="562"/>
  <unicode hex="2030"/>
  <outline>
    <contour>
      <point x="435" y="296" type="line"/>
      <point x="509" y="296" type="line"/>
      <point x="509" y="297" type="line"/>
      <point x="486" y="320" type="line"/>
      <point x="435" y="320" type="line"/>
    </contour>
    <contour>
      <point x="73" y="0" type="line"/>
      <point x="96" y="0" type="line"/>
      <point x="341" y="699" type="line"/>
      <point x="341" y="700" type="line"/>
      <point x="318" y="700" type="line"/>
      <point x="73" y="1" type="line"/>
    </contour>
    <contour>
      <point x="76" y="380" type="line"/>
      <point x="127" y="380" type="line"/>
      <point x="127" y="404" type="line"/>
      <point x="53" y="404" type="line"/>
      <point x="53" y="403" type="line"/>
    </contour>
    <contour>
      <point x="53" y="404" type="line"/>
      <point x="77" y="404" type="line"/>
      <point x="77" y="680" type="line"/>
      <point x="76" y="680" type="line"/>
      <point x="53" y="657" type="line"/>
    </contour>
    <contour>
      <point x="127" y="380" type="line"/>
      <point x="128" y="380" type="line"/>
      <point x="151" y="403" type="line"/>
      <point x="151" y="656" type="line"/>
      <point x="127" y="656" type="line"/>
    </contour>
    <contour>
      <point x="77" y="656" type="line"/>
      <point x="151" y="656" type="line"/>
      <point x="151" y="657" type="line"/>
      <point x="128" y="680" type="line"/>
      <point x="77" y="680" type="line"/>
    </contour>
    <contour>
      <point x="284" y="20" type="line"/>
      <point x="335" y="20" type="line"/>
      <point x="335" y="44" type="line"/>
      <point x="261" y="44" type="line"/>
      <point x="261" y="43" type="line"/>
    </contour>
    <contour>
      <point x="261" y="44" type="line"/>
      <point x="285" y="44" type="line"/>
      <point x="285" y="320" type="line"/>
      <point x="284" y="320" type="line"/>
      <point x="261" y="297" type="line"/>
    </contour>
    <contour>
      <point x="335" y="20" type="line"/>
      <point x="336" y="20" type="line"/>
      <point x="359" y="43" type="line"/>
      <point x="359" y="296" type="line"/>
      <point x="335" y="296" type="line"/>
    </contour>
    <contour>
      <point x="285" y="296" type="line"/>
      <point x="359" y="296" type="line"/>
      <point x="359" y="297" type="line"/>
      <point x="336" y="320" type="line"/>
      <point x="285" y="320" type="line"/>
    </contour>
    <contour>
      <point x="434" y="20" type="line"/>
      <point x="485" y="20" type="line"/>
      <point x="485" y="44" type="line"/>
      <point x="411" y="44" type="line"/>
      <point x="411" y="43" type="line"/>
    </contour>
    <contour>
      <point x="411" y="44" type="line"/>
      <point x="435" y="44" type="line"/>
      <point x="435" y="320" type="line"/>
      <point x="434" y="320" type="line"/>
      <point x="411" y="297" type="line"/>
    </contour>
    <contour>
      <point x="485" y="20" type="line"/>
      <point x="486" y="20" type="line"/>
      <point x="509" y="43" type="line"/>
      <point x="509" y="296" type="line"/>
      <point x="485" y="296" type="line"/>
    </contour>
  </outline>
</glyph>
<glyph name="fraction" format="2">
  <advance width="374"/>
  <unicode hex="2044"/>
  <outline>
    <contour>
      <point x="53" y="0" type="line"/>
      <point x="76" y="0" type="line"/>
      <point x="321" y="699" type="line"/>
      <point x="321" y="700" type="line"/>
      <point x="298" y="700" type="line"/>
      <point x="53" y="1" type="line"/>
    </contour>
  </outline>
</glyph>
<glyph name="commercialMinusSign" format="2">
  <advance width="374"/>
  <unicode hex="2052"/>
  <outline>
    <contour>
      <point x="53" y="0" type="line"/>
      <point x="76" y="0" type="line"/>
      <point x="321" y="699" type="line"/>
      <point x="321" y="700" type="line"/>
      <point x="298" y="700" type="line"/>
      <point x="53" y="1" type="line"/>
    </contour>
    <contour>
      <point x="73" y="542" type="line"/>
      <point x="107" y="542" type="line"/>
      <point x="107" y="630" type="line"/>
      <point x="73" y="630" type="line"/>
    </contour>
    <contour>
      <point x="231" y="50" type="line"/>
      <point x="265" y="50" type="line"/>
      <point x="265" y="138" type="line"/>
      <point x="231" y="138" type="line"/>
    </contour>
    <contour>
      <point x="107" y="542" type="line"/>
      <point x="141" y="542" type="line"/>
      <point x="141" y="586" type="line"/>
      <point x="107" y="586" type="line"/>
    </contour>
    <contour>
      <point x="265" y="50" type="line"/>
      <point x="299" y="50" type="line"/>
      <point x="299" y="94" type="line"/>
      <point x="265" y="94" type="line"/>
    </contour>
    <contour>
      <point x="107" y="586" type="line"/>
      <point x="141" y="586" type="line"/>
      <point x="141" y="630" type="line"/>
      <point x="107" y="630" type="line"/>
    </contour>
    <contour>
      <point x="265" y="94" type="line"/>
      <point x="299" y="94" type="line"/>
      <point x="299" y="138" type="line"/>
      <point x="265" y="138" type="line"/>
    </contour>
  </outline>
</glyph>
<glyph name="franc" format="2">
  <advance width="253"/>
  <unicode hex="20A3"/>
  <outline>
    <contour>
      <point x="21" y="188" type="line"/>
      <point x="180" y="189" type="line"/>
      <point x="180" y="190" type="line"/>
      <point x="157" y="213" type="line"/>
      <point x="-2" y="212" type="line"/>
      <point x="-2" y="211" type="line"/>
    </contour>
    <component base="F" xOffset="15"/>
  </outline>
</glyph>
<glyph name="lira.color2" format="2">
  <advance width="600"/>
  <unicode hex="20A4"/>
  <outline>
    <contour>
      <point x="76" y="329" type="line"/>
      <point x="235" y="330" type="line"/>
      <point x="235" y="331" type="line"/>
      <point x="212" y="354" type="line"/>
      <point x="53" y="353" type="line"/>
      <point x="53" y="352" type="line"/>
    </contour>
  </outline>
</glyph>
<glyph name="euro" format="2">
  <advance width="328"/>
  <unicode hex="20AC"/>
  <outline>
    <contour>
      <point x="76" y="418" type="line"/>
      <point x="275" y="419" type="line"/>
      <point x="275" y="420" type="line"/>
      <point x="252" y="443" type="line"/>
      <point x="53" y="442" type="line"/>
      <point x="53" y="441" type="line"/>
    </contour>
    <contour>
      <point x="76" y="329" type="line"/>
      <point x="275" y="330" type="line"/>
      <point x="275" y="331" type="line"/>
      <point x="252" y="354" type="line"/>
      <point x="53" y="353" type="line"/>
      <point x="53" y="352" type="line"/>
    </contour>
    <component base="C" xOffset="55"/>
  </outline>
</glyph>
<glyph name="kip.color0" format="2">
  <advance width="600"/>
  <unicode hex="20AD"/>
  <outline>
    <contour>
      <point x="36" y="352" type="line"/>
      <point x="345" y="353" type="line"/>
      <point x="345" y="354" type="line"/>
      <point x="322" y="377" type="line"/>
      <point x="13" y="376" type="line"/>
      <point x="13" y="375" type="line"/>
    </contour>
  </outline>
</glyph>
<glyph name="kip.color1" format="2">
  <advance width="600"/>
  <unicode hex="20AD"/>
  <outline>
    <contour>
      <point x="267" y="0" type="line"/>
      <point x="293" y="0" type="line"/>
      <point x="293" y="1" type="line"/>
      <point x="203" y="373" type="line"/>
      <point x="183" y="353" type="line"/>
    </contour>
  </outline>
</glyph>
<glyph name="kip" format="2">
  <advance width="346"/>
  <unicode hex="20AD"/>
  <outline>
    <contour>
      <point x="36" y="352" type="line"/>
      <point x="345" y="353" type="line"/>
      <point x="345" y="354" type="line"/>
      <point x="322" y="377" type="line"/>
      <point x="13" y="376" type="line"/>
      <point x="13" y="375" type="line"/>
    </contour>
    <component base="K" xOffset="20"/>
  </outline>
</glyph>
<glyph name="guarani" format="2">
  <advance width="273"/>
  <unicode hex="20B2"/>
  <outline>
    <contour>
      <point x="77" y="676" type="line"/>
      <point x="220" y="676" type="line"/>
      <point x="220" y="677" type="line"/>
      <point x="197" y="700" type="line"/>
      <point x="77" y="700" type="line"/>
    </contour>
    <contour>
      <point x="76" y="0" type="line"/>
      <point x="196" y="0" type="line"/>
      <point x="196" y="24" type="line"/>
      <point x="53" y="24" type="line"/>
      <point x="53" y="23" type="line"/>
    </contour>
    <contour>
      <point x="88" y="-48" type="line"/>
      <point x="112" y="-48" type="line"/>
      <point x="191" y="756" type="line"/>
      <point x="190" y="756" type="line"/>
      <point x="167" y="756" type="line"/>
      <point x="88" y="-47" type="line"/>
    </contour>
    <contour>
      <point x="53" y="24" type="line"/>
      <point x="77" y="24" type="line"/>
      <point x="77" y="700" type="line"/>
      <point x="76" y="700" type="line"/>
      <point x="53" y="677" type="line"/>
    </contour>
    <contour>
      <point x="123" y="353" type="line"/>
      <point x="196" y="353" type="line"/>
      <point x="196" y="377" type="line"/>
      <point x="123" y="377" type="line"/>
    </contour>
    <contour>
      <point x="196" y="0" type="line"/>
      <point x="197" y="0" type="line"/>
      <point x="220" y="24" type="line"/>
      <point x="220" y="353" type="line"/>
      <point x="197" y="377" type="line"/>
      <point x="196" y="377" type="line"/>
    </contour>
  </outline>
</glyph>
<glyph name="liraTurkish.color2" format="2">
  <advance width="600"/>
  <unicode hex="20BA"/>
  <outline>
    <contour>
      <point x="121" y="24" type="line"/>
      <point x="145" y="24" type="line"/>
      <point x="145" y="700" type="line"/>
      <point x="121" y="700" type="line"/>
    </contour>
  </outline>
</glyph>
<glyph name="manat.color1" format="2">
  <advance width="600"/>
  <unicode hex="20BC"/>
  <outline>
    <contour>
      <point x="196" y="0" type="line"/>
      <point x="220" y="0" type="line"/>
      <point x="220" y="676" type="line"/>
      <point x="196" y="676" type="line"/>
    </contour>
  </outline>
</glyph>
<glyph name="ruble.color2" format="2">
  <advance width="600"/>
  <unicode hex="20BD"/>
  <outline>
    <contour>
      <point x="28" y="309" type="line"/>
      <point x="237" y="309" type="line"/>
      <point x="237" y="310" type="line"/>
      <point x="214" y="333" type="line"/>
      <point x="5" y="333" type="line"/>
      <point x="5" y="332" type="line"/>
    </contour>
  </outline>
</glyph>
<glyph name="ruble.color4" format="2">
  <advance width="600"/>
  <unicode hex="20BD"/>
  <outline>
    <contour>
      <point x="219" y="353" type="line"/>
      <point x="220" y="353" type="line"/>
      <point x="243" y="376" type="line"/>
      <point x="243" y="676" type="line"/>
      <point x="219" y="676" type="line"/>
    </contour>
  </outline>
</glyph>
<glyph name="numero.color2" format="2">
  <advance width="600"/>
  <unicode hex="2116"/>
  <outline>
    <contour>
      <point x="358" y="100" type="line"/>
      <point x="409" y="100" type="line"/>
      <point x="409" y="124" type="line"/>
      <point x="335" y="124" type="line"/>
      <point x="335" y="123" type="line"/>
    </contour>
  </outline>
</glyph>
<glyph name="numero" format="2">
  <advance width="517"/>
  <unicode hex="2116"/>
  <anchor x="165" y="0" name="bottom"/>
  <anchor x="168" y="700" name="top"/>
  <outline>
    <contour>
      <point x="359" y="476" type="line"/>
      <point x="433" y="476" type="line"/>
      <point x="433" y="477" type="line"/>
      <point x="410" y="500" type="line"/>
      <point x="359" y="500" type="line"/>
    </contour>
    <contour>
      <point x="260" y="22" type="line"/>
      <point x="260" y="700" type="line"/>
      <point x="236" y="700" type="line"/>
      <point x="236" y="46" type="line"/>
    </contour>
    <contour>
      <point x="53" y="0" type="line"/>
      <point x="77" y="0" type="line"/>
      <point x="77" y="655" type="line"/>
      <point x="53" y="679" type="line"/>
    </contour>
    <contour>
      <point x="236" y="-3" type="line"/>
      <point x="237" y="-3" type="line"/>
      <point x="260" y="21" type="line"/>
      <point x="260" y="22" type="line"/>
      <point x="77" y="703" type="line"/>
      <point x="76" y="703" type="line"/>
      <point x="53" y="680" type="line"/>
      <point x="53" y="679" type="line"/>
    </contour>
    <contour>
      <point x="335" y="0" type="line"/>
      <point x="433" y="0" type="line"/>
      <point x="433" y="24" type="line"/>
      <point x="335" y="24" type="line"/>
    </contour>
    <contour>
      <point x="358" y="100" type="line"/>
      <point x="409" y="100" type="line"/>
      <point x="409" y="124" type="line"/>
      <point x="335" y="124" type="line"/>
      <point x="335" y="123" type="line"/>
    </contour>
    <contour>
      <point x="335" y="124" type="line"/>
      <point x="359" y="124" type="line"/>
      <point x="359" y="500" type="line"/>
      <point x="358" y="500" type="line"/>
      <point x="335" y="477" type="line"/>
    </contour>
    <contour>
      <point x="409" y="100" type="line"/>
      <point x="410" y="100" type="line"/>
      <point x="433" y="123" type="line"/>
      <point x="433" y="476" type="line"/>
      <point x="409" y="476" type="line"/>
    </contour>
  </outline>
</glyph>
<glyph name="trademark.color0" format="2">
  <advance width="600"/>
  <unicode hex="2122"/>
  <outline>
    <contour>
      <point x="276" y="429" type="line"/>
      <point x="350" y="693" type="line"/>
      <point x="327" y="703" type="line"/>
      <point x="263" y="472" type="line"/>
    </contour>
  </outline>
</glyph>
